<svg xmlns="http://www.w3.org/2000/svg" xmlns:xlink="http://www.w3.org/1999/xlink" width="300" zoomAndPan="magnify" viewBox="0 0 224.87999 115.499997" height="154" preserveAspectRatio="xMidYMid meet" version="1.0"><defs><clipPath id="3a8db64699"><path d="M 49.683594 88 L 59 88 L 59 98 L 49.683594 98 Z M 49.683594 88 " clip-rule="nonzero"/></clipPath></defs><path fill="#64b5f6" d="M 132.214844 79.125 L 116.597656 63.472656 C 116.226562 63.101562 115.78125 62.863281 115.265625 62.761719 C 114.746094 62.65625 114.246094 62.707031 113.757812 62.90625 C 113.273438 63.109375 112.882812 63.425781 112.589844 63.867188 C 112.296875 64.304688 112.152344 64.785156 112.152344 65.3125 L 112.152344 101.792969 C 112.152344 102.351562 112.316406 102.859375 112.644531 103.3125 C 112.972656 103.769531 113.398438 104.082031 113.929688 104.261719 C 114.199219 104.351562 114.472656 104.394531 114.753906 104.394531 C 115.164062 104.394531 115.550781 104.304688 115.917969 104.121094 C 116.285156 103.9375 116.589844 103.683594 116.835938 103.355469 L 132.453125 82.523438 C 132.640625 82.273438 132.777344 81.996094 132.867188 81.699219 C 132.957031 81.398438 132.988281 81.089844 132.96875 80.777344 C 132.945312 80.464844 132.871094 80.167969 132.738281 79.882812 C 132.609375 79.597656 132.433594 79.34375 132.214844 79.125 Z M 132.214844 79.125 " fill-opacity="1" fill-rule="nonzero"/><path fill="#1976d2" d="M 120.78125 73.285156 L 105.164062 68.078125 C 104.699219 67.921875 104.222656 67.898438 103.742188 68.011719 C 103.265625 68.125 102.851562 68.355469 102.5 68.703125 C 102.152344 69.054688 101.921875 69.46875 101.808594 69.945312 C 101.695312 70.425781 101.714844 70.902344 101.871094 71.367188 L 112.28125 102.613281 C 112.457031 103.148438 112.773438 103.578125 113.230469 103.90625 C 113.683594 104.234375 114.191406 104.394531 114.753906 104.394531 L 114.914062 104.394531 C 115.203125 104.378906 115.476562 104.316406 115.742188 104.207031 C 116.007812 104.097656 116.246094 103.949219 116.464844 103.761719 C 116.679688 103.570312 116.859375 103.355469 117.003906 103.105469 C 117.148438 102.859375 117.25 102.59375 117.304688 102.3125 L 122.511719 76.273438 C 122.574219 75.960938 122.578125 75.648438 122.527344 75.335938 C 122.476562 75.023438 122.371094 74.726562 122.214844 74.453125 C 122.054688 74.175781 121.851562 73.9375 121.605469 73.738281 C 121.359375 73.535156 121.082031 73.386719 120.78125 73.285156 Z M 120.78125 73.285156 " fill-opacity="1" fill-rule="nonzero"/><path fill="#2196f3" d="M 173.503906 0.738281 C 173.089844 0.449219 172.628906 0.292969 172.125 0.269531 C 171.621094 0.25 171.148438 0.363281 170.710938 0.617188 L 71.800781 57.902344 C 71.359375 58.160156 71.019531 58.515625 70.789062 58.972656 C 70.554688 59.429688 70.464844 59.910156 70.519531 60.421875 C 70.570312 60.929688 70.757812 61.382812 71.078125 61.785156 C 71.398438 62.183594 71.800781 62.464844 72.285156 62.625 L 119.03125 78.21875 L 155.367188 93.796875 C 155.550781 93.875 155.734375 93.929688 155.929688 93.964844 C 156.121094 94 156.316406 94.015625 156.511719 94.003906 C 156.707031 93.996094 156.898438 93.964844 157.089844 93.914062 C 157.277344 93.859375 157.457031 93.789062 157.632812 93.695312 C 157.804688 93.601562 157.964844 93.488281 158.109375 93.359375 C 158.257812 93.230469 158.390625 93.085938 158.503906 92.925781 C 158.617188 92.765625 158.714844 92.597656 158.789062 92.417969 C 158.867188 92.234375 158.921875 92.050781 158.957031 91.855469 L 174.574219 3.328125 C 174.660156 2.828125 174.609375 2.34375 174.417969 1.875 C 174.222656 1.410156 173.917969 1.027344 173.503906 0.738281 Z M 173.503906 0.738281 " fill-opacity="1" fill-rule="nonzero"/><path fill="#1976d2" d="M 174.136719 4.382812 C 174.328125 4.117188 174.460938 3.824219 174.542969 3.507812 C 174.625 3.191406 174.644531 2.871094 174.605469 2.542969 C 174.566406 2.21875 174.46875 1.914062 174.3125 1.625 C 174.15625 1.335938 173.953125 1.085938 173.703125 0.875 C 173.453125 0.664062 173.175781 0.503906 172.863281 0.398438 C 172.554688 0.292969 172.234375 0.246094 171.910156 0.261719 C 171.582031 0.273438 171.269531 0.347656 170.96875 0.480469 C 170.667969 0.613281 170.402344 0.796875 170.171875 1.03125 L 102.296875 72.644531 L 121.886719 79.414062 Z M 174.136719 4.382812 " fill-opacity="1" fill-rule="nonzero"/><g clip-path="url(#3a8db64699)"><path fill="#1976d2" d="M 56.042969 97.601562 C 55.367188 97.601562 54.777344 97.371094 54.28125 96.914062 C 52.980469 95.71875 51.703125 94.492188 50.449219 93.230469 C 50.203125 92.984375 50.015625 92.703125 49.882812 92.386719 C 49.753906 92.066406 49.6875 91.734375 49.6875 91.390625 C 49.6875 91.042969 49.753906 90.710938 49.882812 90.394531 C 50.015625 90.074219 50.203125 89.792969 50.449219 89.546875 C 50.691406 89.304688 50.972656 89.117188 51.292969 88.984375 C 51.609375 88.851562 51.941406 88.785156 52.289062 88.785156 C 52.632812 88.785156 52.964844 88.847656 53.285156 88.980469 C 53.601562 89.113281 53.882812 89.300781 54.128906 89.542969 C 55.335938 90.75 56.566406 91.933594 57.808594 93.078125 C 58.203125 93.441406 58.460938 93.886719 58.582031 94.410156 C 58.703125 94.933594 58.667969 95.441406 58.472656 95.941406 C 58.277344 96.441406 57.957031 96.84375 57.515625 97.148438 C 57.070312 97.449219 56.582031 97.601562 56.042969 97.601562 Z M 56.042969 97.601562 " fill-opacity="1" fill-rule="nonzero"/></g><path fill="#1976d2" d="M 91.503906 114.757812 C 88.992188 114.75 86.503906 114.492188 84.039062 113.984375 C 83.691406 113.925781 83.367188 113.800781 83.066406 113.613281 C 82.769531 113.421875 82.519531 113.183594 82.316406 112.890625 C 82.117188 112.597656 81.980469 112.28125 81.910156 111.933594 C 81.839844 111.585938 81.839844 111.238281 81.910156 110.890625 C 81.980469 110.546875 82.117188 110.226562 82.316406 109.933594 C 82.519531 109.644531 82.769531 109.402344 83.070312 109.210938 C 83.367188 109.023438 83.691406 108.898438 84.042969 108.84375 C 84.390625 108.785156 84.738281 108.800781 85.082031 108.882812 C 87.207031 109.324219 89.351562 109.546875 91.519531 109.550781 L 92.707031 109.550781 C 93.058594 109.519531 93.398438 109.558594 93.734375 109.671875 C 94.066406 109.78125 94.363281 109.957031 94.621094 110.199219 C 94.878906 110.4375 95.074219 110.71875 95.214844 111.042969 C 95.351562 111.367188 95.417969 111.703125 95.410156 112.054688 C 95.421875 112.402344 95.367188 112.734375 95.25 113.058594 C 95.128906 113.382812 94.949219 113.671875 94.714844 113.921875 C 94.480469 114.175781 94.207031 114.375 93.894531 114.519531 C 93.578125 114.664062 93.25 114.742188 92.90625 114.753906 L 91.546875 114.753906 Z M 72.851562 109.773438 C 72.429688 109.773438 72.03125 109.679688 71.65625 109.484375 C 69.09375 108.144531 66.628906 106.644531 64.257812 104.988281 C 63.988281 104.789062 63.765625 104.542969 63.589844 104.253906 C 63.414062 103.964844 63.296875 103.652344 63.242188 103.320312 C 63.1875 102.988281 63.199219 102.65625 63.273438 102.324219 C 63.347656 101.996094 63.480469 101.691406 63.675781 101.414062 C 63.867188 101.136719 64.105469 100.90625 64.386719 100.722656 C 64.667969 100.535156 64.976562 100.410156 65.308594 100.34375 C 65.640625 100.28125 65.972656 100.277344 66.304688 100.34375 C 66.636719 100.40625 66.941406 100.53125 67.226562 100.714844 C 69.410156 102.25 71.683594 103.640625 74.046875 104.878906 C 74.304688 105.015625 74.535156 105.1875 74.734375 105.398438 C 74.9375 105.609375 75.097656 105.847656 75.21875 106.113281 C 75.339844 106.378906 75.414062 106.65625 75.441406 106.949219 C 75.46875 107.238281 75.445312 107.523438 75.378906 107.808594 C 75.308594 108.09375 75.195312 108.355469 75.039062 108.601562 C 74.878906 108.847656 74.6875 109.058594 74.457031 109.238281 C 74.226562 109.421875 73.976562 109.558594 73.699219 109.652344 C 73.421875 109.75 73.140625 109.796875 72.847656 109.796875 Z M 72.851562 109.773438 " fill-opacity="1" fill-rule="nonzero"/><path fill="#1976d2" d="M 104.890625 111.96875 C 104.589844 111.96875 104.296875 111.921875 104.011719 111.824219 C 103.726562 111.722656 103.46875 111.578125 103.234375 111.390625 C 103 111.203125 102.804688 110.980469 102.648438 110.722656 C 102.492188 110.464844 102.382812 110.191406 102.320312 109.894531 C 102.257812 109.601562 102.25 109.304688 102.289062 109.003906 C 102.332031 108.707031 102.421875 108.425781 102.5625 108.160156 C 102.699219 107.890625 102.878906 107.65625 103.101562 107.453125 C 103.324219 107.246094 103.570312 107.085938 103.847656 106.96875 C 105.347656 106.328125 106.800781 105.589844 108.207031 104.761719 C 108.5 104.59375 108.820312 104.492188 109.15625 104.449219 C 109.492188 104.410156 109.824219 104.433594 110.152344 104.523438 C 110.480469 104.609375 110.78125 104.757812 111.050781 104.964844 C 111.320312 105.171875 111.542969 105.417969 111.714844 105.710938 C 111.886719 106.003906 111.996094 106.320312 112.046875 106.65625 C 112.097656 106.992188 112.082031 107.324219 112 107.652344 C 111.917969 107.984375 111.78125 108.285156 111.582031 108.5625 C 111.382812 108.835938 111.136719 109.0625 110.851562 109.242188 C 109.25 110.1875 107.601562 111.027344 105.894531 111.757812 C 105.574219 111.894531 105.238281 111.964844 104.890625 111.96875 Z M 104.890625 111.96875 " fill-opacity="1" fill-rule="nonzero"/></svg>