<svg xmlns="http://www.w3.org/2000/svg" xmlns:xlink="http://www.w3.org/1999/xlink" width="100" zoomAndPan="magnify" viewBox="0 0 75 74.999997" height="100" preserveAspectRatio="xMidYMid meet" version="1.0"><defs><clipPath id="98ea9dd884"><path d="M 7.5 0 L 66.75 0 L 66.75 75 L 7.5 75 Z M 7.5 0 " clip-rule="nonzero"/></clipPath><clipPath id="9995d8fae0"><path d="M 7.5 0 L 66.75 0 L 66.75 75 L 7.5 75 Z M 7.5 0 " clip-rule="nonzero"/></clipPath><clipPath id="39bf595ada"><path d="M 10 3 L 66.75 3 L 66.75 75 L 10 75 Z M 10 3 " clip-rule="nonzero"/></clipPath></defs><g clip-path="url(#98ea9dd884)"><path fill="#d37643" d="M 15.21875 46.398438 L 10.25 46.398438 L 10.25 46.125 L 11.730469 46.125 L 10.988281 41.640625 L 10.710938 41.640625 L 10.710938 41.070312 L 13.007812 41.070312 L 13.375 39.226562 L 13.519531 39.257812 L 13.15625 41.070312 L 14.761719 41.070312 L 14.761719 41.640625 L 14.480469 41.640625 L 13.742188 46.125 L 15.21875 46.125 Z M 66.4375 42.609375 L 64.15625 59.234375 L 66.183594 74.847656 L 64.753906 74.847656 L 62.757812 59.492188 L 52.914062 59.492188 L 54.910156 74.847656 L 53.480469 74.847656 L 51.484375 59.492188 L 42.996094 59.492188 L 41 74.847656 L 39.570312 74.847656 L 41.566406 59.488281 L 41.492188 59.480469 C 41.183594 59.445312 40.894531 59.316406 40.664062 59.105469 L 40.570312 59.023438 L 38.085938 69.195312 L 36.265625 69.195312 L 36.234375 69.269531 L 36.316406 69.269531 C 35.890625 70.273438 35.476562 71.164062 35.257812 72.21875 C 35.125 72.84375 35.203125 73.40625 35.148438 74.285156 L 35.070312 74.285156 L 35.066406 74.363281 L 35.25 74.359375 L 35.203125 74.847656 L 26.113281 74.847656 C 26.132812 74.394531 26.4375 73.761719 27.246094 73.304688 C 28.140625 72.796875 29.765625 72.421875 30.089844 72.351562 L 30.148438 72.46875 L 30.207031 72.453125 C 30.210938 72.453125 30.21875 72.453125 30.222656 72.449219 L 30.1875 72.382812 C 31.019531 72.183594 31.816406 72 31.816406 72 L 32.417969 69.273438 L 32.492188 69.273438 L 32.511719 69.195312 L 29.5 69.195312 L 31.984375 61.0625 L 31.855469 60.992188 L 27.785156 65.425781 L 25.050781 62.429688 L 25 62.453125 C 24.996094 62.457031 24.988281 62.460938 24.984375 62.464844 L 25.035156 62.519531 C 24.277344 62.910156 23.570312 63.292969 22.890625 63.832031 C 22.378906 64.238281 22.074219 64.734375 21.445312 65.398438 L 21.386719 65.347656 L 21.335938 65.402344 L 21.425781 65.480469 L 21.078125 65.824219 L 14.074219 60.050781 C 14.367188 59.722656 14.859375 59.535156 15.4375 59.535156 C 15.597656 59.535156 15.765625 59.550781 15.933594 59.582031 C 16.945312 59.757812 18.441406 60.5 18.738281 60.652344 L 18.714844 60.742188 L 18.769531 60.765625 C 18.773438 60.769531 18.777344 60.773438 18.785156 60.773438 L 18.800781 60.699219 C 19.597656 61.089844 20.378906 61.480469 20.378906 61.480469 L 22.546875 59.789062 L 22.597656 59.84375 L 22.65625 59.796875 L 22.015625 59.09375 L 33.164062 50.726562 C 34.191406 49.957031 35.464844 49.53125 36.75 49.53125 L 42.679688 49.53125 L 45.488281 49.242188 L 45.492188 48.507812 L 9.539062 48.507812 L 9.539062 74.847656 L 7.574219 74.847656 L 7.574219 46.546875 L 18.976562 46.546875 L 16.839844 37.648438 C 16.820312 37.574219 16.835938 37.5 16.882812 37.441406 C 16.929688 37.382812 17 37.347656 17.074219 37.347656 L 28.921875 37.347656 C 29.035156 37.347656 29.132812 37.425781 29.160156 37.535156 L 30.796875 44.347656 L 30.875 44.347656 L 38.460938 44.082031 L 41.109375 41.808594 L 41.175781 41.851562 L 41.234375 41.800781 L 40.808594 41.527344 C 41.269531 40.992188 44.476562 37.332031 46.652344 35.964844 C 46.992188 35.753906 47.359375 35.570312 47.746094 35.414062 L 47.804688 35.390625 L 47.789062 35.320312 C 47.765625 35.328125 47.742188 35.335938 47.71875 35.347656 L 47.511719 34.398438 L 46.394531 34.640625 C 46.125 34.699219 45.851562 34.550781 45.75 34.292969 L 45.339844 33.246094 L 44.71875 33.027344 C 44.625 32.992188 44.574219 32.890625 44.605469 32.796875 L 45.164062 31.710938 C 45.113281 31.585938 45.070312 31.457031 45.042969 31.324219 C 44.996094 31.117188 44.980469 30.914062 44.988281 30.710938 C 45.011719 30.722656 45.039062 30.730469 45.0625 30.742188 C 45.0625 30.734375 45.0625 30.722656 45.0625 30.714844 L 45.0625 30.664062 L 45.019531 30.644531 C 44.550781 30.4375 44.210938 30.234375 44.097656 30.164062 C 44.171875 29.824219 44.746094 27.742188 47.738281 27.449219 C 47.867188 27.4375 47.992188 27.429688 48.113281 27.429688 C 49.40625 27.429688 49.773438 28.152344 49.789062 28.183594 L 49.816406 28.246094 L 49.882812 28.222656 C 49.882812 28.222656 49.929688 28.203125 50.003906 28.203125 C 50.199219 28.203125 50.554688 28.332031 50.742188 29.199219 C 51.175781 31.199219 50.332031 32.363281 50.1875 32.542969 L 50.121094 32.542969 L 50.148438 32.625 C 50.191406 32.621094 50.21875 32.617188 50.222656 32.617188 L 50.707031 34.832031 C 50.679688 34.832031 50.65625 34.832031 50.628906 34.832031 L 50.644531 34.90625 L 50.703125 34.90625 C 52.136719 34.949219 53.464844 35.382812 54.542969 36.15625 C 55.503906 36.84375 56.238281 37.894531 56.792969 39.371094 L 56.8125 39.417969 L 64.164062 39.417969 C 64.761719 39.417969 65.324219 39.691406 65.753906 40.179688 C 66.304688 40.808594 66.558594 41.714844 66.4375 42.609375 Z M 45.496094 44.523438 L 44.484375 43.875 L 44.417969 43.921875 L 44.484375 43.96875 L 40.964844 46.472656 L 40.859375 46.546875 L 45.492188 46.546875 Z M 39.335938 0.152344 L 13.1875 0.152344 L 13.1875 34.597656 L 39.335938 34.597656 Z M 39.335938 0.152344 " fill-opacity="1" fill-rule="nonzero"/></g><path fill="#ebaa71" d="M 15.171875 3.957031 L 25.535156 3.957031 L 25.535156 14.746094 L 15.171875 14.746094 Z M 26.804688 15.992188 L 26.804688 26.273438 L 37.019531 26.273438 L 37.019531 15.992188 Z M 26.804688 15.992188 " fill-opacity="1" fill-rule="nonzero"/><path fill="#5fd9c3" d="M 59.105469 54.789062 L 49.28125 55.125 C 44.871094 53.085938 42.679688 49.457031 42.679688 49.457031 L 45.414062 49.175781 L 45.417969 44.566406 L 44.484375 43.96875 L 41.109375 41.808594 L 40.695312 41.542969 C 40.695312 41.542969 44.234375 37.390625 46.613281 35.902344 C 46.964844 35.683594 47.335938 35.5 47.71875 35.347656 C 48.660156 34.972656 49.6875 34.800781 50.707031 34.832031 C 52.09375 34.875 53.46875 35.292969 54.589844 36.097656 C 55.609375 36.828125 56.328125 37.921875 56.863281 39.34375 Z M 37.660156 1.535156 L 38.863281 1.535156 L 38.863281 15.382812 L 38.574219 15.382812 L 38.863281 27.769531 L 29.210938 27.769531 L 29.210938 33.421875 L 16.726562 33.421875 L 16.726562 27.769531 L 13.886719 27.769531 L 13.886719 14.785156 L 24.363281 14.785156 L 24.363281 1.535156 Z M 23.109375 18.792969 C 23.019531 18.359375 22.890625 17.992188 22.707031 17.695312 C 22.746094 17.613281 22.769531 17.53125 22.789062 17.441406 L 19.21875 19.085938 C 19.21875 19.085938 18.804688 16.917969 17.753906 18.414062 C 16.703125 19.910156 18.65625 21.332031 18.65625 21.332031 L 18.65625 23.886719 L 22.203125 26.011719 L 22.203125 23.148438 C 21.886719 22.984375 21.691406 22.882812 21.691406 22.882812 L 21.691406 22.363281 L 22.265625 22.363281 C 22.519531 22.363281 22.894531 22.300781 22.976562 21.929688 C 23.144531 21.183594 23.285156 19.65625 23.109375 18.792969 Z M 33.988281 21.96875 C 33.988281 21.96875 35.574219 19.769531 34.878906 18.714844 C 33.679688 18.5625 33.167969 18.84375 29.734375 17.03125 C 28.941406 17.796875 28.488281 21.886719 29.320312 22.457031 C 29.5 22.578125 30.261719 22.644531 30.261719 22.644531 L 30.355469 23.132812 C 30.648438 22.976562 30.832031 22.882812 30.832031 22.882812 L 30.832031 23.804688 L 32.101562 25.820312 L 33.601562 23.636719 L 33.601562 22.882812 C 33.601562 22.882812 33.871094 23.023438 34.285156 23.242188 L 34.429688 23.054688 Z M 35.96875 12.703125 C 34.765625 12.136719 33.605469 11.59375 33.601562 11.59375 L 33.601562 10.125 L 33.601562 10.128906 C 33.601562 10.128906 36.027344 7.597656 35.085938 6.71875 C 34.148438 5.839844 30.15625 5.871094 29.820312 6 C 29.632812 6.296875 29.503906 6.664062 29.414062 7.101562 C 29.238281 7.964844 29.378906 9.492188 29.546875 10.238281 C 29.628906 10.609375 30.003906 10.671875 30.257812 10.671875 L 30.832031 10.671875 L 30.832031 11.59375 C 30.832031 11.59375 29.410156 12.257812 28.082031 12.882812 L 28.082031 14.140625 L 35.96875 14.140625 Z M 20.058594 0.824219 L 13.398438 0.824219 L 13.398438 2.660156 L 20.058594 2.660156 Z M 13.609375 39.195312 L 13.316406 39.140625 L 12.945312 40.996094 L 10.925781 41.714844 L 11.640625 46.050781 L 13.832031 46.050781 L 14.546875 41.714844 L 13.25 40.996094 Z M 13.609375 39.195312 " fill-opacity="1" fill-rule="nonzero"/><g clip-path="url(#9995d8fae0)"><path fill="#f7f7f7" d="M 29.339844 17.375 L 28.945312 15.71875 L 36.832031 15.90625 L 37.171875 24.214844 L 33.714844 22.773438 L 33.714844 21.753906 C 33.644531 21.800781 33.601562 21.820312 33.601562 21.820312 L 33.601562 21.039062 C 34.761719 20.722656 34.976562 19.21875 34.507812 18.933594 C 34.246094 18.773438 33.847656 18.894531 33.558594 19.164062 L 33.460938 20.199219 L 32.867188 20.101562 L 32.8125 19.582031 C 31.835938 19.246094 30.242188 18.578125 29.820312 17.691406 C 29.800781 17.652344 29.785156 17.613281 29.769531 17.570312 Z M 20.058594 29.339844 C 19.753906 29.339844 19.503906 29.585938 19.503906 29.890625 L 19.503906 30.753906 C 19.503906 31.007812 19.679688 31.21875 19.914062 31.28125 L 19.914062 31.78125 L 19.601562 31.78125 L 19.601562 32.066406 L 20.515625 32.066406 L 20.515625 31.78125 L 20.203125 31.78125 L 20.203125 31.28125 C 20.4375 31.21875 20.613281 31.007812 20.613281 30.753906 L 20.613281 29.890625 C 20.613281 29.585938 20.363281 29.339844 20.058594 29.339844 Z M 31.121094 74.308594 L 30.1875 72.382812 L 30.132812 72.265625 C 30.132812 72.265625 28.222656 72.667969 27.210938 73.238281 C 26.414062 73.691406 26.035156 74.347656 26.035156 74.894531 L 26.035156 74.921875 L 35.273438 74.921875 L 35.335938 74.285156 L 35.148438 74.285156 Z M 45.414062 46.472656 L 40.964844 46.472656 L 40.125 47.070312 C 39.714844 47.363281 39.207031 47.476562 38.710938 47.390625 L 33.4375 46.472656 L 31.351562 46.351562 L 20.34375 46.183594 L 18.882812 46.472656 L 15.164062 46.472656 L 15.164062 46.164062 L 10.355469 46.164062 L 10.355469 46.472656 L 7.5 46.472656 L 7.5 74.921875 L 9.617188 74.921875 L 9.617188 48.582031 L 45.414062 48.582031 Z M 64.164062 39.34375 L 53.46875 39.34375 C 52.300781 39.34375 51.308594 40.347656 51.121094 41.710938 L 49.28125 55.125 L 49.144531 56.117188 L 41.664062 56.117188 C 40.792969 56.117188 40.089844 56.816406 40.089844 57.683594 L 40.089844 58 C 40.089844 58.460938 40.292969 58.875 40.613281 59.164062 C 40.847656 59.375 41.148438 59.515625 41.480469 59.554688 C 41.542969 59.5625 41.601562 59.566406 41.660156 59.566406 L 64.183594 59.566406 L 64.230469 59.234375 L 66.511719 42.617188 C 66.746094 40.902344 65.628906 39.34375 64.164062 39.34375 Z M 18.277344 62.816406 L 18.800781 60.699219 L 18.824219 60.613281 C 18.824219 60.613281 17.09375 59.707031 15.945312 59.507812 C 15.046875 59.351562 14.335938 59.617188 13.984375 60.039062 L 13.96875 60.0625 L 21.082031 65.925781 L 21.539062 65.472656 L 21.445312 65.394531 Z M 39.410156 34.671875 L 13.113281 34.671875 L 13.113281 0.078125 L 39.410156 0.078125 Z M 18.015625 7.242188 C 17.535156 7.535156 17.773438 9.113281 19.019531 9.367188 L 18.921875 10.128906 L 18.667969 10.929688 L 18.921875 11.191406 L 18.921875 11.945312 L 20.421875 14.128906 L 21.691406 12.113281 L 21.691406 11.191406 C 21.691406 11.191406 21.847656 10.929688 21.847656 10.929688 C 21.847656 10.929688 22.75 11.179688 23.273438 10.703125 C 23.800781 10.230469 23.386719 6.464844 23.1875 6.226562 C 22.988281 5.988281 22.695312 5.988281 22.695312 5.988281 C 22.695312 5.988281 22.410156 6.234375 22.222656 6.335938 C 21.519531 6.726562 20.40625 7.160156 19.757812 7.402344 L 19.65625 8.410156 L 19.0625 8.507812 L 18.964844 7.472656 C 18.675781 7.203125 18.277344 7.082031 18.015625 7.242188 Z M 17.308594 1.714844 C 17.308594 1.9375 17.492188 2.121094 17.71875 2.121094 C 17.945312 2.121094 18.128906 1.9375 18.128906 1.714844 C 18.128906 1.488281 17.945312 1.304688 17.71875 1.304688 C 17.492188 1.304688 17.308594 1.488281 17.308594 1.714844 Z M 15.828125 1.714844 C 15.828125 1.9375 16.011719 2.121094 16.238281 2.121094 C 16.464844 2.121094 16.648438 1.9375 16.648438 1.714844 C 16.648438 1.488281 16.464844 1.304688 16.238281 1.304688 C 16.011719 1.304688 15.828125 1.488281 15.828125 1.714844 Z M 14.351562 1.714844 C 14.351562 1.9375 14.535156 2.121094 14.761719 2.121094 C 14.988281 2.121094 15.171875 1.9375 15.171875 1.714844 C 15.171875 1.488281 14.988281 1.304688 14.761719 1.304688 C 14.535156 1.304688 14.351562 1.488281 14.351562 1.714844 Z M 22.203125 30.703125 C 22.203125 29.523438 21.242188 28.566406 20.058594 28.566406 C 18.875 28.566406 17.914062 29.523438 17.914062 30.703125 C 17.914062 31.882812 18.875 32.839844 20.058594 32.839844 C 21.242188 32.839844 22.203125 31.882812 22.203125 30.703125 Z M 28.40625 30.703125 C 28.40625 29.523438 27.445312 28.566406 26.261719 28.566406 C 25.078125 28.566406 24.117188 29.523438 24.117188 30.703125 C 24.117188 31.882812 25.078125 32.839844 26.261719 32.839844 C 27.445312 32.839844 28.40625 31.882812 28.40625 30.703125 Z M 38.171875 15.042969 L 14.351562 15.042969 L 14.351562 25.773438 L 14.351562 25.726562 C 14.667969 25.316406 15.058594 24.960938 15.511719 24.679688 C 15.597656 24.625 15.6875 24.574219 15.777344 24.527344 C 17.199219 23.78125 18.921875 22.882812 18.921875 22.882812 L 18.921875 23.636719 L 21.691406 25.589844 L 21.691406 22.882812 C 21.695312 22.882812 23.414062 23.785156 24.835938 24.527344 C 25.398438 24.824219 25.882812 25.234375 26.261719 25.726562 L 26.261719 26.734375 L 38.171875 26.734375 Z M 38.171875 3.351562 L 26.027344 3.351562 L 26.027344 13.761719 C 26.109375 13.847656 26.1875 13.941406 26.261719 14.035156 L 26.261719 14.140625 C 26.640625 13.699219 27.125 13.332031 27.6875 13.066406 C 28.242188 12.804688 28.804688 12.542969 28.804688 12.542969 L 28.804688 13.960938 L 35.632812 13.960938 L 35.632812 12.542969 C 35.632812 12.542969 35.980469 12.707031 36.746094 13.066406 C 37.308594 13.332031 37.792969 13.699219 38.171875 14.140625 Z M 26.917969 30.304688 C 26.917969 30.195312 26.828125 30.105469 26.71875 30.105469 L 25.378906 30.105469 C 25.269531 30.105469 25.179688 30.195312 25.179688 30.304688 L 25.179688 31.101562 C 25.179688 31.214844 25.269531 31.304688 25.378906 31.300781 L 26.71875 31.300781 C 26.828125 31.300781 26.917969 31.214844 26.917969 31.101562 L 26.917969 31.003906 L 27.34375 31.273438 L 27.34375 30.132812 L 26.917969 30.40625 Z M 14.546875 41.714844 L 14.835938 41.714844 L 14.835938 40.996094 L 10.636719 40.996094 L 10.636719 41.714844 Z M 14.546875 41.714844 " fill-opacity="1" fill-rule="nonzero"/></g><g clip-path="url(#39bf595ada)"><path fill="#000000" d="M 30.234375 46.472656 L 18.882812 46.472656 L 16.765625 37.664062 C 16.71875 37.464844 16.871094 37.273438 17.074219 37.273438 L 28.921875 37.273438 C 29.070312 37.273438 29.199219 37.375 29.234375 37.515625 L 30.875 44.347656 L 30.609375 44.355469 L 27.546875 43.765625 L 25.621094 45.296875 C 25.480469 45.40625 25.523438 45.632812 25.695312 45.683594 L 26.269531 45.859375 C 26.359375 45.890625 26.457031 45.882812 26.546875 45.84375 L 27.371094 45.457031 L 27.015625 45.785156 C 26.90625 45.886719 26.945312 46.070312 27.089844 46.113281 C 27.144531 46.128906 27.207031 46.121094 27.253906 46.089844 L 28.035156 45.554688 C 28.035156 45.554688 29.332031 46.277344 30.40625 45.945312 L 33.4375 46.472656 Z M 11.640625 46.050781 L 10.175781 46.050781 L 10.175781 46.472656 L 15.296875 46.472656 L 15.296875 46.050781 Z M 42.679688 49.457031 L 36.75 49.457031 C 35.441406 49.457031 34.167969 49.878906 33.121094 50.664062 L 21.90625 59.085938 L 22.546875 59.789062 L 25.035156 62.519531 L 27.78125 65.539062 L 31.910156 61.039062 L 29.398438 69.269531 L 38.144531 69.269531 L 40.613281 59.164062 C 40.292969 58.875 40.089844 58.460938 40.089844 58 L 40.089844 57.683594 C 40.089844 56.816406 40.792969 56.117188 41.664062 56.117188 L 49.144531 56.117188 L 49.28125 55.125 C 44.871094 53.085938 42.679688 49.457031 42.679688 49.457031 Z M 49.855469 28.152344 C 49.855469 28.152344 49.40625 27.210938 47.730469 27.375 C 44.386719 27.703125 44.011719 30.199219 44.011719 30.199219 C 44.011719 30.199219 44.398438 30.453125 44.988281 30.710938 C 45.308594 30.851562 45.6875 30.992188 46.097656 31.09375 L 46.152344 31.339844 L 46.972656 31.730469 L 46.796875 30.921875 C 47.042969 30.601562 47.414062 30.410156 47.714844 30.515625 C 48.089844 30.644531 48.269531 31.414062 48.015625 32.09375 C 48.828125 32.8125 50.195312 32.621094 50.222656 32.617188 C 50.222656 32.617188 50.226562 32.617188 50.226562 32.617188 C 50.226562 32.617188 51.300781 31.414062 50.816406 29.183594 C 50.53125 27.882812 49.855469 28.152344 49.855469 28.152344 Z M 64.230469 59.234375 L 64.183594 59.566406 L 62.691406 59.566406 L 64.6875 74.921875 L 66.269531 74.921875 Z M 51.417969 59.566406 L 53.414062 74.921875 L 54.996094 74.921875 L 53 59.566406 Z M 41.484375 59.554688 L 39.484375 74.921875 L 41.066406 74.921875 L 43.0625 59.566406 L 41.660156 59.566406 C 41.601562 59.566406 41.542969 59.5625 41.484375 59.554688 Z M 14.351562 14.035156 C 14.730469 13.542969 15.210938 13.128906 15.777344 12.835938 C 17.199219 12.089844 18.921875 11.191406 18.921875 11.191406 L 18.921875 10.128906 C 18.921875 10.128906 16.445312 8.953125 17.375 6.039062 C 17.746094 4.878906 18.726562 4.46875 20.304688 4.46875 C 21.210938 4.46875 23.335938 4.863281 23.335938 4.863281 C 23.335938 4.863281 23.238281 5.472656 22.695312 5.988281 C 22.886719 6.289062 23.019531 6.660156 23.109375 7.101562 C 23.285156 7.964844 23.144531 9.492188 22.976562 10.238281 C 22.894531 10.609375 22.519531 10.671875 22.265625 10.671875 L 21.691406 10.671875 L 21.691406 11.191406 C 21.695312 11.191406 23.414062 12.089844 24.835938 12.835938 C 25.398438 13.128906 25.882812 13.542969 26.261719 14.035156 L 26.261719 3.351562 L 14.351562 3.351562 Z M 26.261719 25.726562 L 26.261719 25.789062 Z M 26.261719 25.726562 C 26.640625 25.234375 27.125 24.824219 27.6875 24.527344 C 29.109375 23.78125 30.832031 22.882812 30.832031 22.882812 L 30.832031 22.363281 L 30.257812 22.363281 C 30.003906 22.363281 29.628906 22.300781 29.546875 21.929688 C 29.378906 21.183594 29.238281 19.65625 29.414062 18.792969 C 29.503906 18.359375 29.632812 17.988281 29.820312 17.691406 C 29.757812 17.558594 29.71875 17.421875 29.714844 17.28125 C 29.6875 16.441406 31.3125 15.992188 32.21875 15.992188 C 34.003906 15.976562 34.21875 16.917969 34.21875 16.917969 C 34.21875 16.917969 35.003906 16.933594 35.21875 17.5625 C 36.210938 20.457031 33.601562 21.820312 33.601562 21.820312 L 33.601562 21.039062 L 33.601562 22.882812 C 33.605469 22.882812 35.324219 23.785156 36.746094 24.527344 C 37.308594 24.824219 37.792969 25.234375 38.171875 25.726562 L 38.171875 15.042969 L 26.261719 15.042969 Z M 18.921875 21.820312 L 18.992188 21.054688 C 17.769531 20.785156 17.539062 19.226562 18.015625 18.933594 C 18.25 18.789062 18.589844 18.871094 18.867188 19.078125 C 19.007812 20.273438 19.671875 21.246094 19.671875 21.246094 L 20.121094 21.175781 C 20.121094 21.175781 19.914062 20.414062 19.855469 19.542969 C 20.785156 19.222656 22.300781 18.578125 22.707031 17.695312 C 22.769531 17.5625 22.804688 17.425781 22.808594 17.28125 C 22.835938 16.441406 21.210938 16.160156 20.304688 16.160156 C 18.726562 16.160156 17.746094 16.570312 17.375 17.730469 C 16.832031 19.425781 17.445312 20.53125 18.050781 21.160156 C 17.6875 21.320312 17.257812 21.582031 16.789062 22.011719 C 15.777344 22.9375 15.550781 24.109375 15.511719 24.679688 C 15.597656 24.625 15.6875 24.574219 15.777344 24.527344 C 17.199219 23.78125 18.921875 22.882812 18.921875 22.882812 Z M 33.351562 7.722656 C 33.621094 7.289062 34.171875 7.035156 34.507812 7.242188 C 34.980469 7.53125 34.757812 9.058594 33.570312 9.351562 L 33.601562 10.125 L 33.601562 10.128906 C 33.601562 10.128906 35.324219 9.308594 35.355469 7.34375 C 36.179688 7.222656 36.8125 6.515625 36.8125 5.660156 C 36.8125 4.722656 36.046875 3.957031 35.101562 3.957031 C 34.539062 3.957031 34.039062 4.234375 33.726562 4.65625 C 33.304688 4.523438 32.804688 4.46875 32.21875 4.46875 C 31.3125 4.46875 29.6875 4.75 29.714844 5.589844 C 29.71875 5.734375 29.757812 5.871094 29.820312 6 C 30.351562 7.074219 32.722656 7.597656 33.351562 7.722656 Z M 32.464844 28.566406 C 33.648438 28.566406 34.609375 29.523438 34.609375 30.703125 C 34.609375 31.882812 33.648438 32.839844 32.464844 32.839844 C 31.28125 32.839844 30.320312 31.882812 30.320312 30.703125 C 30.320312 29.523438 31.28125 28.566406 32.464844 28.566406 Z M 33.566406 30.117188 L 31.359375 30.117188 C 31.128906 30.117188 30.941406 30.304688 30.941406 30.535156 L 30.941406 31.089844 C 30.941406 31.199219 31.03125 31.289062 31.140625 31.289062 L 31.589844 31.289062 C 31.703125 31.289062 31.792969 31.199219 31.792969 31.089844 L 31.792969 30.632812 L 33.136719 30.632812 L 33.136719 31.089844 C 33.136719 31.199219 33.226562 31.289062 33.339844 31.289062 L 33.789062 31.289062 C 33.898438 31.289062 33.988281 31.199219 33.988281 31.089844 L 33.988281 30.535156 C 33.988281 30.304688 33.800781 30.117188 33.566406 30.117188 Z M 33.566406 30.117188 " fill-opacity="1" fill-rule="nonzero"/></g></svg>