<svg xmlns="http://www.w3.org/2000/svg" xmlns:xlink="http://www.w3.org/1999/xlink" width="100" zoomAndPan="magnify" viewBox="0 0 75 74.999997" height="100" preserveAspectRatio="xMidYMid meet" version="1.0"><path fill="#32bea6" d="M 75 37.5 C 75 16.792969 58.207031 0 37.5 0 C 16.792969 0 0 16.792969 0 37.5 C 0 58.207031 16.792969 75 37.5 75 C 58.207031 75 75 58.207031 75 37.5 Z M 75 37.5 " fill-opacity="1" fill-rule="nonzero"/><path fill="#ffffff" d="M 61.714844 40.417969 L 61.714844 34.582031 L 56.183594 32.84375 C 55.714844 30.96875 54.972656 29.203125 53.992188 27.585938 L 56.679688 22.429688 L 52.554688 18.304688 L 47.386719 20.996094 C 45.78125 20.027344 44.03125 19.300781 42.15625 18.832031 L 40.402344 13.269531 L 34.550781 13.269531 L 32.800781 18.832031 C 30.941406 19.300781 29.171875 20.027344 27.570312 20.996094 L 22.445312 18.304688 L 18.304688 22.445312 L 20.996094 27.601562 C 20.027344 29.21875 19.269531 30.96875 18.804688 32.859375 L 13.269531 34.597656 L 13.269531 40.433594 L 18.773438 42.171875 C 19.242188 44.058594 19.980469 45.84375 20.964844 47.476562 L 18.304688 52.554688 L 22.429688 56.679688 L 27.523438 54.019531 C 29.15625 55.003906 30.957031 55.757812 32.859375 56.226562 L 34.582031 61.699219 L 40.433594 61.699219 L 42.15625 56.226562 C 44.058594 55.757812 45.84375 55.003906 47.492188 54.019531 L 52.585938 56.679688 L 56.710938 52.554688 L 54.050781 47.445312 C 55.035156 45.8125 55.773438 44.03125 56.242188 42.140625 Z M 37.5 50.316406 C 30.441406 50.316406 24.710938 44.589844 24.710938 37.53125 C 24.710938 30.472656 30.441406 24.742188 37.5 24.742188 C 44.558594 24.742188 50.273438 30.472656 50.273438 37.53125 C 50.273438 44.605469 44.558594 50.316406 37.5 50.316406 Z M 37.5 50.316406 " fill-opacity="1" fill-rule="nonzero"/></svg>