<svg xmlns="http://www.w3.org/2000/svg" xmlns:xlink="http://www.w3.org/1999/xlink" width="300" zoomAndPan="magnify" viewBox="0 0 224.87999 115.499997" height="154" preserveAspectRatio="xMidYMid meet" version="1.0"><defs><clipPath id="ee5e874160"><path d="M 55.042969 0 L 169.976562 0 L 169.976562 88.226562 L 55.042969 88.226562 Z M 55.042969 0 " clip-rule="nonzero"/></clipPath><clipPath id="7cdc3081da"><path d="M 82.355469 88.226562 C 64.960938 88.226562 66.210938 88.097656 64.503906 87.398438 C 60.796875 85.871094 58.140625 82.296875 57.980469 78.054688 L 55.042969 0 L 169.976562 0 C 169.808594 4.4375 168.066406 50.675781 167.898438 55.214844 C 167.898438 55.210938 167.898438 55.210938 167.898438 55.210938 C 167.898438 55.210938 167.457031 66.84375 167.035156 78.054688 C 166.824219 83.714844 162.164062 88.1875 156.503906 88.1875 C 150.136719 88.183594 144.222656 88.179688 138.730469 88.179688 C 124.390625 88.179688 112.917969 88.191406 103.71875 88.203125 C 94.515625 88.214844 87.59375 88.226562 82.355469 88.226562 M 102.84375 65.261719 C 102.023438 65.261719 101.203125 65.585938 100.59375 66.226562 C 99.417969 67.464844 99.46875 69.421875 100.707031 70.59375 L 111.320312 79.394531 L 113.238281 77.707031 L 114.792969 75.664062 L 104.972656 66.109375 C 104.375 65.542969 103.609375 65.261719 102.84375 65.261719 " clip-rule="nonzero"/></clipPath><clipPath id="5f0a0ca8b6"><path d="M 82.355469 88.226562 C 64.960938 88.226562 66.210938 88.097656 64.503906 87.398438 C 60.796875 85.871094 58.140625 82.296875 57.980469 78.054688 L 55.042969 0 L 169.976562 0 C 169.808594 4.4375 168.066406 50.675781 167.898438 55.214844 C 167.898438 55.210938 167.898438 55.210938 167.898438 55.210938 C 167.898438 55.210938 167.457031 66.84375 167.035156 78.054688 C 166.824219 83.714844 162.164062 88.1875 156.503906 88.1875 C 150.136719 88.183594 144.222656 88.179688 138.730469 88.179688 C 124.390625 88.179688 112.917969 88.191406 103.71875 88.203125 C 94.515625 88.214844 87.59375 88.226562 82.355469 88.226562 M 102.84375 65.261719 C 102.023438 65.261719 101.203125 65.585938 100.59375 66.226562 C 99.417969 67.464844 99.46875 69.421875 100.707031 70.59375 L 111.320312 79.394531 L 113.238281 77.707031 L 114.792969 75.664062 L 104.972656 66.109375 C 104.375 65.542969 103.609375 65.261719 102.84375 65.261719 " clip-rule="nonzero"/></clipPath><linearGradient x1="0.0365484" gradientTransform="matrix(0, 93.589127, -93.712722, 0, 112.508714, -3.420533)" y1="0" x2="0.979264" gradientUnits="userSpaceOnUse" y2="0" id="b0a83ba60e"><stop stop-opacity="1" stop-color="rgb(83.499146%, 86.698914%, 100%)" offset="0"/><stop stop-opacity="1" stop-color="rgb(83.596802%, 86.698914%, 100%)" offset="0.015625"/><stop stop-opacity="1" stop-color="rgb(83.795166%, 86.698914%, 100%)" offset="0.03125"/><stop stop-opacity="1" stop-color="rgb(83.99353%, 86.795044%, 100%)" offset="0.046875"/><stop stop-opacity="1" stop-color="rgb(84.190369%, 86.990356%, 100%)" offset="0.0625"/><stop stop-opacity="1" stop-color="rgb(84.388733%, 87.188721%, 100%)" offset="0.078125"/><stop stop-opacity="1" stop-color="rgb(84.590149%, 87.390137%, 100%)" offset="0.09375"/><stop stop-opacity="1" stop-color="rgb(84.791565%, 87.567139%, 100%)" offset="0.109375"/><stop stop-opacity="1" stop-color="rgb(84.992981%, 87.719727%, 100%)" offset="0.125"/><stop stop-opacity="1" stop-color="rgb(85.194397%, 87.797546%, 100%)" offset="0.140625"/><stop stop-opacity="1" stop-color="rgb(85.397339%, 87.799072%, 100%)" offset="0.15625"/><stop stop-opacity="1" stop-color="rgb(85.693359%, 87.992859%, 100%)" offset="0.1875"/><stop stop-opacity="1" stop-color="rgb(85.98938%, 88.288879%, 100%)" offset="0.203125"/><stop stop-opacity="1" stop-color="rgb(86.190796%, 88.490295%, 100%)" offset="0.21875"/><stop stop-opacity="1" stop-color="rgb(86.294556%, 88.693237%, 100%)" offset="0.234375"/><stop stop-opacity="1" stop-color="rgb(86.299133%, 88.894653%, 100%)" offset="0.25"/><stop stop-opacity="1" stop-color="rgb(86.398315%, 88.996887%, 100%)" offset="0.265625"/><stop stop-opacity="1" stop-color="rgb(86.598206%, 88.999939%, 100%)" offset="0.28125"/><stop stop-opacity="1" stop-color="rgb(86.894226%, 89.195251%, 100%)" offset="0.3125"/><stop stop-opacity="1" stop-color="rgb(87.190247%, 89.491272%, 100%)" offset="0.328125"/><stop stop-opacity="1" stop-color="rgb(87.391663%, 89.692688%, 100%)" offset="0.34375"/><stop stop-opacity="1" stop-color="rgb(87.57019%, 89.894104%, 100%)" offset="0.359375"/><stop stop-opacity="1" stop-color="rgb(87.721252%, 90.09552%, 100%)" offset="0.375"/><stop stop-opacity="1" stop-color="rgb(87.898254%, 90.296936%, 100%)" offset="0.390625"/><stop stop-opacity="1" stop-color="rgb(88.09967%, 90.498352%, 100%)" offset="0.40625"/><stop stop-opacity="1" stop-color="rgb(88.395691%, 90.59906%, 100%)" offset="0.4375"/><stop stop-opacity="1" stop-color="rgb(88.691711%, 90.69519%, 100%)" offset="0.453125"/><stop stop-opacity="1" stop-color="rgb(88.893127%, 90.893555%, 100%)" offset="0.46875"/><stop stop-opacity="1" stop-color="rgb(89.094543%, 91.094971%, 100%)" offset="0.484375"/><stop stop-opacity="1" stop-color="rgb(89.297485%, 91.296387%, 100%)" offset="0.5"/><stop stop-opacity="1" stop-color="rgb(89.498901%, 91.499329%, 100%)" offset="0.515625"/><stop stop-opacity="1" stop-color="rgb(89.700317%, 91.699219%, 100%)" offset="0.53125"/><stop stop-opacity="1" stop-color="rgb(89.996338%, 91.799927%, 100%)" offset="0.5625"/><stop stop-opacity="1" stop-color="rgb(90.292358%, 91.896057%, 100%)" offset="0.578125"/><stop stop-opacity="1" stop-color="rgb(90.4953%, 92.094421%, 100%)" offset="0.59375"/><stop stop-opacity="1" stop-color="rgb(90.696716%, 92.271423%, 100%)" offset="0.609375"/><stop stop-opacity="1" stop-color="rgb(90.898132%, 92.422485%, 100%)" offset="0.625"/><stop stop-opacity="1" stop-color="rgb(91.099548%, 92.599487%, 100%)" offset="0.640625"/><stop stop-opacity="1" stop-color="rgb(91.300964%, 92.799377%, 100%)" offset="0.65625"/><stop stop-opacity="1" stop-color="rgb(91.598511%, 92.89856%, 100%)" offset="0.6875"/><stop stop-opacity="1" stop-color="rgb(91.894531%, 92.996216%, 100%)" offset="0.703125"/><stop stop-opacity="1" stop-color="rgb(92.095947%, 93.196106%, 100%)" offset="0.71875"/><stop stop-opacity="1" stop-color="rgb(92.272949%, 93.397522%, 100%)" offset="0.734375"/><stop stop-opacity="1" stop-color="rgb(92.424011%, 93.598938%, 100%)" offset="0.75"/><stop stop-opacity="1" stop-color="rgb(92.601013%, 93.800354%, 100%)" offset="0.765625"/><stop stop-opacity="1" stop-color="rgb(92.802429%, 94.000244%, 100%)" offset="0.78125"/><stop stop-opacity="1" stop-color="rgb(93.000793%, 94.099426%, 100%)" offset="0.796875"/><stop stop-opacity="1" stop-color="rgb(93.197632%, 94.099426%, 100%)" offset="0.8125"/><stop stop-opacity="1" stop-color="rgb(93.395996%, 94.197083%, 100%)" offset="0.828125"/><stop stop-opacity="1" stop-color="rgb(93.597412%, 94.396973%, 100%)" offset="0.84375"/><stop stop-opacity="1" stop-color="rgb(93.798828%, 94.598389%, 100%)" offset="0.859375"/><stop stop-opacity="1" stop-color="rgb(94.000244%, 94.801331%, 100%)" offset="0.875"/><stop stop-opacity="1" stop-color="rgb(94.20166%, 95.002747%, 100%)" offset="0.890625"/><stop stop-opacity="1" stop-color="rgb(94.404602%, 95.204163%, 100%)" offset="0.90625"/><stop stop-opacity="1" stop-color="rgb(94.700623%, 95.500183%, 100%)" offset="0.9375"/><stop stop-opacity="1" stop-color="rgb(94.996643%, 95.697021%, 100%)" offset="0.953125"/><stop stop-opacity="1" stop-color="rgb(95.198059%, 95.698547%, 100%)" offset="0.96875"/><stop stop-opacity="1" stop-color="rgb(95.399475%, 95.800781%, 100%)" offset="0.984375"/><stop stop-opacity="1" stop-color="rgb(95.599365%, 96.000671%, 100%)" offset="1"/></linearGradient><clipPath id="d5000a84ca"><path d="M 64 103 L 161 103 L 161 115.003906 L 64 115.003906 Z M 64 103 " clip-rule="nonzero"/></clipPath></defs><g clip-path="url(#ee5e874160)"><g clip-path="url(#7cdc3081da)"><g clip-path="url(#5f0a0ca8b6)"><path fill="url(#b0a83ba60e)" d="M 169.976562 0 L 55.042969 0 L 55.042969 88.226562 L 169.976562 88.226562 Z M 169.976562 0 " fill-rule="nonzero"/></g></g></g><path fill="#f2f3ff" d="M 95.535156 61.65625 C 95.535156 66.339844 91.734375 70.132812 87.046875 70.132812 C 82.359375 70.132812 78.558594 66.339844 78.558594 61.65625 C 78.558594 56.976562 82.359375 53.179688 87.046875 53.179688 C 91.734375 53.179688 95.535156 56.976562 95.535156 61.65625 " fill-opacity="1" fill-rule="nonzero"/><path fill="#728be8" d="M 87.046875 53.320312 C 82.445312 53.320312 78.699219 57.058594 78.699219 61.65625 C 78.699219 66.253906 82.445312 69.996094 87.046875 69.996094 C 91.652344 69.996094 95.394531 66.253906 95.394531 61.65625 C 95.394531 57.058594 91.652344 53.320312 87.046875 53.320312 Z M 87.046875 70.269531 C 82.289062 70.269531 78.421875 66.40625 78.421875 61.65625 C 78.421875 56.90625 82.289062 53.042969 87.046875 53.042969 C 91.804688 53.042969 95.671875 56.90625 95.671875 61.65625 C 95.671875 66.40625 91.804688 70.269531 87.046875 70.269531 " fill-opacity="1" fill-rule="nonzero"/><path fill="#f2f3ff" d="M 112.507812 61.65625 C 112.507812 66.339844 108.707031 70.132812 104.019531 70.132812 C 99.332031 70.132812 95.535156 66.339844 95.535156 61.65625 C 95.535156 56.976562 99.332031 53.179688 104.019531 53.179688 C 108.707031 53.179688 112.507812 56.976562 112.507812 61.65625 " fill-opacity="1" fill-rule="nonzero"/><path fill="#728be8" d="M 104.019531 53.320312 C 99.417969 53.320312 95.671875 57.058594 95.671875 61.65625 C 95.671875 66.253906 99.417969 69.996094 104.019531 69.996094 C 108.625 69.996094 112.371094 66.253906 112.371094 61.65625 C 112.371094 57.058594 108.625 53.320312 104.019531 53.320312 Z M 104.019531 70.269531 C 99.265625 70.269531 95.394531 66.40625 95.394531 61.65625 C 95.394531 56.90625 99.265625 53.042969 104.019531 53.042969 C 108.777344 53.042969 112.648438 56.90625 112.648438 61.65625 C 112.648438 66.40625 108.777344 70.269531 104.019531 70.269531 " fill-opacity="1" fill-rule="nonzero"/><path fill="#ffffff" d="M 129.484375 61.65625 C 129.484375 66.339844 125.683594 70.132812 120.996094 70.132812 C 116.308594 70.132812 112.507812 66.339844 112.507812 61.65625 C 112.507812 56.976562 116.308594 53.179688 120.996094 53.179688 C 125.683594 53.179688 129.484375 56.976562 129.484375 61.65625 " fill-opacity="1" fill-rule="nonzero"/><path fill="#728be8" d="M 120.996094 53.320312 C 116.390625 53.320312 112.648438 57.058594 112.648438 61.65625 C 112.648438 66.253906 116.390625 69.996094 120.996094 69.996094 C 125.597656 69.996094 129.34375 66.253906 129.34375 61.65625 C 129.34375 57.058594 125.597656 53.320312 120.996094 53.320312 Z M 120.996094 70.269531 C 116.238281 70.269531 112.371094 66.40625 112.371094 61.65625 C 112.371094 56.90625 116.238281 53.042969 120.996094 53.042969 C 125.753906 53.042969 129.621094 56.90625 129.621094 61.65625 C 129.621094 66.40625 125.753906 70.269531 120.996094 70.269531 " fill-opacity="1" fill-rule="nonzero"/><path fill="#a3b4ff" d="M 120.597656 65.34375 L 119.410156 65.34375 L 121.390625 58.261719 L 122.582031 58.261719 L 120.597656 65.34375 " fill-opacity="1" fill-rule="nonzero"/><path fill="#a3b4ff" d="M 117.664062 61.8125 L 119.429688 62.816406 L 119.429688 63.90625 L 116.535156 62.234375 L 116.535156 61.367188 L 119.429688 59.703125 L 119.429688 60.789062 L 117.664062 61.8125 " fill-opacity="1" fill-rule="nonzero"/><path fill="#a3b4ff" d="M 124.328125 61.789062 L 122.46875 60.773438 L 122.46875 59.703125 L 125.457031 61.367188 L 125.457031 62.234375 L 122.46875 63.898438 L 122.46875 62.828125 L 124.328125 61.789062 " fill-opacity="1" fill-rule="nonzero"/><path fill="#ffffff" d="M 146.457031 61.65625 C 146.457031 66.339844 142.65625 70.132812 137.96875 70.132812 C 133.28125 70.132812 129.484375 66.339844 129.484375 61.65625 C 129.484375 56.976562 133.28125 53.179688 137.96875 53.179688 C 142.65625 53.179688 146.457031 56.976562 146.457031 61.65625 " fill-opacity="1" fill-rule="nonzero"/><path fill="#728be8" d="M 137.96875 53.320312 C 133.367188 53.320312 129.621094 57.058594 129.621094 61.65625 C 129.621094 66.253906 133.367188 69.996094 137.96875 69.996094 C 142.574219 69.996094 146.320312 66.253906 146.320312 61.65625 C 146.320312 57.058594 142.574219 53.320312 137.96875 53.320312 Z M 137.96875 70.269531 C 133.214844 70.269531 129.34375 66.40625 129.34375 61.65625 C 129.34375 56.90625 133.214844 53.042969 137.96875 53.042969 C 142.726562 53.042969 146.597656 56.90625 146.597656 61.65625 C 146.597656 66.40625 142.726562 70.269531 137.96875 70.269531 " fill-opacity="1" fill-rule="nonzero"/><path fill="#ffffff" d="M 104.019531 46.933594 C 104.019531 51.613281 100.222656 55.410156 95.535156 55.410156 C 90.847656 55.410156 87.046875 51.613281 87.046875 46.933594 C 87.046875 42.253906 90.847656 38.457031 95.535156 38.457031 C 100.222656 38.457031 104.019531 42.253906 104.019531 46.933594 " fill-opacity="1" fill-rule="nonzero"/><path fill="#728be8" d="M 95.535156 38.597656 C 90.929688 38.597656 87.1875 42.335938 87.1875 46.933594 C 87.1875 51.53125 90.929688 55.269531 95.535156 55.269531 C 100.136719 55.269531 103.882812 51.53125 103.882812 46.933594 C 103.882812 42.335938 100.136719 38.597656 95.535156 38.597656 Z M 95.535156 55.546875 C 90.777344 55.546875 86.910156 51.683594 86.910156 46.933594 C 86.910156 42.183594 90.777344 38.320312 95.535156 38.320312 C 100.289062 38.320312 104.160156 42.183594 104.160156 46.933594 C 104.160156 51.683594 100.289062 55.546875 95.535156 55.546875 " fill-opacity="1" fill-rule="nonzero"/><path fill="#ffffff" d="M 120.996094 46.933594 C 120.996094 51.613281 117.195312 55.410156 112.507812 55.410156 C 107.820312 55.410156 104.019531 51.613281 104.019531 46.933594 C 104.019531 42.253906 107.820312 38.457031 112.507812 38.457031 C 117.195312 38.457031 120.996094 42.253906 120.996094 46.933594 " fill-opacity="1" fill-rule="nonzero"/><path fill="#728be8" d="M 112.507812 38.597656 C 107.90625 38.597656 104.160156 42.335938 104.160156 46.933594 C 104.160156 51.53125 107.90625 55.269531 112.507812 55.269531 C 117.113281 55.269531 120.855469 51.53125 120.855469 46.933594 C 120.855469 42.335938 117.113281 38.597656 112.507812 38.597656 Z M 112.507812 55.546875 C 107.753906 55.546875 103.882812 51.683594 103.882812 46.933594 C 103.882812 42.183594 107.753906 38.320312 112.507812 38.320312 C 117.265625 38.320312 121.132812 42.183594 121.132812 46.933594 C 121.132812 51.683594 117.265625 55.546875 112.507812 55.546875 " fill-opacity="1" fill-rule="nonzero"/><path fill="#f2f3ff" d="M 137.96875 46.933594 C 137.96875 51.613281 134.171875 55.410156 129.484375 55.410156 C 124.796875 55.410156 120.996094 51.613281 120.996094 46.933594 C 120.996094 42.253906 124.796875 38.457031 129.484375 38.457031 C 134.171875 38.457031 137.96875 42.253906 137.96875 46.933594 " fill-opacity="1" fill-rule="nonzero"/><path fill="#728be8" d="M 129.484375 38.597656 C 124.878906 38.597656 121.132812 42.335938 121.132812 46.933594 C 121.132812 51.53125 124.878906 55.269531 129.484375 55.269531 C 134.085938 55.269531 137.832031 51.53125 137.832031 46.933594 C 137.832031 42.335938 134.085938 38.597656 129.484375 38.597656 Z M 129.484375 55.546875 C 124.726562 55.546875 120.855469 51.683594 120.855469 46.933594 C 120.855469 42.183594 124.726562 38.320312 129.484375 38.320312 C 134.238281 38.320312 138.109375 42.183594 138.109375 46.933594 C 138.109375 51.683594 134.238281 55.546875 129.484375 55.546875 " fill-opacity="1" fill-rule="nonzero"/><path fill="#f2f3ff" d="M 112.507812 32.261719 C 112.507812 36.941406 108.707031 40.738281 104.019531 40.738281 C 99.332031 40.738281 95.535156 36.941406 95.535156 32.261719 C 95.535156 27.582031 99.332031 23.785156 104.019531 23.785156 C 108.707031 23.785156 112.507812 27.582031 112.507812 32.261719 " fill-opacity="1" fill-rule="nonzero"/><path fill="#728be8" d="M 104.019531 23.925781 C 99.417969 23.925781 95.671875 27.664062 95.671875 32.261719 C 95.671875 36.859375 99.417969 40.597656 104.019531 40.597656 C 108.625 40.597656 112.371094 36.859375 112.371094 32.261719 C 112.371094 27.664062 108.625 23.925781 104.019531 23.925781 Z M 104.019531 40.875 C 99.265625 40.875 95.394531 37.011719 95.394531 32.261719 C 95.394531 27.511719 99.265625 23.648438 104.019531 23.648438 C 108.777344 23.648438 112.648438 27.511719 112.648438 32.261719 C 112.648438 37.011719 108.777344 40.875 104.019531 40.875 " fill-opacity="1" fill-rule="nonzero"/><path fill="#a3b4ff" d="M 104.019531 36.105469 C 101.898438 36.105469 100.171875 34.378906 100.171875 32.261719 C 100.171875 30.144531 101.898438 28.417969 104.019531 28.417969 C 106.144531 28.417969 107.871094 30.144531 107.871094 32.261719 C 107.871094 34.378906 106.144531 36.105469 104.019531 36.105469 Z M 104.019531 27.265625 C 101.261719 27.265625 99.015625 29.507812 99.015625 32.261719 C 99.015625 35.015625 101.261719 37.257812 104.019531 37.257812 C 106.78125 37.257812 109.023438 35.015625 109.023438 32.261719 C 109.023438 29.507812 106.78125 27.265625 104.019531 27.265625 " fill-opacity="1" fill-rule="nonzero"/><path fill="#a3b4ff" d="M 103.871094 34.632812 L 104.269531 34.632812 L 104.269531 34.132812 C 104.578125 34.101562 104.824219 33.996094 105.003906 33.816406 C 105.1875 33.636719 105.277344 33.40625 105.277344 33.121094 C 105.277344 32.953125 105.25 32.8125 105.191406 32.691406 C 105.136719 32.570312 105.058594 32.46875 104.957031 32.378906 C 104.855469 32.289062 104.738281 32.207031 104.601562 32.136719 C 104.464844 32.066406 104.316406 32 104.164062 31.933594 C 104.007812 31.867188 103.898438 31.796875 103.828125 31.726562 C 103.757812 31.652344 103.722656 31.554688 103.722656 31.433594 C 103.722656 31.3125 103.753906 31.21875 103.8125 31.148438 C 103.875 31.078125 103.957031 31.046875 104.070312 31.046875 C 104.191406 31.046875 104.285156 31.089844 104.351562 31.183594 C 104.417969 31.277344 104.453125 31.410156 104.453125 31.582031 L 105.296875 31.582031 C 105.296875 31.265625 105.210938 31.007812 105.035156 30.800781 C 104.863281 30.597656 104.621094 30.472656 104.316406 30.425781 L 104.316406 29.890625 L 103.921875 29.890625 L 103.921875 30.417969 C 103.605469 30.445312 103.351562 30.554688 103.164062 30.734375 C 102.972656 30.917969 102.878906 31.148438 102.878906 31.429688 C 102.878906 31.597656 102.90625 31.738281 102.960938 31.855469 C 103.011719 31.976562 103.089844 32.078125 103.1875 32.167969 C 103.289062 32.257812 103.40625 32.335938 103.546875 32.40625 C 103.683594 32.472656 103.832031 32.539062 103.996094 32.605469 C 104.160156 32.671875 104.273438 32.742188 104.339844 32.820312 C 104.402344 32.894531 104.4375 32.996094 104.4375 33.128906 C 104.4375 33.246094 104.402344 33.339844 104.339844 33.40625 C 104.273438 33.472656 104.183594 33.507812 104.070312 33.507812 C 103.917969 33.507812 103.796875 33.457031 103.714844 33.359375 C 103.628906 33.257812 103.585938 33.113281 103.585938 32.925781 L 102.746094 32.925781 C 102.746094 33.269531 102.84375 33.546875 103.039062 33.757812 C 103.230469 33.964844 103.507812 34.089844 103.871094 34.128906 L 103.871094 34.632812 " fill-opacity="1" fill-rule="nonzero"/><path fill="#a3b4ff" d="M 107.148438 32.058594 C 107.035156 32.058594 106.945312 32.148438 106.945312 32.261719 C 106.945312 33.871094 105.632812 35.179688 104.019531 35.179688 C 103.910156 35.179688 103.816406 35.273438 103.816406 35.386719 C 103.816406 35.496094 103.910156 35.589844 104.019531 35.589844 C 105.859375 35.589844 107.351562 34.097656 107.351562 32.261719 C 107.351562 32.148438 107.261719 32.058594 107.148438 32.058594 " fill-opacity="1" fill-rule="nonzero"/><path fill="#a3b4ff" d="M 104.226562 29.136719 C 104.226562 29.027344 104.132812 28.933594 104.019531 28.933594 C 102.183594 28.933594 100.691406 30.425781 100.691406 32.261719 C 100.691406 32.375 100.78125 32.464844 100.894531 32.464844 C 101.007812 32.464844 101.097656 32.375 101.097656 32.261719 C 101.097656 30.652344 102.410156 29.34375 104.019531 29.34375 C 104.132812 29.34375 104.226562 29.25 104.226562 29.136719 " fill-opacity="1" fill-rule="nonzero"/><path fill="#ffffff" d="M 120.996094 17.59375 C 120.996094 22.273438 117.195312 26.070312 112.507812 26.070312 C 107.820312 26.070312 104.019531 22.273438 104.019531 17.59375 C 104.019531 12.914062 107.820312 9.117188 112.507812 9.117188 C 117.195312 9.117188 120.996094 12.914062 120.996094 17.59375 " fill-opacity="1" fill-rule="nonzero"/><path fill="#728be8" d="M 112.507812 9.253906 C 107.90625 9.253906 104.160156 12.996094 104.160156 17.59375 C 104.160156 22.191406 107.90625 25.929688 112.507812 25.929688 C 117.113281 25.929688 120.855469 22.191406 120.855469 17.59375 C 120.855469 12.996094 117.113281 9.253906 112.507812 9.253906 Z M 112.507812 26.207031 C 107.753906 26.207031 103.882812 22.34375 103.882812 17.59375 C 103.882812 12.84375 107.753906 8.980469 112.507812 8.980469 C 117.265625 8.980469 121.132812 12.84375 121.132812 17.59375 C 121.132812 22.34375 117.265625 26.207031 112.507812 26.207031 " fill-opacity="1" fill-rule="nonzero"/><path fill="#465ebd" d="M 68.859375 66.351562 C 69.386719 71.703125 69.878906 88.226562 69.878906 88.226562 L 77.65625 88.226562 L 77.539062 73.332031 L 78.800781 88.226562 L 85.847656 88.226562 C 85.847656 88.226562 85.582031 65.003906 85.34375 63.429688 C 84.71875 59.332031 82.953125 56.007812 82.953125 56.007812 C 82.953125 56.007812 72.863281 55.96875 71.949219 56.007812 C 71.949219 56.007812 68.335938 60.996094 68.859375 66.351562 " fill-opacity="1" fill-rule="nonzero"/><path fill="#0e2e7d" d="M 77.539062 73.332031 L 76.78125 69.136719 L 72.414062 68.621094 L 73.859375 69.136719 L 74.464844 88.226562 L 77.65625 88.226562 L 77.539062 73.332031 " fill-opacity="1" fill-rule="nonzero"/><path fill="#0e2e7d" d="M 84.347656 87.453125 C 84.269531 87.453125 84.210938 87.390625 84.210938 87.3125 C 84.210938 79.304688 83.804688 64.929688 83.800781 64.785156 C 83.800781 64.773438 83.800781 64.761719 83.804688 64.75 C 83.808594 64.722656 84.410156 62.261719 84.210938 60.488281 C 84.203125 60.414062 84.257812 60.34375 84.332031 60.335938 C 84.40625 60.328125 84.476562 60.382812 84.484375 60.457031 C 84.683594 62.21875 84.136719 64.546875 84.078125 64.796875 C 84.09375 65.394531 84.488281 79.433594 84.488281 87.3125 C 84.488281 87.390625 84.425781 87.453125 84.347656 87.453125 " fill-opacity="1" fill-rule="nonzero"/><path fill="#465ebd" d="M 75.875 87.628906 C 75.800781 87.628906 75.738281 87.570312 75.738281 87.496094 L 75.175781 66.652344 C 75.175781 66.578125 75.234375 66.511719 75.3125 66.511719 C 75.390625 66.507812 75.449219 66.570312 75.453125 66.644531 L 76.015625 87.488281 C 76.015625 87.5625 75.957031 87.628906 75.878906 87.628906 L 75.875 87.628906 " fill-opacity="1" fill-rule="nonzero"/><path fill="#a35265" d="M 70.226562 55.453125 L 67.667969 55.246094 L 65.269531 54.34375 L 68.210938 38.417969 L 70.945312 38.886719 L 73.601562 39.691406 L 70.226562 55.453125 " fill-opacity="1" fill-rule="nonzero"/><path fill="#a35265" d="M 73.683594 39.351562 C 73.425781 40.863281 71.992188 41.878906 70.480469 41.617188 C 68.96875 41.359375 67.953125 39.925781 68.210938 38.417969 C 68.46875 36.910156 69.902344 35.894531 71.414062 36.152344 C 72.925781 36.410156 73.941406 37.84375 73.683594 39.351562 " fill-opacity="1" fill-rule="nonzero"/><path fill="#a35265" d="M 65.25 54.402344 L 61.742188 67.402344 L 63.097656 68.179688 L 69.695312 56.820312 L 67.667969 55.246094 L 65.25 54.402344 " fill-opacity="1" fill-rule="nonzero"/><path fill="#a35265" d="M 70.121094 56.003906 C 69.703125 57.355469 68.265625 58.113281 66.910156 57.695312 C 65.558594 57.277344 64.800781 55.839844 65.21875 54.488281 C 65.636719 53.136719 67.074219 52.378906 68.429688 52.800781 C 69.78125 53.21875 70.539062 54.652344 70.121094 56.003906 " fill-opacity="1" fill-rule="nonzero"/><path fill="#a35265" d="M 61.71875 67.542969 C 61.65625 67.796875 60.925781 71.328125 61.054688 71.496094 C 61.183594 71.664062 61.21875 73.3125 61.21875 73.3125 C 61.21875 73.3125 61.378906 73.480469 61.679688 73.234375 C 61.976562 72.988281 61.859375 71.953125 61.859375 71.953125 L 61.929688 71.339844 C 61.929688 71.339844 62.015625 70.800781 62.269531 70.609375 C 62.523438 70.417969 63.417969 69.835938 63.417969 69.835938 C 63.417969 69.835938 63.1875 70.625 63.316406 71.421875 C 63.445312 72.222656 64.152344 72.324219 63.996094 71.796875 C 63.84375 71.269531 64.304688 69.296875 64.265625 68.9375 C 64.230469 68.578125 63.875 67.757812 63.773438 67.589844 C 63.667969 67.425781 62.269531 65.28125 62.269531 65.28125 C 62.269531 65.28125 61.777344 67.285156 61.71875 67.542969 " fill-opacity="1" fill-rule="nonzero"/><path fill="#a35265" d="M 90.851562 47.933594 L 106.554688 40.3125 L 105.898438 38.664062 L 89.445312 43.074219 L 89.75 45.621094 L 90.851562 47.933594 " fill-opacity="1" fill-rule="nonzero"/><path fill="#a35265" d="M 89.511719 43.066406 C 90.921875 42.9375 92.171875 43.972656 92.304688 45.378906 C 92.4375 46.789062 91.402344 48.039062 89.988281 48.171875 C 88.578125 48.300781 87.328125 47.269531 87.195312 45.859375 C 87.0625 44.449219 88.101562 43.199219 89.511719 43.066406 " fill-opacity="1" fill-rule="nonzero"/><path fill="#a35265" d="M 91.136719 43.464844 L 89.75 45.621094 L 87.820312 47.304688 L 79.394531 40.671875 L 81.101562 38.484375 L 83.066406 36.527344 L 91.136719 43.464844 " fill-opacity="1" fill-rule="nonzero"/><path fill="#a35265" d="M 82.804688 36.292969 C 84.015625 37.234375 84.234375 38.976562 83.292969 40.183594 C 82.351562 41.394531 80.605469 41.613281 79.394531 40.671875 C 78.1875 39.730469 77.96875 37.988281 78.910156 36.78125 C 79.847656 35.570312 81.59375 35.351562 82.804688 36.292969 " fill-opacity="1" fill-rule="nonzero"/><path fill="#a35265" d="M 109.921875 37.84375 C 109.691406 38.007812 109.40625 38.074219 109.125 38.03125 C 108.488281 37.933594 108.144531 37.78125 108.144531 37.78125 C 108.144531 37.78125 108.609375 36.921875 108.738281 36.613281 C 108.867188 36.304688 108.714844 35.53125 108.429688 36.019531 C 108.144531 36.503906 107.101562 36.996094 106.820312 37.460938 C 106.535156 37.921875 105.898438 38.664062 105.898438 38.664062 C 104.976562 40.175781 106.554688 40.3125 106.554688 40.3125 C 106.554688 40.3125 108.304688 40.183594 108.640625 40.050781 C 109.257812 39.8125 110.765625 38.148438 110.828125 37.941406 C 110.890625 37.738281 111.03125 37.042969 111.03125 37.042969 L 109.921875 37.84375 " fill-opacity="1" fill-rule="nonzero"/><path fill="#a3b4ff" d="M 62.015625 66.386719 L 62.34375 64.027344 C 62.34375 64.027344 62.175781 61.203125 62.851562 59.351562 C 63.527344 57.496094 65.003906 54.324219 65.003906 54.324219 C 65.003906 54.324219 67.457031 40.523438 67.667969 39.078125 C 67.96875 37.039062 68.003906 35.09375 77.5 35.28125 C 77.5 35.28125 81.886719 35.28125 82.835938 35.953125 C 83.785156 36.628906 90.382812 42.503906 90.382812 42.503906 C 90.382812 42.503906 103.382812 39.046875 103.835938 38.886719 L 105.898438 38.664062 L 105.859375 40.648438 L 104.652344 41.324219 C 104.652344 41.324219 104.175781 43.054688 102.902344 43.882812 C 101.042969 45.085938 91.835938 50.078125 90.382812 49.882812 C 88.789062 49.667969 83.269531 47.839844 83.269531 47.839844 L 83.296875 54.914062 L 82.953125 56.007812 C 82.953125 56.007812 72.449219 59.9375 71.582031 56.566406 L 71.707031 54.800781 L 71.371094 53.792969 C 71.371094 53.792969 71.3125 56.175781 70.917969 56.738281 C 70.527344 57.300781 66.222656 65.160156 65.71875 65.5 C 65.214844 65.835938 63.597656 67.320312 63.597656 67.320312 C 63.597656 67.320312 61.6875 67.300781 62.015625 66.386719 " fill-opacity="1" fill-rule="nonzero"/><path fill="#728be8" d="M 71.707031 54.941406 C 71.648438 54.941406 71.59375 54.902344 71.574219 54.847656 L 71.242188 53.847656 L 69.316406 50.320312 C 69.277344 50.253906 69.304688 50.167969 69.371094 50.132812 C 69.4375 50.09375 69.519531 50.121094 69.558594 50.1875 L 71.492188 53.726562 C 71.496094 53.734375 71.5 53.738281 71.5 53.746094 L 71.839844 54.757812 C 71.863281 54.832031 71.824219 54.910156 71.75 54.933594 C 71.734375 54.9375 71.722656 54.941406 71.707031 54.941406 " fill-opacity="1" fill-rule="nonzero"/><path fill="#728be8" d="M 64.414062 66.050781 C 64.378906 66.050781 64.347656 66.039062 64.320312 66.015625 C 64.261719 65.960938 64.257812 65.875 64.3125 65.820312 C 64.355469 65.773438 65.363281 64.675781 65.628906 64.449219 C 65.847656 64.210938 68.085938 59.746094 69.164062 57.597656 C 69.585938 56.753906 69.890625 56.148438 69.996094 55.941406 C 70.40625 55.160156 70.53125 52.53125 70.53125 52.507812 C 70.535156 52.429688 70.601562 52.371094 70.675781 52.375 C 70.753906 52.378906 70.8125 52.441406 70.808594 52.519531 C 70.804688 52.628906 70.679688 55.234375 70.242188 56.070312 C 70.136719 56.273438 69.816406 56.914062 69.410156 57.722656 C 67.265625 61.996094 65.992188 64.503906 65.808594 64.660156 C 65.554688 64.875 64.527344 65.996094 64.515625 66.007812 C 64.488281 66.035156 64.453125 66.050781 64.414062 66.050781 " fill-opacity="1" fill-rule="nonzero"/><path fill="#728be8" d="M 74.59375 57.019531 C 72.257812 57.019531 71.847656 56.121094 71.820312 56.058594 C 71.792969 55.988281 71.828125 55.90625 71.898438 55.878906 C 71.96875 55.847656 72.046875 55.882812 72.078125 55.953125 C 72.09375 55.988281 73.261719 58.253906 82.511719 54.9375 C 82.582031 54.910156 82.664062 54.949219 82.6875 55.019531 C 82.714844 55.09375 82.675781 55.171875 82.605469 55.195312 C 78.699219 56.597656 76.195312 57.019531 74.59375 57.019531 " fill-opacity="1" fill-rule="nonzero"/><path fill="#728be8" d="M 73.601562 43.488281 C 79.542969 42 78.21875 36.527344 78.21875 36.527344 L 76.007812 35.269531 C 68.003906 35.3125 67.953125 37.152344 67.667969 39.078125 C 67.527344 40.054688 66.363281 46.65625 65.621094 50.847656 C 66.238281 47.367188 67.660156 44.976562 73.601562 43.488281 " fill-opacity="1" fill-rule="nonzero"/><path fill="#728be8" d="M 104.4375 41.214844 C 104.132812 42.449219 103.535156 43.066406 102.5625 43.738281 C 101.960938 44.15625 94.214844 47.554688 91.707031 48.648438 C 91.210938 48.867188 90.644531 48.859375 90.15625 48.632812 C 88.675781 47.953125 85.449219 46.472656 83.910156 45.796875 C 83.296875 45.53125 82.621094 46.011719 82.671875 46.675781 L 83.296875 54.914062 L 83.273438 49.007812 C 83.269531 48.433594 83.828125 48.027344 84.375 48.199219 C 86.070312 48.742188 89.238281 49.726562 90.382812 49.882812 C 91.835938 50.078125 101.042969 45.085938 102.902344 43.882812 C 104.175781 43.054688 104.652344 41.324219 104.652344 41.324219 L 105.859375 40.648438 L 105.867188 40.332031 L 104.4375 41.214844 " fill-opacity="1" fill-rule="nonzero"/><path fill="#8b3950" d="M 71.796875 27.164062 C 71.554688 21.621094 80.101562 21.722656 79.730469 27.257812 L 79.734375 27.257812 C 79.6875 27.703125 79.230469 28.308594 79.28125 28.761719 C 79.511719 30.878906 79.382812 33.941406 78.570312 34.363281 C 78.109375 34.597656 75.058594 34.375 73.8125 33.449219 C 72.957031 32.515625 71.785156 29.1875 71.785156 27.160156 L 71.796875 27.164062 " fill-opacity="1" fill-rule="nonzero"/><path fill="#0e2e7d" d="M 76.804688 29.511719 C 76.804688 29.511719 80.824219 26.328125 81.015625 24.191406 C 81.207031 22.054688 76.941406 20.351562 73.765625 20.710938 C 70.0625 21.132812 66.984375 25.09375 67.714844 28.980469 C 68.773438 34.617188 69.660156 38.886719 69.789062 39.664062 C 70.09375 41.511719 69 42.207031 69 42.207031 C 69 42.207031 81.792969 46.636719 77.273438 31.671875 L 76.804688 29.511719 " fill-opacity="1" fill-rule="nonzero"/><path fill="#8b3950" d="M 77.113281 29.738281 C 77.113281 29.738281 76.4375 29.195312 75.765625 28.996094 C 75.089844 28.796875 75.078125 30.390625 75.617188 31.601562 C 76.160156 32.8125 77.273438 31.671875 77.273438 31.671875 L 77.113281 29.738281 " fill-opacity="1" fill-rule="nonzero"/><path fill="#465ebd" d="M 80.03125 22.839844 C 78.78125 21.621094 75.988281 20.832031 73.808594 21.082031 L 73.796875 21.085938 C 72.703125 21.210938 71.6875 21.746094 70.972656 22.582031 C 70.558594 23.066406 70.183594 23.707031 70.046875 24.515625 C 70.082031 25.046875 70.238281 25.578125 70.445312 26.066406 C 70.78125 26.855469 71.3125 27.539062 71.8125 28.234375 C 72.320312 28.933594 72.839844 29.625 73.367188 30.308594 C 73.828125 30.910156 74.503906 31.769531 74.949219 32.367188 C 74.488281 31.789062 73.777344 30.949219 73.292969 30.367188 C 72.742188 29.703125 72.195312 29.027344 71.664062 28.347656 C 71.128906 27.65625 70.5625 26.980469 70.191406 26.179688 C 70.140625 26.070312 70.089844 25.960938 70.046875 25.847656 C 70.070312 26.011719 70.105469 26.179688 70.152344 26.355469 C 70.160156 26.386719 70.167969 26.421875 70.179688 26.457031 C 70.359375 26.902344 70.59375 27.328125 70.84375 27.734375 C 71.359375 28.585938 72.046875 29.304688 72.671875 30.082031 C 73.304688 30.859375 73.902344 31.664062 74.464844 32.492188 C 75.023438 33.320312 75.566406 34.167969 76.007812 35.0625 C 75.53125 34.183594 74.964844 33.359375 74.375 32.554688 C 73.636719 31.554688 72.855469 30.589844 72.015625 29.671875 C 72.367188 30.171875 72.738281 30.683594 73.117188 31.207031 C 74.535156 33.160156 76.003906 35.183594 76.832031 37.089844 C 77.25 38.058594 77.46875 38.914062 77.480469 39.671875 C 78.113281 37.976562 77.976562 35.507812 77.066406 32.300781 C 76.855469 32.425781 76.59375 32.53125 76.316406 32.53125 C 76.257812 32.53125 76.195312 32.527344 76.136719 32.515625 C 75.878906 32.46875 75.523438 32.300781 75.277344 31.753906 C 74.839844 30.777344 74.667969 29.390625 75.144531 28.84375 C 75.332031 28.632812 75.59375 28.558594 75.871094 28.640625 C 76.195312 28.734375 76.515625 28.898438 76.777344 29.054688 C 77.453125 28.496094 78.550781 27.496094 79.40625 26.453125 C 79.816406 25.871094 80.03125 25.136719 79.835938 24.441406 C 79.589844 23.5625 78.871094 22.925781 78.128906 22.441406 C 78.523438 22.664062 78.910156 22.917969 79.242188 23.238281 C 79.871094 23.808594 80.234375 24.632812 80.121094 25.472656 C 80.132812 25.449219 80.148438 25.429688 80.160156 25.410156 C 80.507812 24.609375 80.257812 23.691406 79.621094 23.070312 C 79.394531 22.828125 79.125 22.625 78.84375 22.441406 C 79.140625 22.597656 79.429688 22.777344 79.6875 23 C 80.140625 23.378906 80.488281 23.917969 80.574219 24.511719 C 80.609375 24.390625 80.632812 24.269531 80.644531 24.15625 C 80.683594 23.71875 80.476562 23.277344 80.03125 22.839844 " fill-opacity="1" fill-rule="nonzero"/><path fill="#ffffff" d="M 160.078125 86.332031 L 64.9375 86.332031 L 64.9375 88.652344 L 160.078125 88.652344 L 160.078125 86.332031 " fill-opacity="1" fill-rule="nonzero"/><path fill="#728be8" d="M 65.078125 88.515625 L 159.941406 88.515625 L 159.941406 86.46875 L 65.078125 86.46875 Z M 160.078125 88.792969 L 64.9375 88.792969 C 64.863281 88.792969 64.800781 88.730469 64.800781 88.652344 L 64.800781 86.332031 C 64.800781 86.253906 64.863281 86.191406 64.9375 86.191406 L 160.078125 86.191406 C 160.15625 86.191406 160.214844 86.253906 160.214844 86.332031 L 160.214844 88.652344 C 160.214844 88.730469 160.15625 88.792969 160.078125 88.792969 " fill-opacity="1" fill-rule="nonzero"/><path fill="#f8a6b3" d="M 101.390625 53.738281 C 101.390625 53.738281 102.09375 55.699219 102.09375 55.863281 C 102.09375 56.023438 101.582031 57.179688 101.582031 57.359375 C 101.582031 57.542969 101.859375 58.59375 101.859375 58.882812 C 101.859375 59.171875 101.195312 62.085938 101.175781 62.414062 C 101.160156 62.738281 101.324219 63.066406 101.015625 63.28125 C 100.710938 63.5 99.019531 63.859375 98.34375 63.136719 C 97.667969 62.414062 98.167969 59.550781 98.167969 59.550781 L 98.792969 55.675781 L 101.390625 53.738281 " fill-opacity="1" fill-rule="nonzero"/><path fill="#f8a6b3" d="M 99.550781 59.933594 L 99.152344 64.671875 C 99.152344 64.671875 95.582031 66.003906 94.453125 64.664062 L 93.835938 59.566406 L 99.550781 59.933594 " fill-opacity="1" fill-rule="nonzero"/><path fill="#f8a6b3" d="M 101.390625 53.738281 C 101.390625 53.738281 100.566406 51.949219 99.101562 51.113281 C 97.632812 50.28125 95.796875 50.300781 93.894531 51.441406 C 91.992188 52.582031 91.332031 56.546875 92.054688 58.101562 C 92.78125 59.660156 93.636719 61.507812 94.34375 61.871094 C 95.054688 62.230469 96.828125 62.449219 97.777344 62.140625 C 98.730469 61.832031 99.550781 59.933594 99.550781 59.933594 L 101.390625 53.738281 " fill-opacity="1" fill-rule="nonzero"/><path fill="#465ebd" d="M 94.140625 62.480469 C 94.453125 62.902344 95.351562 63.039062 97.707031 62.480469 C 100.609375 59.828125 101.042969 55.703125 101.042969 55.703125 L 100.800781 54.625 L 92.59375 59.320312 L 94.140625 62.480469 " fill-opacity="1" fill-rule="nonzero"/><path fill="#0e2e7d" d="M 91.96875 58.445312 C 92.527344 59.742188 94.75 61.304688 100.714844 57.289062 C 100.863281 56.742188 100.976562 56.210938 101.042969 55.703125 L 100.800781 54.625 C 100.800781 54.625 101.992188 53.425781 102.589844 51.960938 C 103.1875 50.496094 102.691406 48.609375 99.410156 48.15625 C 99.410156 48.15625 100.972656 48.550781 101.300781 49.746094 C 101.300781 49.746094 100.207031 45.855469 91.484375 51.414062 C 91.484375 51.414062 92.457031 50.890625 93.507812 50.53125 C 93.507812 50.53125 90.855469 52.046875 91.722656 53.738281 C 91.722656 53.738281 91.128906 54.476562 91.164062 55.628906 C 91.179688 56.152344 91.734375 57.90625 91.96875 58.445312 " fill-opacity="1" fill-rule="nonzero"/><path fill="#f8a6b3" d="M 100.324219 57.335938 C 100.324219 57.335938 99.890625 56.472656 99.550781 56.238281 C 99.214844 56.003906 98.503906 56.820312 98.457031 57.394531 C 98.433594 57.675781 98.449219 59.460938 98.691406 59.8125 C 98.933594 60.167969 99.785156 60.257812 99.972656 60.140625 C 100.15625 60.023438 100.492188 57.925781 100.324219 57.335938 " fill-opacity="1" fill-rule="nonzero"/><path fill="#0e2e7d" d="M 104.320312 95.507812 L 103.738281 98.398438 L 101.839844 109.550781 L 101.464844 111.40625 L 96.109375 111.40625 L 96.234375 109.550781 L 96.882812 98.347656 L 97.113281 94.9375 L 104.320312 95.507812 " fill-opacity="1" fill-rule="nonzero"/><path fill="#465ebd" d="M 115.804688 92.15625 L 115.382812 109.550781 L 115.332031 111.40625 L 109.726562 111.40625 L 109.546875 109.550781 L 108.621094 98.292969 C 107.578125 98.308594 105.777344 98.367188 103.738281 98.398438 C 103.421875 98.402344 103.101562 98.410156 102.777344 98.414062 C 100.8125 98.4375 98.710938 98.433594 96.882812 98.347656 C 94.765625 98.253906 93.019531 98.054688 92.285156 97.671875 C 86.015625 94.40625 90.046875 85.890625 90.046875 85.890625 L 101.050781 86.804688 C 101.050781 86.804688 101.0625 87.214844 101.238281 87.9375 L 113.449219 89.476562 C 114.535156 89.609375 115.460938 90.378906 115.726562 91.4375 C 115.785156 91.667969 115.8125 91.910156 115.804688 92.15625 " fill-opacity="1" fill-rule="nonzero"/><path fill="#0e2e7d" d="M 112.164062 111.542969 C 112.089844 111.542969 112.027344 111.488281 112.023438 111.414062 L 111.929688 109.558594 L 111.355469 96.695312 C 111.355469 96.675781 111.359375 96.652344 111.367188 96.632812 L 111.976562 95.285156 L 111.574219 95.714844 C 111.535156 95.757812 111.464844 95.769531 111.410156 95.742188 C 111.355469 95.710938 111.324219 95.648438 111.339844 95.589844 L 111.636719 94.265625 L 100.957031 93.113281 C 100.914062 93.109375 100.871094 93.082031 100.851562 93.042969 C 100.828125 93.003906 100.828125 92.957031 100.847656 92.914062 C 102.246094 90.160156 100.699219 88.761719 100.632812 88.703125 C 100.574219 88.652344 100.566406 88.5625 100.617188 88.507812 C 100.667969 88.449219 100.753906 88.441406 100.8125 88.492188 C 100.832031 88.507812 102.523438 90.019531 101.183594 92.859375 L 111.820312 94.007812 C 111.859375 94.011719 111.894531 94.035156 111.917969 94.066406 C 111.941406 94.097656 111.949219 94.136719 111.941406 94.175781 L 111.722656 95.152344 L 112.347656 94.480469 C 112.394531 94.429688 112.46875 94.421875 112.523438 94.460938 C 112.582031 94.496094 112.601562 94.570312 112.574219 94.632812 L 111.636719 96.71875 L 112.207031 109.546875 L 112.300781 111.398438 C 112.304688 111.476562 112.246094 111.539062 112.167969 111.542969 L 112.164062 111.542969 " fill-opacity="1" fill-rule="nonzero"/><path fill="#465ebd" d="M 100.636719 111.542969 C 100.628906 111.542969 100.621094 111.542969 100.613281 111.542969 C 100.535156 111.527344 100.488281 111.457031 100.5 111.378906 L 100.855469 109.527344 L 102.640625 98.390625 L 102.792969 97.59375 C 102.804688 97.515625 102.878906 97.46875 102.953125 97.480469 C 103.027344 97.496094 103.078125 97.570312 103.0625 97.644531 L 102.914062 98.4375 L 101.128906 109.574219 L 100.773438 111.433594 C 100.761719 111.496094 100.703125 111.542969 100.636719 111.542969 " fill-opacity="1" fill-rule="nonzero"/><path fill="#d4dcff" d="M 93.886719 69.558594 C 92.558594 70.636719 90.609375 70.433594 89.53125 69.109375 C 88.453125 67.785156 88.652344 65.835938 89.980469 64.757812 C 91.308594 63.683594 93.257812 63.882812 94.335938 65.207031 C 95.414062 66.53125 95.210938 68.480469 93.886719 69.558594 " fill-opacity="1" fill-rule="nonzero"/><path fill="#d4dcff" d="M 93.886719 69.558594 L 82.628906 77.515625 L 80.847656 75.6875 L 79.453125 73.527344 L 89.980469 64.757812 C 91.304688 63.683594 93.257812 63.882812 94.335938 65.210938 C 95.414062 66.53125 95.210938 68.480469 93.886719 69.558594 " fill-opacity="1" fill-rule="nonzero"/><path fill="#d4dcff" d="M 81.464844 73.195312 L 96.539062 75.152344 L 96.59375 78.25 L 80.722656 78.25 L 80.847656 75.6875 L 81.464844 73.195312 " fill-opacity="1" fill-rule="nonzero"/><path fill="#d4dcff" d="M 82.910156 77.21875 C 82.0625 78.355469 80.453125 78.589844 79.3125 77.746094 C 78.175781 76.898438 77.9375 75.292969 78.785156 74.15625 C 79.632812 73.015625 81.242188 72.78125 82.378906 73.625 C 83.519531 74.472656 83.757812 76.078125 82.910156 77.21875 " fill-opacity="1" fill-rule="nonzero"/><path fill="#f8a6b3" d="M 117.847656 71.03125 C 117.457031 70.421875 116.910156 70.324219 117.027344 69.664062 C 117.027344 69.664062 118.535156 68.410156 119.207031 68.039062 C 119.875 67.667969 120.796875 67.730469 121.328125 67.394531 C 121.863281 67.058594 121.902344 67.917969 121.335938 68.253906 C 120.324219 68.855469 120.363281 69.027344 120.863281 69.34375 C 121.234375 69.582031 121.707031 69.742188 122.238281 69.832031 C 122.367188 69.828125 123.164062 69.703125 123.621094 69.527344 C 123.890625 69.429688 124.179688 69.394531 124.457031 69.441406 C 124.765625 69.496094 125.007812 69.617188 124.570312 69.882812 C 124.390625 69.996094 121.296875 71.132812 120.738281 71.214844 C 120.285156 71.28125 117.847656 71.03125 117.847656 71.03125 " fill-opacity="1" fill-rule="nonzero"/><path fill="#ffffff" d="M 100.707031 70.597656 C 101.949219 71.773438 103.910156 71.722656 105.085938 70.484375 C 106.265625 69.246094 106.214844 67.285156 104.972656 66.109375 C 103.734375 64.933594 101.773438 64.984375 100.59375 66.226562 C 99.417969 67.460938 99.46875 69.421875 100.707031 70.597656 " fill-opacity="1" fill-rule="nonzero"/><path fill="#ffffff" d="M 100.707031 70.59375 L 111.320312 79.394531 L 113.238281 77.707031 L 114.792969 75.664062 L 104.972656 66.109375 C 103.734375 64.9375 101.773438 64.988281 100.59375 66.226562 C 99.417969 67.464844 99.46875 69.421875 100.707031 70.59375 " fill-opacity="1" fill-rule="nonzero"/><path fill="#ffffff" d="M 115.375 79.132812 L 118.648438 71.847656 C 119.375 70.265625 117.855469 69.570312 116.601562 69.523438 L 111.417969 75.894531 L 113.238281 77.707031 L 115.375 79.132812 " fill-opacity="1" fill-rule="nonzero"/><path fill="#ffffff" d="M 112.199219 80.054688 C 113.496094 80.628906 115.015625 80.039062 115.589844 78.746094 C 116.160156 77.449219 115.574219 75.933594 114.277344 75.359375 C 112.976562 74.785156 111.460938 75.371094 110.886719 76.671875 C 110.3125 77.964844 110.902344 79.480469 112.199219 80.054688 " fill-opacity="1" fill-rule="nonzero"/><path fill="#d6deff" d="M 109.863281 78.183594 L 109.1875 77.625 L 109.863281 78.183594 " fill-opacity="1" fill-rule="nonzero"/><path fill="#ffffff" d="M 99.097656 64.714844 L 102.925781 65.261719 C 102.925781 65.261719 102.746094 68.558594 102.136719 74.730469 C 101.828125 79.21875 101.53125 78.363281 101.050781 86.804688 C 101.050781 86.804688 87.65625 88.847656 90.046875 85.890625 C 90.046875 85.890625 90.480469 79.695312 90.242188 77.476562 C 90.054688 75.714844 89.738281 73.058594 89.460938 70.765625 C 89.324219 69.613281 89.15625 66.730469 89.304688 66.089844 C 89.582031 64.902344 90.644531 64.066406 91.863281 64.066406 L 93.980469 64.066406 L 99.097656 64.714844 " fill-opacity="1" fill-rule="nonzero"/><path fill="#ffffff" d="M 100.660156 65.070312 L 99.742188 63.535156 C 99.742188 63.535156 97.671875 61.675781 94 62.414062 L 93.035156 64.457031 C 93.035156 64.457031 92.132812 66.152344 100.660156 65.070312 " fill-opacity="1" fill-rule="nonzero"/><path fill="#d4dcff" d="M 90.242188 77.476562 C 90.480469 79.695312 90.046875 85.890625 90.046875 85.890625 C 87.65625 88.847656 101.050781 86.804688 101.050781 86.804688 C 101.46875 79.460938 101.75 79.152344 102.015625 76.246094 L 102.394531 71.992188 C 102.394531 71.992188 92.414062 87.871094 89.738281 73.074219 C 89.929688 74.691406 90.117188 76.285156 90.242188 77.476562 " fill-opacity="1" fill-rule="nonzero"/><path fill="#d4dcff" d="M 113.480469 76.527344 C 113.445312 76.527344 113.410156 76.511719 113.382812 76.484375 L 105.039062 68.25 C 104.984375 68.199219 104.984375 68.109375 105.039062 68.054688 C 105.09375 68 105.179688 68 105.234375 68.054688 L 113.371094 76.082031 L 113.402344 75.75 C 113.410156 75.691406 113.449219 75.640625 113.507812 75.628906 C 113.566406 75.613281 113.625 75.636719 113.65625 75.6875 L 113.722656 75.785156 L 113.761719 75.507812 C 113.765625 75.488281 113.773438 75.46875 113.78125 75.449219 L 116.914062 70.699219 C 116.953125 70.632812 117.042969 70.617188 117.105469 70.660156 C 117.167969 70.703125 117.1875 70.785156 117.144531 70.851562 L 114.03125 75.578125 L 113.949219 76.191406 C 113.941406 76.246094 113.898438 76.292969 113.839844 76.304688 C 113.785156 76.316406 113.726562 76.292969 113.695312 76.246094 L 113.640625 76.167969 L 113.621094 76.398438 C 113.613281 76.453125 113.578125 76.5 113.527344 76.515625 C 113.515625 76.523438 113.496094 76.527344 113.480469 76.527344 " fill-opacity="1" fill-rule="nonzero"/><path fill="#a3b4ff" d="M 94.625 110.511719 L 92.660156 110.511719 L 92.660156 100.589844 L 94.625 100.589844 L 94.625 110.511719 " fill-opacity="1" fill-rule="nonzero"/><path fill="#728be8" d="M 92.800781 110.371094 L 94.484375 110.371094 L 94.484375 100.726562 L 92.800781 100.726562 Z M 94.625 110.648438 L 92.660156 110.648438 C 92.585938 110.648438 92.523438 110.585938 92.523438 110.511719 L 92.523438 100.589844 C 92.523438 100.511719 92.585938 100.449219 92.660156 100.449219 L 94.625 100.449219 C 94.699219 100.449219 94.761719 100.511719 94.761719 100.589844 L 94.761719 110.511719 C 94.761719 110.585938 94.699219 110.648438 94.625 110.648438 " fill-opacity="1" fill-rule="nonzero"/><path fill="#f2f3ff" d="M 92.167969 111.40625 L 92.167969 106.449219 L 95.117188 106.449219 L 95.117188 111.40625 L 92.167969 111.40625 " fill-opacity="1" fill-rule="nonzero"/><path fill="#728be8" d="M 95.117188 111.542969 C 95.042969 111.542969 94.980469 111.480469 94.980469 111.40625 L 94.980469 106.589844 L 92.304688 106.589844 L 92.304688 111.40625 C 92.304688 111.480469 92.242188 111.542969 92.167969 111.542969 C 92.089844 111.542969 92.027344 111.480469 92.027344 111.40625 L 92.027344 106.449219 C 92.027344 106.375 92.089844 106.3125 92.167969 106.3125 L 95.117188 106.3125 C 95.195312 106.3125 95.257812 106.375 95.257812 106.449219 L 95.257812 111.40625 C 95.257812 111.480469 95.195312 111.542969 95.117188 111.542969 " fill-opacity="1" fill-rule="nonzero"/><path fill="#f2f3ff" d="M 97.660156 77.183594 C 96.882812 70.664062 95.675781 66.144531 95.625 65.957031 C 95.445312 65.285156 94.839844 64.820312 94.144531 64.820312 L 79.367188 64.820312 C 78.890625 64.820312 78.441406 65.042969 78.152344 65.421875 C 77.863281 65.796875 77.761719 66.289062 77.886719 66.75 C 77.933594 66.925781 82.617188 84.667969 79.203125 99.777344 C 79.097656 100.234375 79.207031 100.710938 79.5 101.074219 C 79.792969 101.4375 80.230469 101.648438 80.699219 101.648438 L 95.472656 101.648438 C 96.191406 101.648438 96.8125 101.152344 96.96875 100.453125 C 98.847656 92.15625 98.378906 83.21875 97.660156 77.183594 " fill-opacity="1" fill-rule="nonzero"/><path fill="#728be8" d="M 79.367188 64.957031 C 78.9375 64.957031 78.523438 65.164062 78.261719 65.503906 C 78 65.847656 77.910156 66.296875 78.019531 66.714844 C 78.070312 66.890625 82.761719 84.664062 79.335938 99.808594 C 79.242188 100.226562 79.34375 100.65625 79.609375 100.988281 C 79.875 101.320312 80.273438 101.511719 80.699219 101.511719 L 95.472656 101.511719 C 96.132812 101.511719 96.691406 101.0625 96.835938 100.421875 C 98.707031 92.144531 98.242188 83.222656 97.523438 77.199219 C 96.742188 70.683594 95.542969 66.179688 95.492188 65.992188 C 95.328125 65.382812 94.773438 64.957031 94.144531 64.957031 Z M 95.472656 101.785156 L 80.699219 101.785156 C 80.1875 101.785156 79.710938 101.558594 79.390625 101.160156 C 79.074219 100.761719 78.953125 100.246094 79.066406 99.75 C 82.476562 84.667969 77.800781 66.960938 77.753906 66.785156 C 77.621094 66.285156 77.726562 65.746094 78.042969 65.335938 C 78.355469 64.925781 78.851562 64.683594 79.367188 64.683594 L 94.144531 64.683594 C 94.898438 64.683594 95.566406 65.191406 95.761719 65.917969 C 95.8125 66.109375 97.015625 70.632812 97.796875 77.167969 C 98.519531 83.210938 98.984375 92.167969 97.105469 100.484375 C 96.933594 101.25 96.261719 101.785156 95.472656 101.785156 " fill-opacity="1" fill-rule="nonzero"/><path fill="#a3b4ff" d="M 95.476562 101.648438 C 95.085938 101.648438 94.703125 101.5 94.414062 101.222656 C 94.023438 100.851562 93.859375 100.304688 93.976562 99.777344 C 97.386719 84.6875 92.710938 66.925781 92.664062 66.75 C 92.445312 65.933594 92.929688 65.089844 93.746094 64.875 C 94.566406 64.652344 95.40625 65.136719 95.625 65.957031 C 95.675781 66.144531 96.882812 70.664062 97.660156 77.183594 C 98.3125 82.648438 98.753906 90.488281 97.441406 98.082031 C 100.410156 97.480469 105.390625 96.78125 108.5 98.058594 C 109.28125 98.378906 109.65625 99.273438 109.335938 100.054688 C 109.011719 100.839844 108.117188 101.210938 107.332031 100.890625 C 105.960938 100.328125 103.507812 100.257812 100.429688 100.6875 C 97.945312 101.035156 95.898438 101.589844 95.878906 101.59375 C 95.746094 101.632812 95.609375 101.648438 95.476562 101.648438 " fill-opacity="1" fill-rule="nonzero"/><path fill="#728be8" d="M 94.144531 64.957031 C 94.027344 64.957031 93.90625 64.972656 93.785156 65.007812 C 93.039062 65.207031 92.597656 65.972656 92.796875 66.714844 C 92.84375 66.890625 97.535156 84.675781 94.113281 99.808594 C 94.003906 100.285156 94.15625 100.789062 94.511719 101.125 C 94.769531 101.371094 95.113281 101.511719 95.476562 101.511719 C 95.597656 101.511719 95.722656 101.492188 95.84375 101.460938 C 95.863281 101.457031 97.910156 100.898438 100.410156 100.550781 C 103.515625 100.117188 105.992188 100.191406 107.386719 100.761719 C 108.097656 101.054688 108.914062 100.714844 109.207031 100.003906 C 109.5 99.292969 109.15625 98.476562 108.445312 98.183594 C 105.324219 96.90625 100.230469 97.65625 97.46875 98.21875 C 97.425781 98.226562 97.378906 98.214844 97.34375 98.183594 C 97.3125 98.152344 97.296875 98.105469 97.304688 98.058594 C 98.628906 90.40625 98.152344 82.492188 97.523438 77.199219 C 96.746094 70.695312 95.542969 66.179688 95.492188 65.992188 C 95.324219 65.371094 94.761719 64.957031 94.144531 64.957031 Z M 95.476562 101.785156 C 95.042969 101.785156 94.632812 101.621094 94.316406 101.324219 C 93.894531 100.921875 93.714844 100.316406 93.84375 99.75 C 97.25 84.679688 92.578125 66.960938 92.53125 66.785156 C 92.289062 65.894531 92.820312 64.976562 93.710938 64.738281 C 94.601562 64.5 95.519531 65.03125 95.761719 65.917969 C 95.8125 66.109375 97.019531 70.644531 97.796875 77.167969 C 98.425781 82.429688 98.898438 90.28125 97.613281 97.90625 C 100.445312 97.34375 105.4375 96.652344 108.550781 97.929688 C 109.402344 98.277344 109.8125 99.257812 109.464844 100.109375 C 109.292969 100.519531 108.972656 100.84375 108.5625 101.015625 C 108.148438 101.1875 107.695312 101.1875 107.28125 101.019531 C 105.929688 100.464844 103.503906 100.394531 100.449219 100.824219 C 97.964844 101.171875 95.933594 101.722656 95.914062 101.726562 C 95.773438 101.765625 95.625 101.785156 95.476562 101.785156 " fill-opacity="1" fill-rule="nonzero"/><path fill="#ffffff" d="M 160.078125 114.863281 L 160.078125 103.65625 L 105.609375 103.65625 L 105.609375 110.320312 L 64.9375 110.320312 L 64.9375 114.863281 L 160.078125 114.863281 " fill-opacity="1" fill-rule="nonzero"/><g clip-path="url(#d5000a84ca)"><path fill="#728be8" d="M 160.078125 115.003906 C 160 115.003906 159.941406 114.941406 159.941406 114.863281 L 159.941406 103.792969 L 105.746094 103.792969 L 105.746094 110.320312 C 105.746094 110.398438 105.6875 110.460938 105.609375 110.460938 L 65.078125 110.460938 L 65.078125 114.863281 C 65.078125 114.941406 65.015625 115.003906 64.9375 115.003906 C 64.863281 115.003906 64.800781 114.941406 64.800781 114.863281 L 64.800781 110.320312 C 64.800781 110.246094 64.863281 110.183594 64.9375 110.183594 L 105.46875 110.183594 L 105.46875 103.65625 C 105.46875 103.578125 105.53125 103.519531 105.609375 103.519531 L 160.078125 103.519531 C 160.15625 103.519531 160.214844 103.578125 160.214844 103.65625 L 160.214844 114.863281 C 160.214844 114.941406 160.15625 115.003906 160.078125 115.003906 " fill-opacity="1" fill-rule="nonzero"/></g><path fill="#a1596b" d="M 150.660156 29.835938 L 152.355469 30.109375 L 152.246094 30.882812 L 151.609375 35.714844 C 151.167969 37.105469 146.796875 37.234375 147.214844 36.195312 L 147.210938 35.632812 C 147.214844 35.097656 146.984375 34.5625 146.59375 34.226562 L 150.660156 29.835938 " fill-opacity="1" fill-rule="nonzero"/><path fill="#bc7e84" d="M 152.070312 29.21875 C 152.070312 29.21875 151.683594 31.691406 151.601562 32.476562 C 151.519531 33.261719 148.648438 34.398438 148.191406 34.453125 C 147.730469 34.507812 146.414062 34.515625 146.035156 34.316406 C 145.273438 33.914062 145.628906 33.265625 145.507812 32.746094 C 145.414062 32.347656 144.824219 30.171875 144.796875 29.765625 C 144.769531 29.359375 145.101562 28.109375 145.101562 28.109375 C 145.101562 28.109375 144.683594 27.417969 144.632812 26.90625 C 144.582031 26.390625 144.980469 24.550781 144.980469 24.550781 L 145.183594 23.160156 L 152.550781 23.589844 L 152.929688 27.703125 L 152.070312 29.21875 " fill-opacity="1" fill-rule="nonzero"/><path fill="#0e2e7d" d="M 154.375 24.378906 C 154.375 24.402344 154.375 24.429688 154.371094 24.453125 C 154.359375 24.703125 154.335938 24.957031 154.304688 25.203125 L 154.304688 25.207031 C 154.183594 26.183594 153.980469 27.085938 153.882812 27.484375 C 153.878906 27.496094 153.875 27.507812 153.875 27.515625 C 153.867188 27.535156 153.867188 27.550781 153.863281 27.566406 L 153.855469 27.582031 C 153.855469 27.59375 153.851562 27.601562 153.851562 27.613281 C 153.839844 27.65625 153.832031 27.675781 153.832031 27.675781 C 153.832031 27.683594 153.828125 27.691406 153.828125 27.695312 L 153.824219 27.699219 C 153.636719 28.203125 153.492188 28.527344 153.492188 28.527344 L 151.359375 29.359375 L 151.390625 26.824219 L 151.386719 26.824219 L 151.382812 26.820312 L 151.054688 26.519531 L 150.917969 25.792969 C 150.917969 25.792969 145.335938 23.289062 144.808594 25.417969 L 144.699219 26.066406 L 144.699219 26.054688 C 144.699219 26.023438 144.699219 25.90625 144.703125 25.71875 C 144.707031 25.683594 144.707031 25.644531 144.707031 25.601562 C 144.710938 25.542969 144.714844 25.472656 144.71875 25.402344 L 144.71875 25.398438 C 144.71875 25.367188 144.71875 25.339844 144.722656 25.308594 C 144.722656 25.246094 144.726562 25.179688 144.730469 25.109375 C 144.734375 25.074219 144.738281 25.039062 144.738281 25 C 144.761719 24.644531 144.800781 24.230469 144.855469 23.792969 C 145.460938 20.242188 148.019531 19.765625 149.449219 19.789062 C 149.238281 19.890625 148.949219 20.09375 148.886719 20.4375 C 148.886719 20.4375 151.386719 20.066406 153.570312 21.710938 C 154.039062 22.417969 154.324219 23.25 154.367188 24.148438 C 154.371094 24.226562 154.375 24.300781 154.375 24.378906 " fill-opacity="1" fill-rule="nonzero"/><path fill="#bc7e84" d="M 152.105469 28.816406 C 152.105469 28.816406 152.6875 27.769531 153.582031 28.113281 C 153.953125 28.257812 154.058594 29.136719 153.472656 30.050781 C 152.882812 30.960938 152.214844 31.472656 151.816406 30.882812 C 151.816406 30.882812 151.964844 29.234375 152.105469 28.816406 " fill-opacity="1" fill-rule="nonzero"/><path fill="#465ebd" d="M 154.375 24.378906 C 154.375 24.402344 154.375 24.429688 154.371094 24.453125 C 154.371094 24.710938 154.347656 24.960938 154.304688 25.203125 L 154.304688 25.207031 C 154.289062 25.296875 154.269531 25.382812 154.25 25.46875 C 154.132812 26.355469 153.960938 27.136719 153.882812 27.484375 C 153.878906 27.496094 153.875 27.507812 153.875 27.515625 C 153.867188 27.535156 153.867188 27.550781 153.863281 27.566406 L 153.855469 27.582031 C 153.855469 27.59375 153.851562 27.601562 153.851562 27.613281 C 153.839844 27.65625 153.832031 27.675781 153.832031 27.675781 C 153.832031 27.683594 153.828125 27.691406 153.828125 27.695312 L 153.828125 27.699219 L 153.824219 27.699219 L 153.238281 27.488281 L 151.390625 26.824219 L 151.386719 26.824219 L 151.382812 26.820312 C 151.148438 26.683594 146.21875 23.847656 144.886719 25.714844 C 144.8125 25.816406 144.75 25.933594 144.699219 26.066406 L 144.699219 26.054688 C 144.699219 26.023438 144.699219 25.90625 144.703125 25.71875 C 144.707031 25.683594 144.707031 25.644531 144.707031 25.601562 C 144.710938 25.542969 144.714844 25.472656 144.71875 25.402344 L 144.71875 25.398438 C 144.71875 25.367188 144.71875 25.339844 144.722656 25.308594 C 144.722656 25.246094 144.726562 25.179688 144.730469 25.109375 C 144.734375 25.074219 144.738281 25.039062 144.738281 25 C 144.714844 24.796875 144.699219 24.589844 144.699219 24.378906 C 144.699219 21.710938 146.863281 19.546875 149.535156 19.546875 C 151.089844 19.546875 152.472656 20.28125 153.359375 21.417969 C 153.433594 21.511719 153.503906 21.609375 153.570312 21.710938 C 154.039062 22.417969 154.324219 23.25 154.367188 24.148438 C 154.371094 24.226562 154.375 24.300781 154.375 24.378906 " fill-opacity="1" fill-rule="nonzero"/><path fill="#0e2e7d" d="M 144.699219 26.0625 C 144.699219 26.0625 138.789062 23.09375 141.625 22.785156 C 144.460938 22.476562 146.71875 23.839844 151.390625 26.824219 C 151.390625 26.824219 144.953125 24.371094 144.699219 26.0625 " fill-opacity="1" fill-rule="nonzero"/><path fill="#0e2e7d" d="M 151.386719 26.824219 L 151.390625 26.824219 L 153.238281 27.488281 L 153.824219 27.699219 L 153.828125 27.699219 L 153.828125 27.695312 C 153.828125 27.691406 153.832031 27.683594 153.832031 27.675781 C 153.832031 27.675781 153.839844 27.65625 153.851562 27.613281 C 153.851562 27.601562 153.855469 27.59375 153.855469 27.582031 L 153.863281 27.566406 C 153.867188 27.550781 153.867188 27.535156 153.875 27.515625 C 153.875 27.507812 153.878906 27.496094 153.882812 27.484375 C 153.960938 27.136719 154.132812 26.355469 154.25 25.46875 C 154.269531 25.382812 154.289062 25.296875 154.304688 25.207031 L 154.304688 25.203125 C 154.347656 24.960938 154.371094 24.710938 154.371094 24.453125 C 154.375 24.429688 154.375 24.402344 154.375 24.378906 C 154.375 24.300781 154.371094 24.226562 154.367188 24.148438 C 154.359375 23.929688 154.332031 23.71875 154.296875 23.511719 C 154.1875 23.03125 154.023438 22.65625 153.847656 22.371094 C 153.578125 21.925781 152.921875 21.976562 152.726562 22.457031 C 152.402344 23.265625 151.851562 24.394531 151.136719 24.988281 C 149.949219 25.964844 148.039062 24.742188 148.039062 24.742188 L 148.054688 25.359375 C 149.667969 25.832031 151.253906 26.742188 151.382812 26.820312 L 151.386719 26.824219 " fill-opacity="1" fill-rule="nonzero"/><path fill="#0e2e7d" d="M 144.75 29.226562 L 145.566406 29.257812 L 145.855469 27.65625 L 144.5625 27.578125 Z M 146.625 29.296875 L 148.527344 29.367188 L 148.769531 27.832031 L 146.199219 27.679688 Z M 148.644531 29.648438 L 148.640625 29.648438 L 146.511719 29.570312 C 146.453125 29.566406 146.398438 29.523438 146.382812 29.464844 L 146.042969 28.171875 L 145.816406 29.425781 C 145.804688 29.492188 145.75 29.542969 145.675781 29.539062 L 144.621094 29.5 C 144.554688 29.496094 144.496094 29.445312 144.488281 29.375 L 144.269531 27.449219 C 144.265625 27.40625 144.277344 27.367188 144.304688 27.335938 C 144.335938 27.304688 144.375 27.289062 144.414062 27.292969 L 146.023438 27.390625 L 146.03125 27.390625 L 148.933594 27.566406 L 148.945312 27.566406 L 152.9375 27.808594 C 153.015625 27.8125 153.074219 27.878906 153.066406 27.953125 C 153.0625 28.03125 152.996094 28.089844 152.921875 28.082031 L 149.046875 27.851562 L 148.78125 29.53125 C 148.769531 29.601562 148.710938 29.648438 148.644531 29.648438 " fill-opacity="1" fill-rule="nonzero"/><path fill="#a3b4ff" d="M 141.304688 107.402344 L 141.304688 111.1875 L 137.90625 111.1875 L 138.054688 107.402344 L 141.304688 107.402344 " fill-opacity="1" fill-rule="nonzero"/><path fill="#a3b4ff" d="M 151.78125 110.664062 L 151.910156 106.476562 L 149.09375 106.984375 L 148.972656 110.324219 L 151.78125 110.664062 " fill-opacity="1" fill-rule="nonzero"/><path fill="#465ebd" d="M 148.980469 110.164062 C 148.980469 110.164062 149.894531 109.019531 151.800781 110.105469 L 153.28125 113.484375 L 153.746094 113.980469 L 153.589844 114.863281 L 148.507812 114.863281 L 148.390625 114.007812 L 148.796875 113.253906 L 148.980469 110.164062 " fill-opacity="1" fill-rule="nonzero"/><path fill="#0e2e7d" d="M 148.390625 114.007812 L 153.746094 113.980469 L 153.589844 114.863281 L 148.507812 114.863281 L 148.390625 114.007812 " fill-opacity="1" fill-rule="nonzero"/><path fill="#465ebd" d="M 137.964844 109.703125 L 133.132812 113.253906 L 130.019531 114.007812 L 130.253906 114.863281 L 142.367188 114.863281 L 142.308594 114.007812 L 141.90625 109.835938 L 141.304688 109.550781 C 141.304688 109.550781 141.316406 111.679688 137.964844 109.703125 " fill-opacity="1" fill-rule="nonzero"/><path fill="#0e2e7d" d="M 130.019531 114.007812 L 142.308594 114.007812 L 142.367188 114.863281 L 130.253906 114.863281 L 130.019531 114.007812 " fill-opacity="1" fill-rule="nonzero"/><path fill="#465ebd" d="M 155.875 60.914062 C 155.875 60.914062 157.351562 66.785156 157.8125 68.433594 C 158.277344 70.082031 153.070312 109.296875 153.070312 109.296875 L 149.011719 109.296875 L 147.082031 77.136719 L 144.5625 88.878906 L 142.351562 109.253906 L 137.652344 109.253906 L 136.003906 85.105469 C 136.003906 85.105469 138.433594 70.699219 141.375 60.695312 L 155.875 60.914062 " fill-opacity="1" fill-rule="nonzero"/><path fill="#0e2e7d" d="M 144.621094 68.792969 L 145.035156 69.566406 L 140.480469 88.171875 L 137.652344 109.253906 L 142.351562 109.253906 L 144.5625 88.878906 L 147.082031 77.136719 L 146.660156 70.132812 L 144.621094 68.792969 " fill-opacity="1" fill-rule="nonzero"/><path fill="#465ebd" d="M 142.367188 101.992188 L 142.363281 101.992188 C 142.285156 101.988281 142.226562 101.925781 142.230469 101.847656 L 142.78125 88.222656 C 142.78125 88.210938 142.785156 88.203125 142.785156 88.191406 L 148.097656 67.988281 C 148.117188 67.914062 148.191406 67.867188 148.265625 67.886719 C 148.339844 67.90625 148.382812 67.984375 148.363281 68.058594 L 143.058594 88.25 L 142.507812 101.859375 C 142.503906 101.933594 142.441406 101.992188 142.367188 101.992188 " fill-opacity="1" fill-rule="nonzero"/><path fill="#0e2e7d" d="M 152.769531 106.617188 L 152.757812 106.617188 C 152.679688 106.609375 152.625 106.542969 152.628906 106.464844 L 155.621094 72.144531 L 155.164062 68.855469 L 151.238281 64.542969 C 151.1875 64.484375 151.191406 64.398438 151.25 64.347656 C 151.304688 64.296875 151.394531 64.300781 151.445312 64.355469 L 155.398438 68.703125 C 155.417969 68.722656 155.429688 68.746094 155.433594 68.777344 L 155.898438 72.121094 C 155.898438 72.132812 155.898438 72.144531 155.898438 72.152344 L 152.90625 106.488281 C 152.902344 106.5625 152.839844 106.617188 152.769531 106.617188 " fill-opacity="1" fill-rule="nonzero"/><path fill="#a1596b" d="M 126.296875 40.773438 C 126.296875 40.773438 124.917969 39.484375 123.6875 38.988281 C 122.910156 38.675781 120.371094 38.835938 119.898438 38.8125 C 119.652344 38.800781 119.867188 39.335938 120.050781 39.472656 C 120.238281 39.605469 121.738281 39.769531 121.738281 39.769531 C 121.738281 39.769531 120.464844 39.855469 119.84375 39.867188 C 119.222656 39.878906 117.5 39.5 117.210938 39.53125 C 116.917969 39.5625 116.839844 39.851562 116.902344 40.035156 C 116.960938 40.21875 117.441406 40.214844 117.605469 40.425781 C 117.773438 40.640625 118.933594 41.570312 119.160156 41.769531 C 119.382812 41.972656 121.566406 42.574219 121.78125 42.605469 C 121.996094 42.636719 124.835938 42.472656 124.835938 42.472656 L 126.296875 40.773438 " fill-opacity="1" fill-rule="nonzero"/><path fill="#a3b4ff" d="M 134.882812 54.921875 L 123.882812 42.726562 L 126.433594 40.496094 L 139.050781 51.289062 L 137.144531 53.308594 L 134.882812 54.921875 " fill-opacity="1" fill-rule="nonzero"/><path fill="#a3b4ff" d="M 146.378906 40.78125 C 145.671875 42.488281 143.714844 43.296875 142.007812 42.59375 C 140.300781 41.886719 139.488281 39.933594 140.195312 38.226562 C 140.902344 36.519531 142.859375 35.710938 144.566406 36.414062 C 146.273438 37.121094 147.085938 39.074219 146.378906 40.78125 " fill-opacity="1" fill-rule="nonzero"/><path fill="#a3b4ff" d="M 146.378906 40.78125 L 139.777344 54.128906 L 137.144531 53.308594 L 134.707031 51.972656 L 140.195312 38.226562 C 140.898438 36.523438 142.859375 35.710938 144.566406 36.417969 C 146.273438 37.121094 147.085938 39.074219 146.378906 40.78125 " fill-opacity="1" fill-rule="nonzero"/><path fill="#a3b4ff" d="M 139.253906 55.113281 C 138.253906 56.277344 136.5 56.410156 135.335938 55.414062 C 134.171875 54.417969 134.035156 52.664062 135.035156 51.503906 C 136.03125 50.339844 137.785156 50.203125 138.949219 51.199219 C 140.117188 52.195312 140.25 53.949219 139.253906 55.113281 " fill-opacity="1" fill-rule="nonzero"/><path fill="#a3b4ff" d="M 157.566406 36.269531 L 159.90625 40.578125 C 158.691406 43.5625 155.671875 52.476562 155.878906 55.691406 C 155.878906 55.738281 155.882812 55.773438 155.882812 55.804688 C 155.882812 56.535156 155.476562 58.277344 155.476562 58.277344 L 155.871094 60.914062 C 155.871094 60.914062 148.558594 65.140625 141.371094 60.695312 L 141.621094 58.617188 C 141.621094 58.617188 140.605469 57.304688 140.5625 55.5625 C 140.523438 53.816406 140.96875 47.875 140.96875 47.875 C 140.96875 47.875 140.289062 40.050781 142.847656 36.191406 L 151.683594 35.058594 L 157.566406 36.269531 " fill-opacity="1" fill-rule="nonzero"/><path fill="#728be8" d="M 137.089844 53.027344 C 136.804688 53.027344 136.519531 52.925781 136.296875 52.71875 L 125.988281 43.296875 C 125.929688 43.242188 125.925781 43.15625 125.980469 43.101562 C 126.03125 43.042969 126.117188 43.039062 126.175781 43.09375 L 136.484375 52.515625 C 136.84375 52.84375 137.410156 52.824219 137.742188 52.46875 L 140.765625 49.257812 C 140.816406 49.203125 140.90625 49.199219 140.960938 49.253906 C 141.015625 49.304688 141.019531 49.390625 140.964844 49.449219 L 137.945312 52.65625 C 137.714844 52.902344 137.402344 53.027344 137.089844 53.027344 " fill-opacity="1" fill-rule="nonzero"/><path fill="#728be8" d="M 141.621094 58.757812 C 141.578125 58.757812 141.539062 58.738281 141.511719 58.703125 C 141.46875 58.648438 140.46875 57.332031 140.425781 55.5625 C 140.386719 53.867188 140.808594 48.164062 140.832031 47.875 C 140.808594 47.585938 140.378906 41.96875 141.808594 38 C 141.835938 37.929688 141.914062 37.890625 141.988281 37.917969 C 142.058594 37.941406 142.097656 38.023438 142.070312 38.09375 C 140.628906 42.09375 141.105469 47.808594 141.109375 47.863281 C 141.109375 47.871094 141.109375 47.878906 141.109375 47.886719 C 141.105469 47.945312 140.664062 53.839844 140.703125 55.558594 C 140.742188 57.234375 141.71875 58.519531 141.730469 58.535156 C 141.777344 58.59375 141.765625 58.679688 141.703125 58.726562 C 141.679688 58.746094 141.648438 58.757812 141.621094 58.757812 " fill-opacity="1" fill-rule="nonzero"/><path fill="#728be8" d="M 154.421875 58.324219 C 154.40625 58.324219 154.386719 58.320312 154.371094 58.3125 C 154.300781 58.285156 154.265625 58.207031 154.292969 58.136719 C 154.296875 58.125 154.683594 57.09375 154.632812 56.027344 C 154.285156 48.964844 155.523438 42.878906 155.539062 42.816406 C 155.554688 42.742188 155.625 42.695312 155.703125 42.710938 C 155.777344 42.726562 155.824219 42.800781 155.808594 42.875 C 155.796875 42.933594 154.566406 48.988281 154.910156 56.011719 C 154.964844 57.140625 154.566406 58.191406 154.550781 58.234375 C 154.53125 58.289062 154.476562 58.324219 154.421875 58.324219 " fill-opacity="1" fill-rule="nonzero"/><path fill="#728be8" d="M 148.882812 61.167969 C 146.65625 61.167969 144.445312 60.636719 142.210938 59.582031 C 142.140625 59.546875 142.113281 59.464844 142.144531 59.394531 C 142.179688 59.328125 142.261719 59.296875 142.328125 59.332031 C 146.292969 61.207031 150.179688 61.386719 154.207031 59.878906 C 154.28125 59.851562 154.359375 59.890625 154.386719 59.960938 C 154.414062 60.03125 154.375 60.113281 154.304688 60.140625 C 152.472656 60.824219 150.671875 61.167969 148.882812 61.167969 " fill-opacity="1" fill-rule="nonzero"/><path fill="#ffffff" d="M 129.484375 32.261719 C 129.484375 36.941406 125.683594 40.738281 120.996094 40.738281 C 116.308594 40.738281 112.507812 36.941406 112.507812 32.261719 C 112.507812 27.582031 116.308594 23.785156 120.996094 23.785156 C 125.683594 23.785156 129.484375 27.582031 129.484375 32.261719 " fill-opacity="1" fill-rule="nonzero"/><path fill="#728be8" d="M 120.996094 23.925781 C 116.390625 23.925781 112.648438 27.664062 112.648438 32.261719 C 112.648438 36.859375 116.390625 40.597656 120.996094 40.597656 C 125.597656 40.597656 129.34375 36.859375 129.34375 32.261719 C 129.34375 27.664062 125.597656 23.925781 120.996094 23.925781 Z M 120.996094 40.875 C 116.238281 40.875 112.371094 37.011719 112.371094 32.261719 C 112.371094 27.511719 116.238281 23.648438 120.996094 23.648438 C 125.753906 23.648438 129.621094 27.511719 129.621094 32.261719 C 129.621094 37.011719 125.753906 40.875 120.996094 40.875 " fill-opacity="1" fill-rule="nonzero"/><path fill="#a1596b" d="M 131.644531 27.753906 C 131.644531 27.753906 128.914062 25.410156 128.371094 25.023438 C 127.828125 24.636719 124.683594 23.964844 124.144531 23.785156 C 123.601562 23.609375 123.890625 24.257812 124.367188 24.480469 C 124.84375 24.707031 126.660156 25.738281 127.371094 26.667969 C 128.085938 27.601562 128.371094 28.699219 129.324219 29.359375 C 130.277344 30.019531 131.644531 27.753906 131.644531 27.753906 " fill-opacity="1" fill-rule="nonzero"/><path fill="#a3b4ff" d="M 139.292969 41.71875 L 128.878906 29.019531 L 131.53125 26.914062 L 143.625 38.285156 L 141.625 40.210938 L 139.292969 41.71875 " fill-opacity="1" fill-rule="nonzero"/><path fill="#a3b4ff" d="M 156.980469 42.839844 C 155.136719 42.972656 153.53125 41.589844 153.398438 39.75 C 153.261719 37.90625 154.648438 36.304688 156.492188 36.171875 C 158.335938 36.035156 159.9375 37.417969 160.074219 39.261719 C 160.207031 41.101562 158.824219 42.703125 156.980469 42.839844 " fill-opacity="1" fill-rule="nonzero"/><path fill="#a3b4ff" d="M 156.980469 42.835938 L 142.074219 42.933594 L 141.625 40.210938 L 141.726562 37.441406 L 156.492188 36.171875 C 158.332031 36.035156 159.9375 37.417969 160.070312 39.261719 C 160.207031 41.101562 158.820312 42.703125 156.980469 42.835938 " fill-opacity="1" fill-rule="nonzero"/><path fill="#a3b4ff" d="M 140.957031 42.90625 C 139.46875 42.535156 138.5625 41.03125 138.929688 39.542969 C 139.300781 38.058594 140.804688 37.152344 142.296875 37.519531 C 143.785156 37.890625 144.691406 39.394531 144.324219 40.878906 C 143.953125 42.367188 142.445312 43.273438 140.957031 42.90625 " fill-opacity="1" fill-rule="nonzero"/><path fill="#728be8" d="M 156.445312 42.980469 L 152.902344 42.980469 C 152.894531 42.980469 152.890625 42.980469 152.882812 42.976562 L 142.273438 41.472656 C 141.527344 41.421875 140.832031 41.078125 140.328125 40.507812 L 130.535156 29.453125 C 130.484375 29.394531 130.492188 29.308594 130.546875 29.257812 C 130.605469 29.207031 130.691406 29.210938 130.742188 29.269531 L 140.535156 40.324219 C 140.992188 40.839844 141.617188 41.148438 142.304688 41.199219 L 152.910156 42.703125 L 156.445312 42.703125 C 156.523438 42.703125 156.585938 42.765625 156.585938 42.839844 C 156.585938 42.917969 156.523438 42.980469 156.445312 42.980469 " fill-opacity="1" fill-rule="nonzero"/><path fill="#a3b4ff" d="M 122.769531 31.8125 L 120.996094 28.742188 L 119.222656 31.8125 L 120.289062 31.8125 L 120.289062 35.058594 L 121.703125 35.058594 L 121.703125 31.8125 L 122.769531 31.8125 " fill-opacity="1" fill-rule="nonzero"/><path fill="#a3b4ff" d="M 126.320312 33.625 L 124.546875 30.554688 L 122.769531 33.625 L 123.839844 33.625 L 123.839844 35.058594 L 125.25 35.058594 L 125.25 33.625 L 126.320312 33.625 " fill-opacity="1" fill-rule="nonzero"/><path fill="#a3b4ff" d="M 117.445312 30.554688 L 115.671875 33.625 L 116.742188 33.625 L 116.742188 35.058594 L 118.152344 35.058594 L 118.152344 33.625 L 119.222656 33.625 L 117.445312 30.554688 " fill-opacity="1" fill-rule="nonzero"/><path fill="#a3b4ff" d="M 151.769531 34.484375 C 151.769531 34.484375 150.03125 35.71875 147.125 35.058594 L 146.355469 35.742188 C 146.574219 38.984375 153.074219 38.539062 152.851562 35.296875 L 151.769531 34.484375 " fill-opacity="1" fill-rule="nonzero"/><path fill="#728be8" d="M 148.527344 36.8125 C 148.453125 36.8125 148.390625 36.75 148.390625 36.675781 C 148.386719 36.601562 148.449219 36.535156 148.523438 36.535156 C 152.1875 36.4375 152.71875 35.261719 152.722656 35.25 C 152.75 35.179688 152.828125 35.140625 152.898438 35.167969 C 152.972656 35.195312 153.007812 35.273438 152.984375 35.34375 C 152.960938 35.402344 152.441406 36.707031 148.53125 36.8125 L 148.527344 36.8125 " fill-opacity="1" fill-rule="nonzero"/></svg>