<svg xmlns="http://www.w3.org/2000/svg" xmlns:xlink="http://www.w3.org/1999/xlink" width="237" zoomAndPan="magnify" viewBox="0 0 177.75 60" height="80" preserveAspectRatio="xMidYMid meet" version="1.0"><defs><g/><clipPath id="b9987e2605"><path d="M 0 0.0429688 L 177.5 0.0429688 L 177.5 59.957031 L 0 59.957031 Z M 0 0.0429688 " clip-rule="nonzero"/></clipPath><clipPath id="4276cb6efb"><path d="M 53.378906 18.835938 L 146.671875 18.835938 L 146.671875 45.445312 L 53.378906 45.445312 Z M 53.378906 18.835938 " clip-rule="nonzero"/></clipPath><clipPath id="6e05e89180"><path d="M 13.800781 14.195312 L 51 14.195312 L 51 50.082031 L 13.800781 50.082031 Z M 13.800781 14.195312 " clip-rule="nonzero"/></clipPath><clipPath id="72a1a4c778"><path d="M 9.585938 12.3125 L 44.835938 12.3125 L 44.835938 47.5625 L 9.585938 47.5625 Z M 9.585938 12.3125 " clip-rule="nonzero"/></clipPath></defs><g clip-path="url(#b9987e2605)"><path fill="#ffffff" d="M 15 0.0976562 L 162.75 0.0976562 C 163.734375 0.0976562 164.710938 0.195312 165.675781 0.386719 C 166.640625 0.578125 167.582031 0.863281 168.488281 1.238281 C 169.398438 1.617188 170.265625 2.078125 171.082031 2.621094 C 171.902344 3.167969 172.660156 3.789062 173.355469 4.484375 C 174.054688 5.179688 174.675781 5.9375 175.222656 6.753906 C 175.769531 7.570312 176.230469 8.433594 176.609375 9.339844 C 176.984375 10.25 177.269531 11.1875 177.460938 12.148438 C 177.652344 13.113281 177.75 14.085938 177.75 15.070312 L 177.75 45.011719 C 177.75 45.996094 177.652344 46.96875 177.460938 47.933594 C 177.269531 48.898438 176.984375 49.835938 176.609375 50.742188 C 176.230469 51.652344 175.769531 52.515625 175.222656 53.332031 C 174.675781 54.148438 174.054688 54.90625 173.355469 55.601562 C 172.660156 56.292969 171.902344 56.914062 171.082031 57.460938 C 170.265625 58.007812 169.398438 58.46875 168.488281 58.84375 C 167.582031 59.222656 166.640625 59.503906 165.675781 59.695312 C 164.710938 59.890625 163.734375 59.984375 162.75 59.984375 L 15 59.984375 C 14.015625 59.984375 13.039062 59.890625 12.074219 59.695312 C 11.109375 59.503906 10.167969 59.222656 9.257812 58.84375 C 8.351562 58.46875 7.484375 58.007812 6.667969 57.460938 C 5.847656 56.914062 5.089844 56.292969 4.394531 55.601562 C 3.695312 54.90625 3.074219 54.148438 2.527344 53.332031 C 1.980469 52.515625 1.519531 51.652344 1.140625 50.742188 C 0.765625 49.835938 0.480469 48.898438 0.289062 47.933594 C 0.0976562 46.96875 0 45.996094 0 45.011719 L 0 15.070312 C 0 14.085938 0.0976562 13.113281 0.289062 12.148438 C 0.480469 11.1875 0.765625 10.25 1.140625 9.339844 C 1.519531 8.433594 1.980469 7.570312 2.527344 6.753906 C 3.074219 5.9375 3.695312 5.179688 4.394531 4.484375 C 5.089844 3.789062 5.847656 3.167969 6.667969 2.621094 C 7.484375 2.078125 8.351562 1.617188 9.257812 1.238281 C 10.167969 0.863281 11.109375 0.578125 12.074219 0.386719 C 13.039062 0.195312 14.015625 0.0976562 15 0.0976562 Z M 15 0.0976562 " fill-opacity="1" fill-rule="nonzero"/></g><path fill="#363636" d="M 55.234375 21.210938 L 55.234375 19.472656 L 58.488281 19.472656 L 58.488281 29.292969 L 56.546875 29.292969 L 56.546875 21.210938 Z M 60.949219 27.164062 C 61.816406 26.445312 62.503906 25.847656 63.015625 25.371094 C 63.527344 24.886719 63.957031 24.382812 64.296875 23.863281 C 64.640625 23.34375 64.8125 22.832031 64.8125 22.328125 C 64.8125 21.871094 64.703125 21.511719 64.488281 21.25 C 64.273438 20.988281 63.9375 20.859375 63.488281 20.859375 C 63.039062 20.859375 62.691406 21.011719 62.449219 21.316406 C 62.207031 21.613281 62.082031 22.023438 62.070312 22.542969 L 60.234375 22.542969 C 60.269531 21.464844 60.589844 20.648438 61.195312 20.089844 C 61.804688 19.535156 62.578125 19.253906 63.515625 19.253906 C 64.542969 19.253906 65.328125 19.527344 65.878906 20.078125 C 66.425781 20.617188 66.703125 21.332031 66.703125 22.21875 C 66.703125 22.921875 66.511719 23.589844 66.132812 24.226562 C 65.757812 24.863281 65.324219 25.421875 64.839844 25.898438 C 64.351562 26.363281 63.71875 26.929688 62.933594 27.597656 L 66.917969 27.597656 L 66.917969 29.160156 L 60.25 29.160156 L 60.25 27.757812 Z M 76.402344 29.292969 L 74.324219 25.628906 L 73.429688 25.628906 L 73.429688 29.292969 L 71.542969 29.292969 L 71.542969 19.886719 L 75.078125 19.886719 C 75.808594 19.886719 76.429688 20.019531 76.941406 20.28125 C 77.453125 20.53125 77.835938 20.875 78.089844 21.316406 C 78.347656 21.746094 78.480469 22.234375 78.480469 22.773438 C 78.480469 23.390625 78.300781 23.953125 77.941406 24.457031 C 77.578125 24.949219 77.042969 25.292969 76.332031 25.480469 L 78.589844 29.292969 Z M 73.429688 24.214844 L 75.011719 24.214844 C 75.523438 24.214844 75.90625 24.09375 76.15625 23.851562 C 76.410156 23.597656 76.535156 23.253906 76.535156 22.8125 C 76.535156 22.382812 76.410156 22.050781 76.15625 21.816406 C 75.90625 21.574219 75.523438 21.453125 75.011719 21.453125 L 73.429688 21.453125 Z M 87.140625 25.398438 C 87.140625 25.667969 87.125 25.910156 87.089844 26.128906 L 81.621094 26.128906 C 81.664062 26.667969 81.855469 27.089844 82.1875 27.394531 C 82.519531 27.699219 82.929688 27.851562 83.417969 27.851562 C 84.117188 27.851562 84.617188 27.550781 84.914062 26.949219 L 86.953125 26.949219 C 86.738281 27.667969 86.324219 28.261719 85.710938 28.726562 C 85.097656 29.1875 84.347656 29.414062 83.457031 29.414062 C 82.738281 29.414062 82.089844 29.257812 81.511719 28.941406 C 80.945312 28.621094 80.5 28.167969 80.175781 27.582031 C 79.863281 27 79.703125 26.324219 79.703125 25.5625 C 79.703125 24.789062 79.863281 24.109375 80.175781 23.527344 C 80.492188 22.941406 80.933594 22.492188 81.5 22.179688 C 82.066406 21.863281 82.71875 21.707031 83.457031 21.707031 C 84.167969 21.707031 84.800781 21.859375 85.359375 22.164062 C 85.925781 22.472656 86.363281 22.90625 86.671875 23.472656 C 86.984375 24.03125 87.140625 24.671875 87.140625 25.398438 Z M 85.183594 24.859375 C 85.175781 24.375 85 23.988281 84.660156 23.703125 C 84.316406 23.40625 83.898438 23.257812 83.402344 23.257812 C 82.933594 23.257812 82.539062 23.402344 82.214844 23.6875 C 81.898438 23.964844 81.707031 24.359375 81.632812 24.859375 Z M 91.382812 29.414062 C 90.773438 29.414062 90.222656 29.308594 89.738281 29.089844 C 89.25 28.867188 88.863281 28.566406 88.574219 28.1875 C 88.296875 27.8125 88.144531 27.394531 88.117188 26.9375 L 90.019531 26.9375 C 90.054688 27.222656 90.195312 27.460938 90.4375 27.648438 C 90.691406 27.839844 91 27.933594 91.371094 27.933594 C 91.730469 27.933594 92.007812 27.859375 92.207031 27.71875 C 92.414062 27.574219 92.519531 27.390625 92.519531 27.164062 C 92.519531 26.921875 92.390625 26.742188 92.140625 26.625 C 91.898438 26.5 91.503906 26.363281 90.964844 26.222656 C 90.40625 26.085938 89.949219 25.949219 89.589844 25.804688 C 89.238281 25.660156 88.929688 25.441406 88.671875 25.144531 C 88.417969 24.847656 88.292969 24.449219 88.292969 23.945312 C 88.292969 23.53125 88.410156 23.152344 88.644531 22.8125 C 88.886719 22.472656 89.226562 22.203125 89.667969 22.003906 C 90.121094 21.804688 90.644531 21.707031 91.25 21.707031 C 92.140625 21.707031 92.851562 21.933594 93.382812 22.382812 C 93.914062 22.820312 94.207031 23.417969 94.257812 24.171875 L 92.449219 24.171875 C 92.421875 23.875 92.296875 23.644531 92.070312 23.472656 C 91.855469 23.292969 91.5625 23.203125 91.195312 23.203125 C 90.851562 23.203125 90.585938 23.265625 90.398438 23.390625 C 90.21875 23.519531 90.128906 23.691406 90.128906 23.917969 C 90.128906 24.167969 90.253906 24.363281 90.507812 24.496094 C 90.757812 24.621094 91.148438 24.753906 91.679688 24.886719 C 92.222656 25.023438 92.667969 25.160156 93.015625 25.304688 C 93.367188 25.449219 93.667969 25.671875 93.921875 25.980469 C 94.183594 26.273438 94.316406 26.671875 94.328125 27.164062 C 94.328125 27.597656 94.207031 27.980469 93.960938 28.324219 C 93.726562 28.664062 93.386719 28.933594 92.9375 29.132812 C 92.496094 29.320312 91.976562 29.414062 91.382812 29.414062 Z M 98.078125 23.378906 L 98.078125 26.988281 C 98.078125 27.242188 98.136719 27.425781 98.253906 27.542969 C 98.378906 27.648438 98.585938 27.703125 98.875 27.703125 L 99.753906 27.703125 L 99.753906 29.292969 L 98.566406 29.292969 C 96.972656 29.292969 96.175781 28.519531 96.175781 26.976562 L 96.175781 23.378906 L 95.285156 23.378906 L 95.285156 21.828125 L 96.175781 21.828125 L 96.175781 19.984375 L 98.078125 19.984375 L 98.078125 21.828125 L 99.753906 21.828125 L 99.753906 23.378906 Z M 100.625 25.535156 C 100.625 24.78125 100.773438 24.109375 101.070312 23.527344 C 101.378906 22.941406 101.785156 22.492188 102.300781 22.179688 C 102.820312 21.863281 103.402344 21.707031 104.042969 21.707031 C 104.597656 21.707031 105.085938 21.820312 105.5 22.042969 C 105.921875 22.269531 106.261719 22.550781 106.511719 22.894531 L 106.511719 21.828125 L 108.414062 21.828125 L 108.414062 29.292969 L 106.511719 29.292969 L 106.511719 28.203125 C 106.269531 28.550781 105.929688 28.84375 105.5 29.078125 C 105.078125 29.300781 104.585938 29.414062 104.027344 29.414062 C 103.398438 29.414062 102.820312 29.253906 102.300781 28.929688 C 101.785156 28.605469 101.378906 28.152344 101.070312 27.570312 C 100.773438 26.976562 100.625 26.296875 100.625 25.535156 Z M 106.511719 25.5625 C 106.511719 25.101562 106.421875 24.710938 106.242188 24.390625 C 106.0625 24.054688 105.820312 23.804688 105.511719 23.632812 C 105.207031 23.453125 104.878906 23.363281 104.527344 23.363281 C 104.175781 23.363281 103.851562 23.449219 103.554688 23.621094 C 103.257812 23.792969 103.015625 24.042969 102.828125 24.375 C 102.648438 24.699219 102.554688 25.085938 102.554688 25.535156 C 102.554688 25.984375 102.648438 26.378906 102.828125 26.71875 C 103.015625 27.050781 103.257812 27.308594 103.554688 27.488281 C 103.863281 27.667969 104.183594 27.757812 104.527344 27.757812 C 104.878906 27.757812 105.207031 27.671875 105.511719 27.5 C 105.820312 27.320312 106.0625 27.070312 106.242188 26.746094 C 106.421875 26.414062 106.511719 26.019531 106.511719 25.5625 Z M 117.320312 21.828125 L 117.320312 29.292969 L 115.417969 29.292969 L 115.417969 28.351562 C 115.175781 28.671875 114.855469 28.929688 114.460938 29.117188 C 114.074219 29.296875 113.648438 29.386719 113.191406 29.386719 C 112.605469 29.386719 112.089844 29.265625 111.636719 29.023438 C 111.1875 28.773438 110.832031 28.410156 110.570312 27.933594 C 110.320312 27.449219 110.195312 26.871094 110.195312 26.207031 L 110.195312 21.828125 L 112.082031 21.828125 L 112.082031 25.9375 C 112.082031 26.53125 112.230469 26.988281 112.527344 27.3125 C 112.828125 27.628906 113.230469 27.785156 113.746094 27.785156 C 114.265625 27.785156 114.675781 27.628906 114.972656 27.3125 C 115.269531 26.988281 115.417969 26.53125 115.417969 25.9375 L 115.417969 21.828125 Z M 121.078125 22.988281 C 121.320312 22.59375 121.636719 22.28125 122.023438 22.058594 C 122.417969 21.832031 122.867188 21.722656 123.371094 21.722656 L 123.371094 23.703125 L 122.871094 23.703125 C 122.277344 23.703125 121.828125 23.839844 121.523438 24.121094 C 121.226562 24.398438 121.078125 24.882812 121.078125 25.574219 L 121.078125 29.292969 L 119.1875 29.292969 L 119.1875 21.828125 L 121.078125 21.828125 Z M 124.160156 25.535156 C 124.160156 24.78125 124.308594 24.109375 124.605469 23.527344 C 124.910156 22.941406 125.320312 22.492188 125.832031 22.179688 C 126.355469 21.863281 126.933594 21.707031 127.574219 21.707031 C 128.132812 21.707031 128.617188 21.820312 129.03125 22.042969 C 129.457031 22.269531 129.792969 22.550781 130.042969 22.894531 L 130.042969 21.828125 L 131.949219 21.828125 L 131.949219 29.292969 L 130.042969 29.292969 L 130.042969 28.203125 C 129.800781 28.550781 129.464844 28.84375 129.03125 29.078125 C 128.609375 29.300781 128.117188 29.414062 127.5625 29.414062 C 126.929688 29.414062 126.355469 29.253906 125.832031 28.929688 C 125.320312 28.605469 124.910156 28.152344 124.605469 27.570312 C 124.308594 26.976562 124.160156 26.296875 124.160156 25.535156 Z M 130.042969 25.5625 C 130.042969 25.101562 129.953125 24.710938 129.773438 24.390625 C 129.59375 24.054688 129.351562 23.804688 129.046875 23.632812 C 128.738281 23.453125 128.410156 23.363281 128.058594 23.363281 C 127.710938 23.363281 127.386719 23.449219 127.089844 23.621094 C 126.792969 23.792969 126.546875 24.042969 126.359375 24.375 C 126.179688 24.699219 126.089844 25.085938 126.089844 25.535156 C 126.089844 25.984375 126.179688 26.378906 126.359375 26.71875 C 126.546875 27.050781 126.792969 27.308594 127.089844 27.488281 C 127.394531 27.667969 127.71875 27.757812 128.058594 27.757812 C 128.410156 27.757812 128.738281 27.671875 129.046875 27.5 C 129.351562 27.320312 129.59375 27.070312 129.773438 26.746094 C 129.953125 26.414062 130.042969 26.019531 130.042969 25.5625 Z M 137.9375 21.722656 C 138.828125 21.722656 139.550781 22.003906 140.097656 22.570312 C 140.648438 23.125 140.921875 23.910156 140.921875 24.914062 L 140.921875 29.292969 L 139.03125 29.292969 L 139.03125 25.171875 C 139.03125 24.578125 138.882812 24.125 138.585938 23.808594 C 138.289062 23.484375 137.882812 23.324219 137.371094 23.324219 C 136.847656 23.324219 136.433594 23.484375 136.128906 23.808594 C 135.832031 24.125 135.683594 24.578125 135.683594 25.171875 L 135.683594 29.292969 L 133.792969 29.292969 L 133.792969 21.828125 L 135.683594 21.828125 L 135.683594 22.757812 C 135.9375 22.433594 136.253906 22.183594 136.640625 22.003906 C 137.039062 21.816406 137.46875 21.722656 137.9375 21.722656 Z M 144.921875 23.378906 L 144.921875 26.988281 C 144.921875 27.242188 144.980469 27.425781 145.097656 27.542969 C 145.222656 27.648438 145.429688 27.703125 145.714844 27.703125 L 146.59375 27.703125 L 146.59375 29.292969 L 145.40625 29.292969 C 143.8125 29.292969 143.015625 28.519531 143.015625 26.976562 L 143.015625 23.378906 L 142.125 23.378906 L 142.125 21.828125 L 143.015625 21.828125 L 143.015625 19.984375 L 144.921875 19.984375 L 144.921875 21.828125 L 146.59375 21.828125 L 146.59375 23.378906 Z M 144.921875 23.378906 " fill-opacity="1" fill-rule="nonzero"/><path fill="#787878" d="M 56.261719 35.007812 L 56.261719 41.269531 L 55.441406 41.269531 L 55.441406 35.007812 Z M 60.0625 36.257812 C 60.660156 36.257812 61.148438 36.441406 61.519531 36.804688 C 61.890625 37.164062 62.078125 37.6875 62.078125 38.371094 L 62.078125 41.269531 L 61.265625 41.269531 L 61.265625 38.484375 C 61.265625 37.996094 61.144531 37.621094 60.898438 37.363281 C 60.652344 37.101562 60.316406 36.96875 59.890625 36.96875 C 59.457031 36.96875 59.113281 37.101562 58.855469 37.371094 C 58.601562 37.640625 58.476562 38.035156 58.476562 38.550781 L 58.476562 41.269531 L 57.65625 41.269531 L 57.65625 36.347656 L 58.476562 36.347656 L 58.476562 37.046875 C 58.640625 36.796875 58.859375 36.601562 59.132812 36.464844 C 59.414062 36.328125 59.726562 36.257812 60.0625 36.257812 Z M 70.207031 35.007812 L 68.164062 38.90625 L 68.164062 41.269531 L 67.34375 41.269531 L 67.34375 38.90625 L 65.292969 35.007812 L 66.199219 35.007812 L 67.75 38.179688 L 69.296875 35.007812 Z M 73.222656 41.351562 C 72.757812 41.351562 72.339844 41.246094 71.960938 41.035156 C 71.589844 40.828125 71.292969 40.53125 71.078125 40.148438 C 70.867188 39.757812 70.765625 39.308594 70.765625 38.800781 C 70.765625 38.296875 70.871094 37.855469 71.089844 37.472656 C 71.308594 37.082031 71.609375 36.785156 71.988281 36.582031 C 72.367188 36.371094 72.789062 36.265625 73.257812 36.265625 C 73.726562 36.265625 74.148438 36.371094 74.527344 36.582031 C 74.902344 36.785156 75.199219 37.078125 75.417969 37.460938 C 75.640625 37.84375 75.75 38.292969 75.75 38.800781 C 75.75 39.308594 75.636719 39.757812 75.40625 40.148438 C 75.1875 40.53125 74.882812 40.828125 74.5 41.035156 C 74.113281 41.246094 73.6875 41.351562 73.222656 41.351562 Z M 73.222656 40.632812 C 73.515625 40.632812 73.789062 40.5625 74.050781 40.425781 C 74.308594 40.289062 74.515625 40.082031 74.667969 39.804688 C 74.832031 39.53125 74.914062 39.195312 74.914062 38.800781 C 74.914062 38.40625 74.835938 38.070312 74.679688 37.792969 C 74.523438 37.519531 74.320312 37.316406 74.066406 37.183594 C 73.816406 37.046875 73.542969 36.976562 73.246094 36.976562 C 72.949219 36.976562 72.671875 37.046875 72.417969 37.183594 C 72.175781 37.316406 71.976562 37.519531 71.824219 37.792969 C 71.675781 38.070312 71.601562 38.40625 71.601562 38.800781 C 71.601562 39.203125 71.671875 39.539062 71.816406 39.816406 C 71.96875 40.089844 72.164062 40.296875 72.410156 40.433594 C 72.65625 40.566406 72.925781 40.632812 73.222656 40.632812 Z M 81.199219 36.347656 L 81.199219 41.269531 L 80.382812 41.269531 L 80.382812 40.542969 C 80.226562 40.792969 80.007812 40.992188 79.726562 41.136719 C 79.449219 41.273438 79.144531 41.34375 78.808594 41.34375 C 78.421875 41.34375 78.078125 41.265625 77.773438 41.109375 C 77.464844 40.945312 77.222656 40.707031 77.042969 40.390625 C 76.867188 40.074219 76.78125 39.6875 76.78125 39.230469 L 76.78125 36.347656 L 77.59375 36.347656 L 77.59375 39.125 C 77.59375 39.609375 77.714844 39.984375 77.960938 40.246094 C 78.207031 40.503906 78.542969 40.632812 78.96875 40.632812 C 79.40625 40.632812 79.753906 40.5 80.003906 40.230469 C 80.257812 39.960938 80.382812 39.566406 80.382812 39.050781 L 80.382812 36.347656 Z M 83.402344 37.148438 C 83.546875 36.867188 83.75 36.648438 84.015625 36.492188 C 84.285156 36.335938 84.613281 36.257812 84.996094 36.257812 L 84.996094 37.101562 L 84.78125 37.101562 C 83.863281 37.101562 83.402344 37.601562 83.402344 38.59375 L 83.402344 41.269531 L 82.585938 41.269531 L 82.585938 36.347656 L 83.402344 36.347656 Z M 88.035156 38.800781 C 88.035156 38.292969 88.136719 37.847656 88.339844 37.472656 C 88.542969 37.085938 88.828125 36.792969 89.1875 36.582031 C 89.550781 36.371094 89.96875 36.265625 90.4375 36.265625 C 91.042969 36.265625 91.542969 36.414062 91.929688 36.707031 C 92.328125 37 92.589844 37.40625 92.714844 37.929688 L 91.832031 37.929688 C 91.75 37.628906 91.582031 37.394531 91.335938 37.21875 C 91.097656 37.046875 90.796875 36.957031 90.4375 36.957031 C 89.96875 36.957031 89.589844 37.121094 89.304688 37.445312 C 89.015625 37.761719 88.871094 38.214844 88.871094 38.800781 C 88.871094 39.394531 89.015625 39.851562 89.304688 40.175781 C 89.589844 40.5 89.96875 40.660156 90.4375 40.660156 C 90.796875 40.660156 91.097656 40.574219 91.335938 40.410156 C 91.578125 40.242188 91.742188 40 91.832031 39.691406 L 92.714844 39.691406 C 92.582031 40.191406 92.316406 40.597656 91.921875 40.902344 C 91.527344 41.203125 91.03125 41.351562 90.4375 41.351562 C 89.96875 41.351562 89.550781 41.246094 89.1875 41.035156 C 88.828125 40.828125 88.542969 40.53125 88.339844 40.148438 C 88.136719 39.765625 88.035156 39.316406 88.035156 38.800781 Z M 94.230469 35.546875 C 94.074219 35.546875 93.941406 35.496094 93.835938 35.386719 C 93.726562 35.277344 93.671875 35.148438 93.671875 34.992188 C 93.671875 34.835938 93.726562 34.703125 93.835938 34.597656 C 93.941406 34.488281 94.074219 34.433594 94.230469 34.433594 C 94.378906 34.433594 94.507812 34.488281 94.609375 34.597656 C 94.714844 34.703125 94.769531 34.835938 94.769531 34.992188 C 94.769531 35.148438 94.714844 35.277344 94.609375 35.386719 C 94.507812 35.496094 94.378906 35.546875 94.230469 35.546875 Z M 94.625 36.347656 L 94.625 41.269531 L 93.808594 41.269531 L 93.808594 36.347656 Z M 97.019531 37.023438 L 97.019531 39.921875 C 97.019531 40.164062 97.070312 40.332031 97.171875 40.433594 C 97.277344 40.53125 97.453125 40.578125 97.703125 40.578125 L 98.308594 40.578125 L 98.308594 41.269531 L 97.570312 41.269531 C 97.113281 41.269531 96.773438 41.164062 96.542969 40.957031 C 96.316406 40.746094 96.203125 40.402344 96.203125 39.921875 L 96.203125 37.023438 L 95.5625 37.023438 L 95.5625 36.347656 L 96.203125 36.347656 L 96.203125 35.109375 L 97.019531 35.109375 L 97.019531 36.347656 L 98.308594 36.347656 L 98.308594 37.023438 Z M 103.546875 36.347656 L 100.578125 43.589844 L 99.734375 43.589844 L 100.703125 41.214844 L 98.714844 36.347656 L 99.625 36.347656 L 101.171875 40.335938 L 102.703125 36.347656 Z M 103.546875 36.347656 " fill-opacity="1" fill-rule="nonzero"/><path fill="#f29f05" d="M 30 15.070312 C 30.984375 15.070312 31.960938 15.167969 32.925781 15.359375 C 33.890625 15.550781 34.832031 15.835938 35.742188 16.210938 C 36.648438 16.585938 37.515625 17.046875 38.332031 17.59375 C 39.152344 18.140625 39.910156 18.761719 40.605469 19.457031 C 41.304688 20.152344 41.925781 20.90625 42.472656 21.722656 C 43.019531 22.542969 43.480469 23.40625 43.859375 24.3125 C 44.234375 25.222656 44.519531 26.15625 44.710938 27.121094 C 44.902344 28.085938 45 29.058594 45 30.042969 C 45 31.023438 44.902344 32 44.710938 32.960938 C 44.519531 33.925781 44.234375 34.863281 43.859375 35.769531 C 43.480469 36.679688 43.019531 37.542969 42.472656 38.359375 C 41.925781 39.175781 41.304688 39.933594 40.605469 40.628906 C 39.910156 41.324219 39.152344 41.945312 38.332031 42.492188 C 37.515625 43.035156 36.648438 43.496094 35.742188 43.875 C 34.832031 44.25 33.890625 44.535156 32.925781 44.726562 C 31.960938 44.917969 30.984375 45.011719 30 45.011719 C 29.015625 45.011719 28.039062 44.917969 27.074219 44.726562 C 26.109375 44.535156 25.167969 44.25 24.257812 43.875 C 23.351562 43.496094 22.484375 43.035156 21.667969 42.492188 C 20.847656 41.945312 20.089844 41.324219 19.394531 40.628906 C 18.695312 39.933594 18.074219 39.175781 17.527344 38.359375 C 16.980469 37.542969 16.519531 36.679688 16.140625 35.769531 C 15.765625 34.863281 15.480469 33.925781 15.289062 32.960938 C 15.097656 32 15 31.023438 15 30.042969 C 15 29.058594 15.097656 28.085938 15.289062 27.121094 C 15.480469 26.15625 15.765625 25.222656 16.140625 24.3125 C 16.519531 23.40625 16.980469 22.542969 17.527344 21.722656 C 18.074219 20.90625 18.695312 20.152344 19.394531 19.457031 C 20.089844 18.761719 20.847656 18.140625 21.667969 17.59375 C 22.484375 17.046875 23.351562 16.585938 24.257812 16.210938 C 25.167969 15.835938 26.109375 15.550781 27.074219 15.359375 C 28.039062 15.167969 29.015625 15.070312 30 15.070312 Z M 30 15.070312 " fill-opacity="1" fill-rule="nonzero"/><path fill="#ffffff" d="M 30 22.835938 C 27.152344 22.835938 24.84375 24.914062 24.84375 27.46875 C 24.84375 31.585938 30 37.246094 30 37.246094 C 30 37.246094 35.15625 31.585938 35.15625 27.46875 C 35.15625 24.914062 32.847656 22.835938 30 22.835938 Z M 30 30.042969 C 29.59375 30.042969 29.191406 29.921875 28.855469 29.695312 C 28.515625 29.46875 28.25 29.148438 28.09375 28.769531 C 27.9375 28.394531 27.898438 27.980469 27.976562 27.582031 C 28.058594 27.183594 28.253906 26.816406 28.542969 26.527344 C 28.828125 26.238281 29.199219 26.042969 29.597656 25.964844 C 29.996094 25.886719 30.414062 25.925781 30.789062 26.082031 C 31.167969 26.238281 31.488281 26.5 31.714844 26.839844 C 31.941406 27.179688 32.0625 27.578125 32.0625 27.984375 C 32.0625 28.53125 31.84375 29.050781 31.457031 29.4375 C 31.070312 29.824219 30.546875 30.042969 30 30.042969 Z M 30 30.042969 " fill-opacity="1" fill-rule="nonzero"/><g clip-path="url(#4276cb6efb)"><path fill="#ffffff" d="M 53.378906 18.835938 L 146.753906 18.835938 L 146.753906 45.554688 L 53.378906 45.554688 Z M 53.378906 18.835938 " fill-opacity="1" fill-rule="nonzero"/></g><g clip-path="url(#6e05e89180)"><path fill="#ffffff" d="M 13.800781 14.195312 L 50.925781 14.195312 L 50.925781 50.195312 L 13.800781 50.195312 Z M 13.800781 14.195312 " fill-opacity="1" fill-rule="nonzero"/></g><g fill="#000000" fill-opacity="1"><g transform="translate(54.882898, 27.317296)"><g><path d="M 3.46875 -7.078125 C 4.613281 -7.078125 5.488281 -6.78125 6.09375 -6.1875 C 6.695312 -5.59375 7 -4.707031 7 -3.53125 C 7 -2.363281 6.695312 -1.484375 6.09375 -0.890625 C 5.488281 -0.296875 4.613281 0 3.46875 0 L 0.921875 0 L 0.921875 -7.078125 Z M 3.375 -1.171875 C 4.101562 -1.171875 4.648438 -1.359375 5.015625 -1.734375 C 5.378906 -2.109375 5.5625 -2.707031 5.5625 -3.53125 C 5.5625 -4.363281 5.378906 -4.960938 5.015625 -5.328125 C 4.648438 -5.703125 4.101562 -5.890625 3.375 -5.890625 L 2.3125 -5.890625 L 2.3125 -1.171875 Z M 3.375 -1.171875 "/></g></g></g><g fill="#000000" fill-opacity="1"><g transform="translate(62.43753, 27.317296)"><g><path d="M 1.4375 -5.96875 C 1.195312 -5.96875 1 -6.039062 0.84375 -6.1875 C 0.695312 -6.332031 0.625 -6.523438 0.625 -6.765625 C 0.625 -6.992188 0.695312 -7.179688 0.84375 -7.328125 C 1 -7.472656 1.195312 -7.546875 1.4375 -7.546875 C 1.59375 -7.546875 1.734375 -7.507812 1.859375 -7.4375 C 1.992188 -7.375 2.09375 -7.28125 2.15625 -7.15625 C 2.226562 -7.039062 2.265625 -6.910156 2.265625 -6.765625 C 2.265625 -6.609375 2.226562 -6.46875 2.15625 -6.34375 C 2.09375 -6.226562 1.992188 -6.132812 1.859375 -6.0625 C 1.734375 -6 1.59375 -5.96875 1.4375 -5.96875 Z M 0.765625 0 L 0.765625 -5.328125 L 2.109375 -5.328125 L 2.109375 0 Z M 0.765625 0 "/></g></g></g><g fill="#000000" fill-opacity="1"><g transform="translate(65.308581, 27.317296)"><g><path d="M 2.765625 2.265625 C 1.890625 2.265625 1.238281 2.132812 0.8125 1.875 C 0.394531 1.613281 0.1875 1.253906 0.1875 0.796875 C 0.1875 0.515625 0.273438 0.285156 0.453125 0.109375 C 0.628906 -0.0664062 0.890625 -0.1875 1.234375 -0.25 L 1.234375 -0.359375 C 1.046875 -0.460938 0.910156 -0.582031 0.828125 -0.71875 C 0.753906 -0.851562 0.71875 -1.007812 0.71875 -1.1875 C 0.71875 -1.613281 1 -1.898438 1.5625 -2.046875 L 1.5625 -2.15625 C 1.269531 -2.320312 1.050781 -2.523438 0.90625 -2.765625 C 0.757812 -3.003906 0.6875 -3.296875 0.6875 -3.640625 C 0.6875 -3.992188 0.769531 -4.304688 0.9375 -4.578125 C 1.101562 -4.847656 1.34375 -5.054688 1.65625 -5.203125 C 1.96875 -5.359375 2.34375 -5.4375 2.78125 -5.4375 C 3.226562 -5.4375 3.582031 -5.359375 3.84375 -5.203125 C 4.007812 -5.441406 4.101562 -5.71875 4.125 -6.03125 L 4.234375 -6.09375 L 5.1875 -5.859375 C 5.164062 -5.597656 5.09375 -5.378906 4.96875 -5.203125 C 4.851562 -5.035156 4.671875 -4.882812 4.421875 -4.75 L 4.421875 -4.640625 C 4.710938 -4.378906 4.859375 -4.015625 4.859375 -3.546875 C 4.859375 -3.210938 4.773438 -2.914062 4.609375 -2.65625 C 4.453125 -2.394531 4.210938 -2.1875 3.890625 -2.03125 C 3.578125 -1.882812 3.207031 -1.8125 2.78125 -1.8125 L 2.578125 -1.8125 C 2.453125 -1.820312 2.363281 -1.828125 2.3125 -1.828125 C 2.1875 -1.828125 2.085938 -1.789062 2.015625 -1.71875 C 1.953125 -1.65625 1.921875 -1.570312 1.921875 -1.46875 C 1.921875 -1.351562 1.960938 -1.265625 2.046875 -1.203125 C 2.140625 -1.140625 2.273438 -1.109375 2.453125 -1.109375 L 3.640625 -1.0625 C 4.816406 -1.019531 5.40625 -0.507812 5.40625 0.46875 C 5.40625 0.8125 5.316406 1.117188 5.140625 1.390625 C 4.972656 1.660156 4.691406 1.875 4.296875 2.03125 C 3.898438 2.1875 3.390625 2.265625 2.765625 2.265625 Z M 2.78125 -2.75 C 3.039062 -2.75 3.242188 -2.820312 3.390625 -2.96875 C 3.535156 -3.125 3.609375 -3.34375 3.609375 -3.625 C 3.609375 -3.90625 3.535156 -4.117188 3.390625 -4.265625 C 3.242188 -4.421875 3.039062 -4.5 2.78125 -4.5 C 2.519531 -4.5 2.316406 -4.421875 2.171875 -4.265625 C 2.035156 -4.117188 1.96875 -3.90625 1.96875 -3.625 C 1.96875 -3.34375 2.035156 -3.125 2.171875 -2.96875 C 2.316406 -2.820312 2.519531 -2.75 2.78125 -2.75 Z M 2.765625 1.296875 C 3.222656 1.296875 3.554688 1.226562 3.765625 1.09375 C 3.972656 0.96875 4.078125 0.800781 4.078125 0.59375 C 4.078125 0.425781 4.023438 0.300781 3.921875 0.21875 C 3.816406 0.144531 3.644531 0.101562 3.40625 0.09375 L 2.359375 0.046875 C 2.316406 0.046875 2.28125 0.0390625 2.25 0.03125 C 2.21875 0.03125 2.191406 0.03125 2.171875 0.03125 C 1.941406 0.03125 1.765625 0.078125 1.640625 0.171875 C 1.523438 0.273438 1.46875 0.410156 1.46875 0.578125 C 1.46875 0.804688 1.578125 0.984375 1.796875 1.109375 C 2.015625 1.234375 2.335938 1.296875 2.765625 1.296875 Z M 2.765625 1.296875 "/></g></g></g><g fill="#000000" fill-opacity="1"><g transform="translate(70.852511, 27.317296)"><g><path d="M 1.4375 -5.96875 C 1.195312 -5.96875 1 -6.039062 0.84375 -6.1875 C 0.695312 -6.332031 0.625 -6.523438 0.625 -6.765625 C 0.625 -6.992188 0.695312 -7.179688 0.84375 -7.328125 C 1 -7.472656 1.195312 -7.546875 1.4375 -7.546875 C 1.59375 -7.546875 1.734375 -7.507812 1.859375 -7.4375 C 1.992188 -7.375 2.09375 -7.28125 2.15625 -7.15625 C 2.226562 -7.039062 2.265625 -6.910156 2.265625 -6.765625 C 2.265625 -6.609375 2.226562 -6.46875 2.15625 -6.34375 C 2.09375 -6.226562 1.992188 -6.132812 1.859375 -6.0625 C 1.734375 -6 1.59375 -5.96875 1.4375 -5.96875 Z M 0.765625 0 L 0.765625 -5.328125 L 2.109375 -5.328125 L 2.109375 0 Z M 0.765625 0 "/></g></g></g><g fill="#000000" fill-opacity="1"><g transform="translate(73.723561, 27.317296)"><g><path d="M 3.6875 -1.265625 L 4.03125 -0.28125 C 3.882812 -0.164062 3.703125 -0.0703125 3.484375 0 C 3.265625 0.0703125 3.015625 0.109375 2.734375 0.109375 C 2.160156 0.109375 1.722656 -0.046875 1.421875 -0.359375 C 1.117188 -0.679688 0.96875 -1.140625 0.96875 -1.734375 L 0.96875 -4.28125 L 0.15625 -4.28125 L 0.15625 -5.34375 L 0.96875 -5.34375 L 0.96875 -6.375 L 2.3125 -6.59375 L 2.3125 -5.34375 L 3.828125 -5.34375 L 3.828125 -4.28125 L 2.3125 -4.28125 L 2.3125 -1.84375 C 2.3125 -1.570312 2.363281 -1.375 2.46875 -1.25 C 2.582031 -1.132812 2.742188 -1.078125 2.953125 -1.078125 C 3.191406 -1.078125 3.398438 -1.140625 3.578125 -1.265625 Z M 3.6875 -1.265625 "/></g></g></g><g fill="#000000" fill-opacity="1"><g transform="translate(77.8658, 27.317296)"><g><path d="M 2.078125 0.109375 C 1.734375 0.109375 1.4375 0.046875 1.1875 -0.078125 C 0.9375 -0.210938 0.742188 -0.398438 0.609375 -0.640625 C 0.472656 -0.878906 0.40625 -1.171875 0.40625 -1.515625 C 0.40625 -1.835938 0.472656 -2.101562 0.609375 -2.3125 C 0.742188 -2.53125 0.953125 -2.707031 1.234375 -2.84375 C 1.515625 -2.976562 1.882812 -3.082031 2.34375 -3.15625 C 2.664062 -3.207031 2.910156 -3.265625 3.078125 -3.328125 C 3.242188 -3.390625 3.351562 -3.457031 3.40625 -3.53125 C 3.46875 -3.613281 3.5 -3.710938 3.5 -3.828125 C 3.5 -4.003906 3.4375 -4.132812 3.3125 -4.21875 C 3.195312 -4.3125 3.003906 -4.359375 2.734375 -4.359375 C 2.429688 -4.359375 2.144531 -4.289062 1.875 -4.15625 C 1.613281 -4.03125 1.382812 -3.859375 1.1875 -3.640625 L 1.09375 -3.640625 L 0.53125 -4.484375 C 0.800781 -4.785156 1.128906 -5.019531 1.515625 -5.1875 C 1.910156 -5.351562 2.335938 -5.4375 2.796875 -5.4375 C 3.503906 -5.4375 4.015625 -5.285156 4.328125 -4.984375 C 4.640625 -4.679688 4.796875 -4.253906 4.796875 -3.703125 L 4.796875 -1.390625 C 4.796875 -1.148438 4.90625 -1.03125 5.125 -1.03125 C 5.195312 -1.03125 5.273438 -1.046875 5.359375 -1.078125 L 5.421875 -1.0625 L 5.515625 -0.125 C 5.441406 -0.0703125 5.335938 -0.03125 5.203125 0 C 5.078125 0.0195312 4.9375 0.03125 4.78125 0.03125 C 4.457031 0.03125 4.207031 -0.0234375 4.03125 -0.140625 C 3.851562 -0.265625 3.722656 -0.457031 3.640625 -0.71875 L 3.546875 -0.734375 C 3.285156 -0.171875 2.796875 0.109375 2.078125 0.109375 Z M 2.5 -0.90625 C 2.8125 -0.90625 3.0625 -1.007812 3.25 -1.21875 C 3.4375 -1.425781 3.53125 -1.710938 3.53125 -2.078125 L 3.53125 -2.625 L 3.4375 -2.640625 C 3.351562 -2.578125 3.242188 -2.519531 3.109375 -2.46875 C 2.984375 -2.425781 2.796875 -2.382812 2.546875 -2.34375 C 2.265625 -2.300781 2.054688 -2.21875 1.921875 -2.09375 C 1.796875 -1.976562 1.734375 -1.8125 1.734375 -1.59375 C 1.734375 -1.363281 1.800781 -1.191406 1.9375 -1.078125 C 2.070312 -0.960938 2.257812 -0.90625 2.5 -0.90625 Z M 2.5 -0.90625 "/></g></g></g><g fill="#000000" fill-opacity="1"><g transform="translate(83.487065, 27.317296)"><g><path d="M 2.21875 0.109375 C 1.738281 0.109375 1.367188 -0.0195312 1.109375 -0.28125 C 0.859375 -0.539062 0.734375 -0.9375 0.734375 -1.46875 L 0.734375 -7.484375 L 2.078125 -7.484375 L 2.078125 -1.53125 C 2.078125 -1.195312 2.210938 -1.03125 2.484375 -1.03125 C 2.554688 -1.03125 2.640625 -1.046875 2.734375 -1.078125 L 2.796875 -1.046875 L 2.921875 -0.03125 C 2.847656 0.0078125 2.75 0.0390625 2.625 0.0625 C 2.5 0.09375 2.363281 0.109375 2.21875 0.109375 Z M 2.21875 0.109375 "/></g></g></g><g fill="#000000" fill-opacity="1"><g transform="translate(86.551452, 27.317296)"><g/></g></g><g fill="#000000" fill-opacity="1"><g transform="translate(88.885993, 27.317296)"><g><path d="M 2.203125 0 L 0.921875 0 L 0.921875 -7.078125 L 2.75 -7.078125 L 4.53125 -1.875 L 4.640625 -1.875 L 6.421875 -7.078125 L 8.203125 -7.078125 L 8.203125 0 L 6.875 0 L 6.875 -4.671875 L 6.75 -4.6875 L 5.125 0 L 3.953125 0 L 2.328125 -4.6875 L 2.203125 -4.671875 Z M 2.203125 0 "/></g></g></g><g fill="#000000" fill-opacity="1"><g transform="translate(98.006652, 27.317296)"><g><path d="M 2.078125 0.109375 C 1.734375 0.109375 1.4375 0.046875 1.1875 -0.078125 C 0.9375 -0.210938 0.742188 -0.398438 0.609375 -0.640625 C 0.472656 -0.878906 0.40625 -1.171875 0.40625 -1.515625 C 0.40625 -1.835938 0.472656 -2.101562 0.609375 -2.3125 C 0.742188 -2.53125 0.953125 -2.707031 1.234375 -2.84375 C 1.515625 -2.976562 1.882812 -3.082031 2.34375 -3.15625 C 2.664062 -3.207031 2.910156 -3.265625 3.078125 -3.328125 C 3.242188 -3.390625 3.351562 -3.457031 3.40625 -3.53125 C 3.46875 -3.613281 3.5 -3.710938 3.5 -3.828125 C 3.5 -4.003906 3.4375 -4.132812 3.3125 -4.21875 C 3.195312 -4.3125 3.003906 -4.359375 2.734375 -4.359375 C 2.429688 -4.359375 2.144531 -4.289062 1.875 -4.15625 C 1.613281 -4.03125 1.382812 -3.859375 1.1875 -3.640625 L 1.09375 -3.640625 L 0.53125 -4.484375 C 0.800781 -4.785156 1.128906 -5.019531 1.515625 -5.1875 C 1.910156 -5.351562 2.335938 -5.4375 2.796875 -5.4375 C 3.503906 -5.4375 4.015625 -5.285156 4.328125 -4.984375 C 4.640625 -4.679688 4.796875 -4.253906 4.796875 -3.703125 L 4.796875 -1.390625 C 4.796875 -1.148438 4.90625 -1.03125 5.125 -1.03125 C 5.195312 -1.03125 5.273438 -1.046875 5.359375 -1.078125 L 5.421875 -1.0625 L 5.515625 -0.125 C 5.441406 -0.0703125 5.335938 -0.03125 5.203125 0 C 5.078125 0.0195312 4.9375 0.03125 4.78125 0.03125 C 4.457031 0.03125 4.207031 -0.0234375 4.03125 -0.140625 C 3.851562 -0.265625 3.722656 -0.457031 3.640625 -0.71875 L 3.546875 -0.734375 C 3.285156 -0.171875 2.796875 0.109375 2.078125 0.109375 Z M 2.5 -0.90625 C 2.8125 -0.90625 3.0625 -1.007812 3.25 -1.21875 C 3.4375 -1.425781 3.53125 -1.710938 3.53125 -2.078125 L 3.53125 -2.625 L 3.4375 -2.640625 C 3.351562 -2.578125 3.242188 -2.519531 3.109375 -2.46875 C 2.984375 -2.425781 2.796875 -2.382812 2.546875 -2.34375 C 2.265625 -2.300781 2.054688 -2.21875 1.921875 -2.09375 C 1.796875 -1.976562 1.734375 -1.8125 1.734375 -1.59375 C 1.734375 -1.363281 1.800781 -1.191406 1.9375 -1.078125 C 2.070312 -0.960938 2.257812 -0.90625 2.5 -0.90625 Z M 2.5 -0.90625 "/></g></g></g><g fill="#000000" fill-opacity="1"><g transform="translate(103.627917, 27.317296)"><g><path d="M 0.765625 0 L 0.765625 -5.328125 L 2.0625 -5.328125 L 2.0625 -4.546875 L 2.171875 -4.515625 C 2.296875 -4.816406 2.460938 -5.035156 2.671875 -5.171875 C 2.890625 -5.316406 3.144531 -5.390625 3.4375 -5.390625 C 3.75 -5.390625 3.984375 -5.335938 4.140625 -5.234375 L 3.90625 -4.078125 L 3.8125 -4.046875 C 3.71875 -4.085938 3.628906 -4.113281 3.546875 -4.125 C 3.472656 -4.144531 3.378906 -4.15625 3.265625 -4.15625 C 2.890625 -4.15625 2.601562 -4.019531 2.40625 -3.75 C 2.207031 -3.488281 2.109375 -3.070312 2.109375 -2.5 L 2.109375 0 Z M 0.765625 0 "/></g></g></g><g fill="#000000" fill-opacity="1"><g transform="translate(107.808824, 27.317296)"><g><path d="M 0.765625 0 L 0.765625 -7.484375 L 2.109375 -7.484375 L 2.109375 -3.328125 L 2.234375 -3.328125 L 3.78125 -5.328125 L 5.140625 -5.328125 L 5.140625 -5.21875 L 3.328125 -2.890625 L 5.34375 -0.125 L 5.34375 0 L 3.9375 0 L 2.234375 -2.25 L 2.109375 -2.25 L 2.109375 0 Z M 0.765625 0 "/></g></g></g><g fill="#000000" fill-opacity="1"><g transform="translate(113.159417, 27.317296)"><g><path d="M 5.265625 -2.359375 L 1.84375 -2.359375 C 1.882812 -1.898438 2.015625 -1.5625 2.234375 -1.34375 C 2.460938 -1.132812 2.769531 -1.03125 3.15625 -1.03125 C 3.46875 -1.03125 3.71875 -1.085938 3.90625 -1.203125 C 4.09375 -1.316406 4.25 -1.492188 4.375 -1.734375 L 4.46875 -1.734375 L 5.359375 -1.15625 C 5.179688 -0.78125 4.914062 -0.472656 4.5625 -0.234375 C 4.21875 -0.00390625 3.75 0.109375 3.15625 0.109375 C 2.613281 0.109375 2.140625 0.00390625 1.734375 -0.203125 C 1.328125 -0.421875 1.015625 -0.734375 0.796875 -1.140625 C 0.585938 -1.554688 0.484375 -2.066406 0.484375 -2.671875 C 0.484375 -3.273438 0.597656 -3.785156 0.828125 -4.203125 C 1.054688 -4.617188 1.363281 -4.925781 1.75 -5.125 C 2.144531 -5.332031 2.582031 -5.4375 3.0625 -5.4375 C 3.820312 -5.4375 4.398438 -5.234375 4.796875 -4.828125 C 5.203125 -4.429688 5.40625 -3.847656 5.40625 -3.078125 C 5.40625 -2.796875 5.394531 -2.578125 5.375 -2.421875 Z M 4.125 -3.234375 C 4.113281 -3.640625 4.019531 -3.929688 3.84375 -4.109375 C 3.664062 -4.296875 3.40625 -4.390625 3.0625 -4.390625 C 2.382812 -4.390625 1.988281 -4.003906 1.875 -3.234375 Z M 4.125 -3.234375 "/></g></g></g><g fill="#000000" fill-opacity="1"><g transform="translate(118.954685, 27.317296)"><g><path d="M 3.6875 -1.265625 L 4.03125 -0.28125 C 3.882812 -0.164062 3.703125 -0.0703125 3.484375 0 C 3.265625 0.0703125 3.015625 0.109375 2.734375 0.109375 C 2.160156 0.109375 1.722656 -0.046875 1.421875 -0.359375 C 1.117188 -0.679688 0.96875 -1.140625 0.96875 -1.734375 L 0.96875 -4.28125 L 0.15625 -4.28125 L 0.15625 -5.34375 L 0.96875 -5.34375 L 0.96875 -6.375 L 2.3125 -6.59375 L 2.3125 -5.34375 L 3.828125 -5.34375 L 3.828125 -4.28125 L 2.3125 -4.28125 L 2.3125 -1.84375 C 2.3125 -1.570312 2.363281 -1.375 2.46875 -1.25 C 2.582031 -1.132812 2.742188 -1.078125 2.953125 -1.078125 C 3.191406 -1.078125 3.398438 -1.140625 3.578125 -1.265625 Z M 3.6875 -1.265625 "/></g></g></g><g fill="#000000" fill-opacity="1"><g transform="translate(123.096924, 27.317296)"><g><path d="M 1.4375 -5.96875 C 1.195312 -5.96875 1 -6.039062 0.84375 -6.1875 C 0.695312 -6.332031 0.625 -6.523438 0.625 -6.765625 C 0.625 -6.992188 0.695312 -7.179688 0.84375 -7.328125 C 1 -7.472656 1.195312 -7.546875 1.4375 -7.546875 C 1.59375 -7.546875 1.734375 -7.507812 1.859375 -7.4375 C 1.992188 -7.375 2.09375 -7.28125 2.15625 -7.15625 C 2.226562 -7.039062 2.265625 -6.910156 2.265625 -6.765625 C 2.265625 -6.609375 2.226562 -6.46875 2.15625 -6.34375 C 2.09375 -6.226562 1.992188 -6.132812 1.859375 -6.0625 C 1.734375 -6 1.59375 -5.96875 1.4375 -5.96875 Z M 0.765625 0 L 0.765625 -5.328125 L 2.109375 -5.328125 L 2.109375 0 Z M 0.765625 0 "/></g></g></g><g fill="#000000" fill-opacity="1"><g transform="translate(125.967974, 27.317296)"><g><path d="M 0.765625 0 L 0.765625 -5.328125 L 2.0625 -5.328125 L 2.0625 -4.546875 L 2.15625 -4.53125 C 2.488281 -5.132812 3.023438 -5.4375 3.765625 -5.4375 C 4.390625 -5.4375 4.84375 -5.269531 5.125 -4.9375 C 5.414062 -4.601562 5.5625 -4.113281 5.5625 -3.46875 L 5.5625 0 L 4.21875 0 L 4.21875 -3.296875 C 4.21875 -3.648438 4.144531 -3.90625 4 -4.0625 C 3.863281 -4.226562 3.640625 -4.3125 3.328125 -4.3125 C 2.941406 -4.3125 2.640625 -4.1875 2.421875 -3.9375 C 2.210938 -3.6875 2.109375 -3.296875 2.109375 -2.765625 L 2.109375 0 Z M 0.765625 0 "/></g></g></g><g fill="#000000" fill-opacity="1"><g transform="translate(132.21275, 27.317296)"><g><path d="M 2.765625 2.265625 C 1.890625 2.265625 1.238281 2.132812 0.8125 1.875 C 0.394531 1.613281 0.1875 1.253906 0.1875 0.796875 C 0.1875 0.515625 0.273438 0.285156 0.453125 0.109375 C 0.628906 -0.0664062 0.890625 -0.1875 1.234375 -0.25 L 1.234375 -0.359375 C 1.046875 -0.460938 0.910156 -0.582031 0.828125 -0.71875 C 0.753906 -0.851562 0.71875 -1.007812 0.71875 -1.1875 C 0.71875 -1.613281 1 -1.898438 1.5625 -2.046875 L 1.5625 -2.15625 C 1.269531 -2.320312 1.050781 -2.523438 0.90625 -2.765625 C 0.757812 -3.003906 0.6875 -3.296875 0.6875 -3.640625 C 0.6875 -3.992188 0.769531 -4.304688 0.9375 -4.578125 C 1.101562 -4.847656 1.34375 -5.054688 1.65625 -5.203125 C 1.96875 -5.359375 2.34375 -5.4375 2.78125 -5.4375 C 3.226562 -5.4375 3.582031 -5.359375 3.84375 -5.203125 C 4.007812 -5.441406 4.101562 -5.71875 4.125 -6.03125 L 4.234375 -6.09375 L 5.1875 -5.859375 C 5.164062 -5.597656 5.09375 -5.378906 4.96875 -5.203125 C 4.851562 -5.035156 4.671875 -4.882812 4.421875 -4.75 L 4.421875 -4.640625 C 4.710938 -4.378906 4.859375 -4.015625 4.859375 -3.546875 C 4.859375 -3.210938 4.773438 -2.914062 4.609375 -2.65625 C 4.453125 -2.394531 4.210938 -2.1875 3.890625 -2.03125 C 3.578125 -1.882812 3.207031 -1.8125 2.78125 -1.8125 L 2.578125 -1.8125 C 2.453125 -1.820312 2.363281 -1.828125 2.3125 -1.828125 C 2.1875 -1.828125 2.085938 -1.789062 2.015625 -1.71875 C 1.953125 -1.65625 1.921875 -1.570312 1.921875 -1.46875 C 1.921875 -1.351562 1.960938 -1.265625 2.046875 -1.203125 C 2.140625 -1.140625 2.273438 -1.109375 2.453125 -1.109375 L 3.640625 -1.0625 C 4.816406 -1.019531 5.40625 -0.507812 5.40625 0.46875 C 5.40625 0.8125 5.316406 1.117188 5.140625 1.390625 C 4.972656 1.660156 4.691406 1.875 4.296875 2.03125 C 3.898438 2.1875 3.390625 2.265625 2.765625 2.265625 Z M 2.78125 -2.75 C 3.039062 -2.75 3.242188 -2.820312 3.390625 -2.96875 C 3.535156 -3.125 3.609375 -3.34375 3.609375 -3.625 C 3.609375 -3.90625 3.535156 -4.117188 3.390625 -4.265625 C 3.242188 -4.421875 3.039062 -4.5 2.78125 -4.5 C 2.519531 -4.5 2.316406 -4.421875 2.171875 -4.265625 C 2.035156 -4.117188 1.96875 -3.90625 1.96875 -3.625 C 1.96875 -3.34375 2.035156 -3.125 2.171875 -2.96875 C 2.316406 -2.820312 2.519531 -2.75 2.78125 -2.75 Z M 2.765625 1.296875 C 3.222656 1.296875 3.554688 1.226562 3.765625 1.09375 C 3.972656 0.96875 4.078125 0.800781 4.078125 0.59375 C 4.078125 0.425781 4.023438 0.300781 3.921875 0.21875 C 3.816406 0.144531 3.644531 0.101562 3.40625 0.09375 L 2.359375 0.046875 C 2.316406 0.046875 2.28125 0.0390625 2.25 0.03125 C 2.21875 0.03125 2.191406 0.03125 2.171875 0.03125 C 1.941406 0.03125 1.765625 0.078125 1.640625 0.171875 C 1.523438 0.273438 1.46875 0.410156 1.46875 0.578125 C 1.46875 0.804688 1.578125 0.984375 1.796875 1.109375 C 2.015625 1.234375 2.335938 1.296875 2.765625 1.296875 Z M 2.765625 1.296875 "/></g></g></g><g fill="#787878" fill-opacity="1"><g transform="translate(56.35911, 35.739803)"><g><path d="M 0.9375 0 L 0.375 0 L 0.375 -2.859375 L 0.9375 -2.859375 Z M 0.9375 0 "/></g></g><g transform="translate(57.667703, 35.739803)"><g><path d="M 0.3125 0 L 0.3125 -2.15625 L 0.828125 -2.15625 L 0.828125 -1.84375 L 0.875 -1.828125 C 1.007812 -2.078125 1.226562 -2.203125 1.53125 -2.203125 C 1.769531 -2.203125 1.945312 -2.132812 2.0625 -2 C 2.1875 -1.863281 2.25 -1.664062 2.25 -1.40625 L 2.25 0 L 1.703125 0 L 1.703125 -1.328125 C 1.703125 -1.472656 1.671875 -1.578125 1.609375 -1.640625 C 1.554688 -1.703125 1.46875 -1.734375 1.34375 -1.734375 C 1.1875 -1.734375 1.066406 -1.679688 0.984375 -1.578125 C 0.898438 -1.484375 0.859375 -1.328125 0.859375 -1.109375 L 0.859375 0 Z M 0.3125 0 "/></g></g><g transform="translate(60.191139, 35.739803)"><g><path d="M 0.3125 0 L 0.3125 -2.15625 L 0.828125 -2.15625 L 0.828125 -1.84375 L 0.875 -1.828125 C 1.007812 -2.078125 1.226562 -2.203125 1.53125 -2.203125 C 1.769531 -2.203125 1.945312 -2.132812 2.0625 -2 C 2.1875 -1.863281 2.25 -1.664062 2.25 -1.40625 L 2.25 0 L 1.703125 0 L 1.703125 -1.328125 C 1.703125 -1.472656 1.671875 -1.578125 1.609375 -1.640625 C 1.554688 -1.703125 1.46875 -1.734375 1.34375 -1.734375 C 1.1875 -1.734375 1.066406 -1.679688 0.984375 -1.578125 C 0.898438 -1.484375 0.859375 -1.328125 0.859375 -1.109375 L 0.859375 0 Z M 0.3125 0 "/></g></g><g transform="translate(62.714575, 35.739803)"><g><path d="M 1.25 0.046875 C 1.039062 0.046875 0.851562 0.00390625 0.6875 -0.078125 C 0.53125 -0.171875 0.40625 -0.300781 0.3125 -0.46875 C 0.226562 -0.632812 0.1875 -0.835938 0.1875 -1.078125 C 0.1875 -1.316406 0.226562 -1.519531 0.3125 -1.6875 C 0.40625 -1.851562 0.53125 -1.976562 0.6875 -2.0625 C 0.851562 -2.15625 1.039062 -2.203125 1.25 -2.203125 C 1.457031 -2.203125 1.640625 -2.15625 1.796875 -2.0625 C 1.960938 -1.976562 2.085938 -1.851562 2.171875 -1.6875 C 2.265625 -1.519531 2.3125 -1.316406 2.3125 -1.078125 C 2.3125 -0.835938 2.265625 -0.632812 2.171875 -0.46875 C 2.085938 -0.300781 1.960938 -0.171875 1.796875 -0.078125 C 1.640625 0.00390625 1.457031 0.046875 1.25 0.046875 Z M 1.25 -0.421875 C 1.582031 -0.421875 1.75 -0.640625 1.75 -1.078125 C 1.75 -1.304688 1.707031 -1.472656 1.625 -1.578125 C 1.539062 -1.679688 1.414062 -1.734375 1.25 -1.734375 C 0.914062 -1.734375 0.75 -1.515625 0.75 -1.078125 C 0.75 -0.640625 0.914062 -0.421875 1.25 -0.421875 Z M 1.25 -0.421875 "/></g></g><g transform="translate(65.218479, 35.739803)"><g><path d="M 1.484375 0 L 0.84375 0 L 0.046875 -2.15625 L 0.609375 -2.15625 L 1.140625 -0.625 L 1.1875 -0.625 L 1.71875 -2.15625 L 2.28125 -2.15625 Z M 1.484375 0 "/></g></g><g transform="translate(67.534884, 35.739803)"><g><path d="M 0.84375 0.046875 C 0.707031 0.046875 0.585938 0.0195312 0.484375 -0.03125 C 0.378906 -0.0820312 0.300781 -0.15625 0.25 -0.25 C 0.195312 -0.351562 0.171875 -0.472656 0.171875 -0.609375 C 0.171875 -0.742188 0.195312 -0.851562 0.25 -0.9375 C 0.300781 -1.019531 0.382812 -1.085938 0.5 -1.140625 C 0.613281 -1.203125 0.765625 -1.25 0.953125 -1.28125 C 1.078125 -1.300781 1.171875 -1.320312 1.234375 -1.34375 C 1.304688 -1.363281 1.351562 -1.390625 1.375 -1.421875 C 1.40625 -1.453125 1.421875 -1.492188 1.421875 -1.546875 C 1.421875 -1.617188 1.394531 -1.671875 1.34375 -1.703125 C 1.289062 -1.742188 1.210938 -1.765625 1.109375 -1.765625 C 0.984375 -1.765625 0.863281 -1.734375 0.75 -1.671875 C 0.644531 -1.617188 0.554688 -1.550781 0.484375 -1.46875 L 0.4375 -1.46875 L 0.21875 -1.8125 C 0.320312 -1.9375 0.453125 -2.03125 0.609375 -2.09375 C 0.765625 -2.164062 0.9375 -2.203125 1.125 -2.203125 C 1.414062 -2.203125 1.625 -2.140625 1.75 -2.015625 C 1.875 -1.890625 1.9375 -1.71875 1.9375 -1.5 L 1.9375 -0.5625 C 1.9375 -0.46875 1.976562 -0.421875 2.0625 -0.421875 C 2.09375 -0.421875 2.125 -0.425781 2.15625 -0.4375 L 2.1875 -0.421875 L 2.234375 -0.046875 C 2.203125 -0.0234375 2.160156 -0.0078125 2.109375 0 C 2.054688 0.0078125 1.992188 0.015625 1.921875 0.015625 C 1.796875 0.015625 1.695312 -0.0078125 1.625 -0.0625 C 1.550781 -0.113281 1.5 -0.191406 1.46875 -0.296875 L 1.4375 -0.296875 C 1.320312 -0.0664062 1.125 0.046875 0.84375 0.046875 Z M 1.015625 -0.359375 C 1.140625 -0.359375 1.238281 -0.398438 1.3125 -0.484375 C 1.382812 -0.566406 1.421875 -0.6875 1.421875 -0.84375 L 1.421875 -1.0625 L 1.390625 -1.0625 C 1.359375 -1.039062 1.316406 -1.019531 1.265625 -1 C 1.210938 -0.976562 1.132812 -0.960938 1.03125 -0.953125 C 0.914062 -0.929688 0.832031 -0.894531 0.78125 -0.84375 C 0.726562 -0.800781 0.703125 -0.734375 0.703125 -0.640625 C 0.703125 -0.554688 0.726562 -0.488281 0.78125 -0.4375 C 0.832031 -0.382812 0.910156 -0.359375 1.015625 -0.359375 Z M 1.015625 -0.359375 "/></g></g><g transform="translate(69.806366, 35.739803)"><g><path d="M 1.484375 -0.515625 L 1.625 -0.109375 C 1.570312 -0.0664062 1.5 -0.03125 1.40625 0 C 1.320312 0.03125 1.222656 0.046875 1.109375 0.046875 C 0.867188 0.046875 0.6875 -0.015625 0.5625 -0.140625 C 0.445312 -0.273438 0.390625 -0.460938 0.390625 -0.703125 L 0.390625 -1.734375 L 0.0625 -1.734375 L 0.0625 -2.15625 L 0.390625 -2.15625 L 0.390625 -2.578125 L 0.9375 -2.671875 L 0.9375 -2.15625 L 1.546875 -2.15625 L 1.546875 -1.734375 L 0.9375 -1.734375 L 0.9375 -0.75 C 0.9375 -0.632812 0.957031 -0.550781 1 -0.5 C 1.039062 -0.457031 1.101562 -0.4375 1.1875 -0.4375 C 1.289062 -0.4375 1.378906 -0.460938 1.453125 -0.515625 Z M 1.484375 -0.515625 "/></g></g><g transform="translate(71.480193, 35.739803)"><g><path d="M 0.578125 -2.40625 C 0.484375 -2.40625 0.40625 -2.4375 0.34375 -2.5 C 0.28125 -2.5625 0.25 -2.640625 0.25 -2.734375 C 0.25 -2.828125 0.28125 -2.898438 0.34375 -2.953125 C 0.40625 -3.015625 0.484375 -3.046875 0.578125 -3.046875 C 0.640625 -3.046875 0.695312 -3.03125 0.75 -3 C 0.800781 -2.976562 0.84375 -2.941406 0.875 -2.890625 C 0.90625 -2.847656 0.921875 -2.796875 0.921875 -2.734375 C 0.921875 -2.671875 0.90625 -2.613281 0.875 -2.5625 C 0.84375 -2.519531 0.800781 -2.484375 0.75 -2.453125 C 0.695312 -2.421875 0.640625 -2.40625 0.578125 -2.40625 Z M 0.3125 0 L 0.3125 -2.15625 L 0.859375 -2.15625 L 0.859375 0 Z M 0.3125 0 "/></g></g><g transform="translate(72.640349, 35.739803)"><g><path d="M 1.25 0.046875 C 1.039062 0.046875 0.851562 0.00390625 0.6875 -0.078125 C 0.53125 -0.171875 0.40625 -0.300781 0.3125 -0.46875 C 0.226562 -0.632812 0.1875 -0.835938 0.1875 -1.078125 C 0.1875 -1.316406 0.226562 -1.519531 0.3125 -1.6875 C 0.40625 -1.851562 0.53125 -1.976562 0.6875 -2.0625 C 0.851562 -2.15625 1.039062 -2.203125 1.25 -2.203125 C 1.457031 -2.203125 1.640625 -2.15625 1.796875 -2.0625 C 1.960938 -1.976562 2.085938 -1.851562 2.171875 -1.6875 C 2.265625 -1.519531 2.3125 -1.316406 2.3125 -1.078125 C 2.3125 -0.835938 2.265625 -0.632812 2.171875 -0.46875 C 2.085938 -0.300781 1.960938 -0.171875 1.796875 -0.078125 C 1.640625 0.00390625 1.457031 0.046875 1.25 0.046875 Z M 1.25 -0.421875 C 1.582031 -0.421875 1.75 -0.640625 1.75 -1.078125 C 1.75 -1.304688 1.707031 -1.472656 1.625 -1.578125 C 1.539062 -1.679688 1.414062 -1.734375 1.25 -1.734375 C 0.914062 -1.734375 0.75 -1.515625 0.75 -1.078125 C 0.75 -0.640625 0.914062 -0.421875 1.25 -0.421875 Z M 1.25 -0.421875 "/></g></g><g transform="translate(75.144253, 35.739803)"><g><path d="M 0.3125 0 L 0.3125 -2.15625 L 0.828125 -2.15625 L 0.828125 -1.84375 L 0.875 -1.828125 C 1.007812 -2.078125 1.226562 -2.203125 1.53125 -2.203125 C 1.769531 -2.203125 1.945312 -2.132812 2.0625 -2 C 2.1875 -1.863281 2.25 -1.664062 2.25 -1.40625 L 2.25 0 L 1.703125 0 L 1.703125 -1.328125 C 1.703125 -1.472656 1.671875 -1.578125 1.609375 -1.640625 C 1.554688 -1.703125 1.46875 -1.734375 1.34375 -1.734375 C 1.1875 -1.734375 1.066406 -1.679688 0.984375 -1.578125 C 0.898438 -1.484375 0.859375 -1.328125 0.859375 -1.109375 L 0.859375 0 Z M 0.3125 0 "/></g></g><g transform="translate(77.667689, 35.739803)"><g/></g><g transform="translate(78.611047, 35.739803)"><g><path d="M 1.40625 -2.859375 C 1.863281 -2.859375 2.210938 -2.738281 2.453125 -2.5 C 2.703125 -2.257812 2.828125 -1.898438 2.828125 -1.421875 C 2.828125 -0.953125 2.703125 -0.597656 2.453125 -0.359375 C 2.210938 -0.117188 1.863281 0 1.40625 0 L 0.375 0 L 0.375 -2.859375 Z M 1.359375 -0.46875 C 1.660156 -0.46875 1.882812 -0.539062 2.03125 -0.6875 C 2.175781 -0.84375 2.25 -1.085938 2.25 -1.421875 C 2.25 -1.765625 2.175781 -2.007812 2.03125 -2.15625 C 1.882812 -2.300781 1.660156 -2.375 1.359375 -2.375 L 0.9375 -2.375 L 0.9375 -0.46875 Z M 1.359375 -0.46875 "/></g></g><g transform="translate(81.663779, 35.739803)"><g><path d="M 1.25 0.046875 C 1.039062 0.046875 0.851562 0.00390625 0.6875 -0.078125 C 0.53125 -0.171875 0.40625 -0.300781 0.3125 -0.46875 C 0.226562 -0.632812 0.1875 -0.835938 0.1875 -1.078125 C 0.1875 -1.316406 0.226562 -1.519531 0.3125 -1.6875 C 0.40625 -1.851562 0.53125 -1.976562 0.6875 -2.0625 C 0.851562 -2.15625 1.039062 -2.203125 1.25 -2.203125 C 1.457031 -2.203125 1.640625 -2.15625 1.796875 -2.0625 C 1.960938 -1.976562 2.085938 -1.851562 2.171875 -1.6875 C 2.265625 -1.519531 2.3125 -1.316406 2.3125 -1.078125 C 2.3125 -0.835938 2.265625 -0.632812 2.171875 -0.46875 C 2.085938 -0.300781 1.960938 -0.171875 1.796875 -0.078125 C 1.640625 0.00390625 1.457031 0.046875 1.25 0.046875 Z M 1.25 -0.421875 C 1.582031 -0.421875 1.75 -0.640625 1.75 -1.078125 C 1.75 -1.304688 1.707031 -1.472656 1.625 -1.578125 C 1.539062 -1.679688 1.414062 -1.734375 1.25 -1.734375 C 0.914062 -1.734375 0.75 -1.515625 0.75 -1.078125 C 0.75 -0.640625 0.914062 -0.421875 1.25 -0.421875 Z M 1.25 -0.421875 "/></g></g><g transform="translate(84.167684, 35.739803)"><g/></g><g transform="translate(85.111043, 35.739803)"><g><path d="M 1.359375 0 L 0.734375 0 L 0.078125 -2.859375 L 0.640625 -2.859375 L 1.078125 -0.84375 L 1.125 -0.84375 L 1.640625 -2.859375 L 2.109375 -2.859375 L 2.640625 -0.84375 L 2.6875 -0.84375 L 3.125 -2.859375 L 3.65625 -2.859375 L 3.015625 0 L 2.375 0 L 1.875 -1.84375 L 1.84375 -1.84375 Z M 1.359375 0 "/></g></g><g transform="translate(88.849321, 35.739803)"><g><path d="M 1.25 0.046875 C 1.039062 0.046875 0.851562 0.00390625 0.6875 -0.078125 C 0.53125 -0.171875 0.40625 -0.300781 0.3125 -0.46875 C 0.226562 -0.632812 0.1875 -0.835938 0.1875 -1.078125 C 0.1875 -1.316406 0.226562 -1.519531 0.3125 -1.6875 C 0.40625 -1.851562 0.53125 -1.976562 0.6875 -2.0625 C 0.851562 -2.15625 1.039062 -2.203125 1.25 -2.203125 C 1.457031 -2.203125 1.640625 -2.15625 1.796875 -2.0625 C 1.960938 -1.976562 2.085938 -1.851562 2.171875 -1.6875 C 2.265625 -1.519531 2.3125 -1.316406 2.3125 -1.078125 C 2.3125 -0.835938 2.265625 -0.632812 2.171875 -0.46875 C 2.085938 -0.300781 1.960938 -0.171875 1.796875 -0.078125 C 1.640625 0.00390625 1.457031 0.046875 1.25 0.046875 Z M 1.25 -0.421875 C 1.582031 -0.421875 1.75 -0.640625 1.75 -1.078125 C 1.75 -1.304688 1.707031 -1.472656 1.625 -1.578125 C 1.539062 -1.679688 1.414062 -1.734375 1.25 -1.734375 C 0.914062 -1.734375 0.75 -1.515625 0.75 -1.078125 C 0.75 -0.640625 0.914062 -0.421875 1.25 -0.421875 Z M 1.25 -0.421875 "/></g></g><g transform="translate(91.353225, 35.739803)"><g><path d="M 0.3125 0 L 0.3125 -2.15625 L 0.84375 -2.15625 L 0.84375 -1.828125 L 0.875 -1.828125 C 0.925781 -1.941406 0.992188 -2.023438 1.078125 -2.078125 C 1.160156 -2.140625 1.265625 -2.171875 1.390625 -2.171875 C 1.515625 -2.171875 1.609375 -2.148438 1.671875 -2.109375 L 1.578125 -1.640625 L 1.53125 -1.640625 C 1.5 -1.648438 1.46875 -1.65625 1.4375 -1.65625 C 1.40625 -1.664062 1.363281 -1.671875 1.3125 -1.671875 C 1.164062 -1.671875 1.050781 -1.617188 0.96875 -1.515625 C 0.894531 -1.410156 0.859375 -1.242188 0.859375 -1.015625 L 0.859375 0 Z M 0.3125 0 "/></g></g><g transform="translate(93.042677, 35.739803)"><g><path d="M 0.3125 0 L 0.3125 -3.015625 L 0.859375 -3.015625 L 0.859375 -1.34375 L 0.90625 -1.34375 L 1.53125 -2.15625 L 2.078125 -2.15625 L 2.078125 -2.109375 L 1.34375 -1.171875 L 2.15625 -0.046875 L 2.15625 0 L 1.59375 0 L 0.90625 -0.90625 L 0.859375 -0.90625 L 0.859375 0 Z M 0.3125 0 "/></g></g></g><g clip-path="url(#72a1a4c778)"><path fill="#000000" d="M 13.453125 21.339844 L 10.015625 17.898438 L 14.316406 17.039062 L 15.175781 12.742188 L 18.613281 16.179688 L 18.613281 20.730469 L 24.734375 26.851562 L 25.492188 23.058594 L 27.210938 29.9375 L 20.332031 28.214844 L 24.125 27.457031 L 18.003906 21.339844 Z M 27.210938 33.375 C 25.644531 33.375 24.335938 32.320312 23.921875 30.886719 L 20.335938 29.988281 C 20.363281 33.761719 23.429688 36.8125 27.210938 36.8125 C 31.007812 36.8125 34.089844 33.734375 34.089844 29.9375 C 34.089844 26.15625 31.039062 23.089844 27.265625 23.058594 L 28.160156 26.644531 C 29.59375 27.0625 30.648438 28.367188 30.648438 29.9375 C 30.648438 31.835938 29.109375 33.375 27.210938 33.375 Z M 17.902344 23.058594 L 15.308594 23.058594 C 14.136719 25.082031 13.453125 27.425781 13.453125 29.9375 C 13.453125 37.53125 19.613281 43.691406 27.210938 43.691406 C 34.808594 43.691406 40.96875 37.53125 40.96875 29.9375 C 40.96875 22.339844 34.808594 16.179688 27.210938 16.179688 C 24.703125 16.179688 22.359375 16.863281 20.332031 18.035156 L 20.332031 20.625 L 21.238281 21.53125 C 22.925781 20.332031 24.984375 19.617188 27.210938 19.617188 C 32.910156 19.617188 37.527344 24.238281 37.527344 29.9375 C 37.527344 35.632812 32.910156 40.253906 27.210938 40.253906 C 21.511719 40.253906 16.894531 35.632812 16.894531 29.9375 C 16.894531 27.707031 17.605469 25.652344 18.808594 23.964844 Z M 27.210938 12.3125 C 24.394531 12.3125 21.621094 12.992188 19.136719 14.273438 L 19.773438 14.90625 C 22.074219 13.769531 24.621094 13.171875 27.210938 13.171875 C 36.453125 13.171875 43.976562 20.691406 43.976562 29.9375 C 43.976562 39.179688 36.453125 46.699219 27.210938 46.699219 C 17.96875 46.699219 10.445312 39.179688 10.445312 29.9375 C 10.445312 27.347656 11.042969 24.796875 12.183594 22.496094 L 11.546875 21.863281 C 10.265625 24.347656 9.585938 27.117188 9.585938 29.9375 C 9.585938 39.652344 17.492188 47.5625 27.210938 47.5625 C 36.929688 47.5625 44.835938 39.652344 44.835938 29.9375 C 44.835938 20.21875 36.929688 12.3125 27.210938 12.3125 Z M 27.210938 12.3125 " fill-opacity="1" fill-rule="nonzero"/></g></svg>