<svg xmlns="http://www.w3.org/2000/svg" xmlns:xlink="http://www.w3.org/1999/xlink" width="300" zoomAndPan="magnify" viewBox="0 0 224.87999 115.499997" height="154" preserveAspectRatio="xMidYMid meet" version="1.0"><defs><clipPath id="94787512e8"><path d="M 53.160156 9.003906 L 171.886719 9.003906 L 171.886719 114.992188 L 53.160156 114.992188 Z M 53.160156 9.003906 " clip-rule="nonzero"/></clipPath><clipPath id="955d816d5e"><path d="M 153.085938 38.824219 L 153.796875 38.824219 L 153.796875 39.535156 L 153.085938 39.535156 Z M 153.085938 38.824219 " clip-rule="nonzero"/></clipPath><clipPath id="340f765ee2"><path d="M 153.640625 39.339844 L 153.417969 38.984375 L 153.640625 39.320312 Z M 153.640625 39.339844 " clip-rule="nonzero"/></clipPath><clipPath id="98fdecfa9e"><path d="M 153.4375 39.410156 L 153.738281 39.304688 L 153.617188 38.914062 L 153.320312 39.019531 Z M 153.4375 39.410156 " clip-rule="nonzero"/></clipPath><linearGradient x1="0.505621" gradientTransform="matrix(-5.236261, -16.979994, 16.832706, -5.79237, 156.239308, 47.942571)" y1="0" x2="0.528596" gradientUnits="userSpaceOnUse" y2="0" id="92b38576ac"><stop stop-opacity="1" stop-color="rgb(65.499878%, 18.798828%, 12.5%)" offset="0"/><stop stop-opacity="1" stop-color="rgb(65.499878%, 18.798828%, 12.5%)" offset="0.5"/><stop stop-opacity="1" stop-color="rgb(65.499878%, 18.605042%, 12.5%)" offset="1"/></linearGradient><clipPath id="341a8261a2"><path d="M 92.726562 5.964844 L 112.78125 5.964844 L 112.78125 46 L 92.726562 46 Z M 92.726562 5.964844 " clip-rule="nonzero"/></clipPath><clipPath id="2aab109008"><path d="M 92.726562 38.78125 L 92.726562 38.71875 C 92.726562 38.695312 92.734375 38.671875 92.742188 38.648438 L 92.742188 34.246094 L 92.726562 6 C 92.773438 6.191406 92.957031 6.367188 93.277344 6.535156 L 101.652344 11.363281 C 102.375 11.777344 103.097656 11.78125 103.820312 11.378906 L 108.160156 8.878906 L 108.175781 8.878906 L 108.921875 8.433594 L 108.90625 8.414062 L 112.246094 6.515625 C 112.601562 6.304688 112.777344 6.121094 112.78125 5.964844 L 112.78125 30.980469 L 110.808594 32.113281 L 110.824219 32.113281 L 108.390625 33.535156 C 108.058594 33.726562 107.875 33.90625 107.839844 34.085938 C 107.839844 34.097656 107.839844 34.113281 107.839844 34.136719 C 107.828125 34.160156 107.820312 34.191406 107.820312 34.226562 L 107.820312 34.246094 L 107.839844 34.261719 L 107.839844 43.324219 L 103.800781 45.625 C 103.078125 46.0625 102.355469 46.066406 101.632812 45.640625 L 93.257812 40.832031 C 92.929688 40.636719 92.753906 40.449219 92.726562 40.261719 L 92.726562 40.171875 C 92.726562 40.152344 92.734375 40.128906 92.742188 40.101562 L 92.726562 39.144531 L 92.726562 38.824219 L 92.742188 38.84375 C 92.734375 38.820312 92.730469 38.800781 92.726562 38.78125 " clip-rule="nonzero"/></clipPath><linearGradient x1="0.00440066" gradientTransform="matrix(-20.269398, 0, 0, -20.237525, 112.870261, 25.961426)" y1="0" x2="0.993847" gradientUnits="userSpaceOnUse" y2="0" id="280f7f0168"><stop stop-opacity="1" stop-color="rgb(38.398743%, 55.299377%, 81.599426%)" offset="0"/><stop stop-opacity="1" stop-color="rgb(38.398743%, 55.299377%, 81.599426%)" offset="0.25"/><stop stop-opacity="1" stop-color="rgb(38.398743%, 55.299377%, 81.599426%)" offset="0.3125"/><stop stop-opacity="1" stop-color="rgb(38.398743%, 55.299377%, 81.599426%)" offset="0.34375"/><stop stop-opacity="1" stop-color="rgb(38.787842%, 55.487061%, 81.799316%)" offset="0.347656"/><stop stop-opacity="1" stop-color="rgb(39.176941%, 55.67627%, 81.999207%)" offset="0.351563"/><stop stop-opacity="1" stop-color="rgb(39.416504%, 56.115723%, 82.199097%)" offset="0.355469"/><stop stop-opacity="1" stop-color="rgb(39.657593%, 56.556702%, 82.398987%)" offset="0.359375"/><stop stop-opacity="1" stop-color="rgb(39.846802%, 56.747437%, 82.548523%)" offset="0.367188"/><stop stop-opacity="1" stop-color="rgb(40.428162%, 57.278442%, 82.899475%)" offset="0.371094"/><stop stop-opacity="1" stop-color="rgb(40.818787%, 57.618713%, 83.099365%)" offset="0.375"/><stop stop-opacity="1" stop-color="rgb(41.209412%, 57.809448%, 83.099365%)" offset="0.378906"/><stop stop-opacity="1" stop-color="rgb(41.600037%, 58.000183%, 83.099365%)" offset="0.382813"/><stop stop-opacity="1" stop-color="rgb(42.132568%, 58.389282%, 83.299255%)" offset="0.386719"/><stop stop-opacity="1" stop-color="rgb(42.666626%, 58.779907%, 83.499146%)" offset="0.390625"/><stop stop-opacity="1" stop-color="rgb(43.083191%, 59.220886%, 83.729553%)" offset="0.394531"/><stop stop-opacity="1" stop-color="rgb(43.499756%, 59.661865%, 83.961487%)" offset="0.398438"/><stop stop-opacity="1" stop-color="rgb(43.721008%, 60.050964%, 84.150696%)" offset="0.402344"/><stop stop-opacity="1" stop-color="rgb(43.942261%, 60.441589%, 84.341431%)" offset="0.40625"/><stop stop-opacity="1" stop-color="rgb(44.13147%, 60.643005%, 84.532166%)" offset="0.410156"/><stop stop-opacity="1" stop-color="rgb(44.322205%, 60.845947%, 84.7229%)" offset="0.414063"/><stop stop-opacity="1" stop-color="rgb(44.71283%, 61.424255%, 84.912109%)" offset="0.417969"/><stop stop-opacity="1" stop-color="rgb(45.103455%, 62.004089%, 85.102844%)" offset="0.421875"/><stop stop-opacity="1" stop-color="rgb(45.49408%, 62.200928%, 85.301208%)" offset="0.425781"/><stop stop-opacity="1" stop-color="rgb(45.884705%, 62.399292%, 85.499573%)" offset="0.429688"/><stop stop-opacity="1" stop-color="rgb(46.27533%, 62.731934%, 85.682678%)" offset="0.433594"/><stop stop-opacity="1" stop-color="rgb(46.665955%, 63.064575%, 85.865784%)" offset="0.4375"/><stop stop-opacity="1" stop-color="rgb(46.905518%, 63.505554%, 86.082458%)" offset="0.441406"/><stop stop-opacity="1" stop-color="rgb(47.146606%, 63.946533%, 86.299133%)" offset="0.445313"/><stop stop-opacity="1" stop-color="rgb(47.50061%, 64.537048%, 86.512756%)" offset="0.449219"/><stop stop-opacity="1" stop-color="rgb(47.854614%, 65.127563%, 86.726379%)" offset="0.453125"/><stop stop-opacity="1" stop-color="rgb(48.431396%, 65.516663%, 86.917114%)" offset="0.457031"/><stop stop-opacity="1" stop-color="rgb(49.008179%, 65.907288%, 87.107849%)" offset="0.460938"/><stop stop-opacity="1" stop-color="rgb(49.397278%, 66.297913%, 87.303162%)" offset="0.464844"/><stop stop-opacity="1" stop-color="rgb(49.787903%, 66.688538%, 87.5%)" offset="0.46875"/><stop stop-opacity="1" stop-color="rgb(50.363159%, 67.079163%, 87.637329%)" offset="0.472656"/><stop stop-opacity="1" stop-color="rgb(50.939941%, 67.469788%, 87.776184%)" offset="0.476563"/><stop stop-opacity="1" stop-color="rgb(51.394653%, 67.658997%, 87.986755%)" offset="0.480469"/><stop stop-opacity="1" stop-color="rgb(51.849365%, 67.849731%, 88.198853%)" offset="0.484375"/><stop stop-opacity="1" stop-color="rgb(52.052307%, 68.240356%, 88.214111%)" offset="0.488281"/><stop stop-opacity="1" stop-color="rgb(52.255249%, 68.630981%, 88.230896%)" offset="0.492188"/><stop stop-opacity="1" stop-color="rgb(52.783203%, 69.021606%, 88.421631%)" offset="0.496094"/><stop stop-opacity="1" stop-color="rgb(53.311157%, 69.412231%, 88.612366%)" offset="0.5"/><stop stop-opacity="1" stop-color="rgb(53.701782%, 69.801331%, 88.806152%)" offset="0.503906"/><stop stop-opacity="1" stop-color="rgb(54.092407%, 70.191956%, 88.999939%)" offset="0.507812"/><stop stop-opacity="1" stop-color="rgb(54.483032%, 70.38269%, 89.186096%)" offset="0.511719"/><stop stop-opacity="1" stop-color="rgb(54.873657%, 70.573425%, 89.373779%)" offset="0.515625"/><stop stop-opacity="1" stop-color="rgb(55.31311%, 71.012878%, 89.413452%)" offset="0.519531"/><stop stop-opacity="1" stop-color="rgb(55.754089%, 71.453857%, 89.454651%)" offset="0.523438"/><stop stop-opacity="1" stop-color="rgb(56.144714%, 71.644592%, 89.627075%)" offset="0.527344"/><stop stop-opacity="1" stop-color="rgb(56.535339%, 71.835327%, 89.7995%)" offset="0.53125"/><stop stop-opacity="1" stop-color="rgb(56.922913%, 72.175598%, 89.99939%)" offset="0.535156"/><stop stop-opacity="1" stop-color="rgb(57.312012%, 72.515869%, 90.19928%)" offset="0.539062"/><stop stop-opacity="1" stop-color="rgb(57.653809%, 72.906494%, 90.19928%)" offset="0.542969"/><stop stop-opacity="1" stop-color="rgb(57.997131%, 73.297119%, 90.19928%)" offset="0.546875"/><stop stop-opacity="1" stop-color="rgb(58.38623%, 73.486328%, 90.39917%)" offset="0.550781"/><stop stop-opacity="1" stop-color="rgb(58.776855%, 73.677063%, 90.59906%)" offset="0.554688"/><stop stop-opacity="1" stop-color="rgb(59.16748%, 74.067688%, 90.777588%)" offset="0.558594"/><stop stop-opacity="1" stop-color="rgb(59.558105%, 74.458313%, 90.957642%)" offset="0.5625"/><stop stop-opacity="1" stop-color="rgb(59.997559%, 74.697876%, 90.997314%)" offset="0.566406"/><stop stop-opacity="1" stop-color="rgb(60.438538%, 74.938965%, 91.038513%)" offset="0.570312"/><stop stop-opacity="1" stop-color="rgb(60.818481%, 75.318909%, 91.218567%)" offset="0.574219"/><stop stop-opacity="1" stop-color="rgb(61.199951%, 75.698853%, 91.398621%)" offset="0.578125"/><stop stop-opacity="1" stop-color="rgb(61.199951%, 75.698853%, 91.398621%)" offset="0.59375"/><stop stop-opacity="1" stop-color="rgb(61.199951%, 75.698853%, 91.398621%)" offset="0.625"/><stop stop-opacity="1" stop-color="rgb(61.199951%, 75.698853%, 91.398621%)" offset="0.75"/><stop stop-opacity="1" stop-color="rgb(61.199951%, 75.698853%, 91.398621%)" offset="1"/></linearGradient><clipPath id="0877e103ab"><path d="M 92.660156 34.40625 L 107.839844 34.40625 L 107.839844 74.472656 L 92.660156 74.472656 Z M 92.660156 34.40625 " clip-rule="nonzero"/></clipPath><clipPath id="766cafbd7f"><path d="M 92.742188 34.457031 L 92.742188 38.648438 C 92.734375 38.671875 92.726562 38.695312 92.726562 38.71875 L 92.726562 34.40625 C 92.730469 34.421875 92.734375 34.4375 92.742188 34.457031 Z M 92.726562 38.78125 C 92.730469 38.800781 92.734375 38.820312 92.742188 38.84375 L 92.726562 38.824219 Z M 92.726562 39.144531 L 92.742188 40.101562 C 92.734375 40.128906 92.726562 40.152344 92.726562 40.171875 Z M 107.839844 43.324219 L 107.839844 53.96875 C 107.839844 53.980469 107.839844 53.996094 107.839844 54.019531 C 107.828125 54.042969 107.820312 54.074219 107.820312 54.109375 L 107.820312 54.128906 L 107.839844 54.144531 L 107.839844 56.578125 C 107.816406 56.636719 107.816406 56.703125 107.839844 56.773438 L 107.820312 56.753906 L 107.839844 58.261719 L 107.839844 71.726562 L 103.800781 74.027344 C 103.078125 74.464844 102.355469 74.472656 101.632812 74.042969 L 93.257812 69.234375 C 92.832031 68.984375 92.660156 68.742188 92.742188 68.507812 L 92.726562 67.226562 L 92.742188 67.246094 C 92.71875 67.175781 92.71875 67.109375 92.742188 67.050781 L 92.742188 65.472656 L 92.726562 40.261719 C 92.753906 40.449219 92.929688 40.636719 93.257812 40.832031 L 101.632812 45.640625 C 102.355469 46.066406 103.078125 46.0625 103.800781 45.625 L 107.839844 43.324219 " clip-rule="nonzero"/></clipPath><linearGradient x1="0.248251" gradientTransform="matrix(-20.269398, 0.000000000000002478, -0.000000000000002482, -20.237525, 112.870626, 54.382367)" y1="0" x2="0.997086" gradientUnits="userSpaceOnUse" y2="0" id="1e39e6fe11"><stop stop-opacity="1" stop-color="rgb(38.398743%, 55.299377%, 81.599426%)" offset="0"/><stop stop-opacity="1" stop-color="rgb(38.406372%, 55.299377%, 81.599426%)" offset="0.125"/><stop stop-opacity="1" stop-color="rgb(38.612366%, 55.305481%, 81.60553%)" offset="0.128906"/><stop stop-opacity="1" stop-color="rgb(38.81073%, 55.311584%, 81.611633%)" offset="0.132813"/><stop stop-opacity="1" stop-color="rgb(39.004517%, 55.505371%, 81.80542%)" offset="0.140625"/><stop stop-opacity="1" stop-color="rgb(39.399719%, 56.098938%, 82.199097%)" offset="0.144531"/><stop stop-opacity="1" stop-color="rgb(39.599609%, 56.498718%, 82.398987%)" offset="0.148438"/><stop stop-opacity="1" stop-color="rgb(39.826965%, 56.726074%, 82.548523%)" offset="0.152344"/><stop stop-opacity="1" stop-color="rgb(40.054321%, 56.954956%, 82.699585%)" offset="0.15625"/><stop stop-opacity="1" stop-color="rgb(40.245056%, 57.139587%, 82.71637%)" offset="0.164063"/><stop stop-opacity="1" stop-color="rgb(40.817261%, 57.470703%, 82.91626%)" offset="0.167969"/><stop stop-opacity="1" stop-color="rgb(41.19873%, 57.617188%, 83.099365%)" offset="0.171875"/><stop stop-opacity="1" stop-color="rgb(41.397095%, 57.807922%, 83.099365%)" offset="0.175781"/><stop stop-opacity="1" stop-color="rgb(41.596985%, 57.998657%, 83.099365%)" offset="0.179688"/><stop stop-opacity="1" stop-color="rgb(41.98761%, 58.387756%, 83.299255%)" offset="0.183594"/><stop stop-opacity="1" stop-color="rgb(42.378235%, 58.778381%, 83.499146%)" offset="0.1875"/><stop stop-opacity="1" stop-color="rgb(42.738342%, 59.017944%, 83.699036%)" offset="0.191406"/><stop stop-opacity="1" stop-color="rgb(43.099976%, 59.259033%, 83.898926%)" offset="0.195313"/><stop stop-opacity="1" stop-color="rgb(43.319702%, 59.449768%, 83.918762%)" offset="0.199219"/><stop stop-opacity="1" stop-color="rgb(43.540955%, 59.640503%, 83.940125%)" offset="0.203125"/><stop stop-opacity="1" stop-color="rgb(43.731689%, 60.018921%, 84.118652%)" offset="0.207031"/><stop stop-opacity="1" stop-color="rgb(43.922424%, 60.398865%, 84.298706%)" offset="0.210938"/><stop stop-opacity="1" stop-color="rgb(44.111633%, 60.600281%, 84.498596%)" offset="0.214844"/><stop stop-opacity="1" stop-color="rgb(44.302368%, 60.803223%, 84.698486%)" offset="0.21875"/><stop stop-opacity="1" stop-color="rgb(44.500732%, 61.001587%, 84.698486%)" offset="0.222656"/><stop stop-opacity="1" stop-color="rgb(44.699097%, 61.199951%, 84.698486%)" offset="0.226563"/><stop stop-opacity="1" stop-color="rgb(44.93103%, 61.631775%, 85.098267%)" offset="0.230469"/><stop stop-opacity="1" stop-color="rgb(45.16449%, 62.065125%, 85.499573%)" offset="0.234375"/><stop stop-opacity="1" stop-color="rgb(45.532227%, 62.249756%, 85.499573%)" offset="0.238281"/><stop stop-opacity="1" stop-color="rgb(45.899963%, 62.434387%, 85.499573%)" offset="0.242188"/><stop stop-opacity="1" stop-color="rgb(46.113586%, 62.767029%, 85.699463%)" offset="0.246094"/><stop stop-opacity="1" stop-color="rgb(46.327209%, 63.09967%, 85.899353%)" offset="0.25"/><stop stop-opacity="1" stop-color="rgb(46.713257%, 63.304138%, 85.903931%)" offset="0.253906"/><stop stop-opacity="1" stop-color="rgb(47.099304%, 63.508606%, 85.908508%)" offset="0.257812"/><stop stop-opacity="1" stop-color="rgb(47.294617%, 63.899231%, 86.103821%)" offset="0.261719"/><stop stop-opacity="1" stop-color="rgb(47.489929%, 64.289856%, 86.299133%)" offset="0.265625"/><stop stop-opacity="1" stop-color="rgb(47.679138%, 64.729309%, 86.499023%)" offset="0.269531"/><stop stop-opacity="1" stop-color="rgb(47.869873%, 65.170288%, 86.698914%)" offset="0.273438"/><stop stop-opacity="1" stop-color="rgb(48.434448%, 65.361023%, 86.898804%)" offset="0.277344"/><stop stop-opacity="1" stop-color="rgb(48.999023%, 65.551758%, 87.098694%)" offset="0.28125"/><stop stop-opacity="1" stop-color="rgb(49.215698%, 65.942383%, 87.298584%)" offset="0.285156"/><stop stop-opacity="1" stop-color="rgb(49.432373%, 66.333008%, 87.5%)" offset="0.289062"/><stop stop-opacity="1" stop-color="rgb(49.822998%, 66.522217%, 87.504578%)" offset="0.292969"/><stop stop-opacity="1" stop-color="rgb(50.213623%, 66.712952%, 87.510681%)" offset="0.296875"/><stop stop-opacity="1" stop-color="rgb(50.604248%, 67.103577%, 87.654114%)" offset="0.300781"/><stop stop-opacity="1" stop-color="rgb(50.994873%, 67.494202%, 87.799072%)" offset="0.304688"/><stop stop-opacity="1" stop-color="rgb(51.185608%, 67.64679%, 87.986755%)" offset="0.3125"/><stop stop-opacity="1" stop-color="rgb(51.786804%, 68.028259%, 88.186646%)" offset="0.316406"/><stop stop-opacity="1" stop-color="rgb(52.198792%, 68.257141%, 88.198853%)" offset="0.320312"/><stop stop-opacity="1" stop-color="rgb(52.368164%, 68.647766%, 88.398743%)" offset="0.324219"/><stop stop-opacity="1" stop-color="rgb(52.537537%, 69.038391%, 88.598633%)" offset="0.328125"/><stop stop-opacity="1" stop-color="rgb(52.928162%, 69.418335%, 88.798523%)" offset="0.332031"/><stop stop-opacity="1" stop-color="rgb(53.318787%, 69.799805%, 88.999939%)" offset="0.335938"/><stop stop-opacity="1" stop-color="rgb(53.709412%, 69.799805%, 88.999939%)" offset="0.339844"/><stop stop-opacity="1" stop-color="rgb(54.100037%, 69.799805%, 88.999939%)" offset="0.34375"/><stop stop-opacity="1" stop-color="rgb(54.299927%, 70.19043%, 88.999939%)" offset="0.347656"/><stop stop-opacity="1" stop-color="rgb(54.499817%, 70.581055%, 88.999939%)" offset="0.351562"/><stop stop-opacity="1" stop-color="rgb(54.930115%, 70.7901%, 89.199829%)" offset="0.355469"/><stop stop-opacity="1" stop-color="rgb(55.361938%, 70.999146%, 89.399719%)" offset="0.359375"/><stop stop-opacity="1" stop-color="rgb(55.552673%, 71.220398%, 89.421082%)" offset="0.363281"/><stop stop-opacity="1" stop-color="rgb(55.743408%, 71.443176%, 89.44397%)" offset="0.367188"/><stop stop-opacity="1" stop-color="rgb(56.134033%, 71.633911%, 89.620972%)" offset="0.371094"/><stop stop-opacity="1" stop-color="rgb(56.524658%, 71.824646%, 89.7995%)" offset="0.375"/><stop stop-opacity="1" stop-color="rgb(56.715393%, 72.013855%, 89.802551%)" offset="0.382812"/><stop stop-opacity="1" stop-color="rgb(57.247925%, 72.544861%, 90.002441%)" offset="0.386719"/><stop stop-opacity="1" stop-color="rgb(57.589722%, 72.886658%, 90.19928%)" offset="0.390625"/><stop stop-opacity="1" stop-color="rgb(57.827759%, 73.092651%, 90.232849%)" offset="0.394531"/><stop stop-opacity="1" stop-color="rgb(58.067322%, 73.298645%, 90.267944%)" offset="0.398438"/><stop stop-opacity="1" stop-color="rgb(58.457947%, 73.522949%, 90.432739%)" offset="0.402344"/><stop stop-opacity="1" stop-color="rgb(58.848572%, 73.748779%, 90.59906%)" offset="0.40625"/><stop stop-opacity="1" stop-color="rgb(59.039307%, 73.939514%, 90.614319%)" offset="0.414062"/><stop stop-opacity="1" stop-color="rgb(59.620667%, 74.319458%, 90.814209%)" offset="0.417969"/><stop stop-opacity="1" stop-color="rgb(60.011292%, 74.510193%, 90.99884%)" offset="0.421875"/><stop stop-opacity="1" stop-color="rgb(60.205078%, 74.703979%, 90.99884%)" offset="0.429688"/><stop stop-opacity="1" stop-color="rgb(60.784912%, 75.285339%, 91.19873%)" offset="0.433594"/><stop stop-opacity="1" stop-color="rgb(61.172485%, 75.672913%, 91.398621%)" offset="0.4375"/><stop stop-opacity="1" stop-color="rgb(61.186218%, 75.68512%, 91.398621%)" offset="0.5"/><stop stop-opacity="1" stop-color="rgb(61.199951%, 75.698853%, 91.398621%)" offset="1"/></linearGradient><clipPath id="72b5b0a30e"><path d="M 107.839844 58.09375 L 127.894531 58.09375 L 127.894531 83.878906 L 107.839844 83.878906 Z M 107.839844 58.09375 " clip-rule="nonzero"/></clipPath><clipPath id="c406892c51"><path d="M 127.894531 64.476562 L 127.894531 67.113281 L 126.3125 68.027344 L 126.332031 68.027344 L 123.875 69.445312 C 123.546875 69.636719 123.367188 69.824219 123.34375 70.015625 L 123.34375 70.035156 C 123.332031 70.066406 123.324219 70.105469 123.324219 70.140625 L 123.324219 70.15625 C 123.324219 70.167969 123.332031 70.179688 123.34375 70.191406 L 123.34375 80.90625 L 118.898438 83.4375 C 118.175781 83.875 117.449219 83.878906 116.730469 83.453125 L 111.535156 80.464844 L 111.535156 78.058594 L 107.839844 75.875 L 107.839844 58.261719 C 107.894531 58.425781 108.070312 58.589844 108.371094 58.761719 L 116.730469 63.570312 C 117.449219 63.996094 118.175781 63.992188 118.898438 63.554688 L 127.359375 58.742188 C 127.710938 58.519531 127.886719 58.304688 127.894531 58.09375 L 127.894531 64.476562 " clip-rule="nonzero"/></clipPath><linearGradient x1="0.0035064" gradientTransform="matrix(-20.269575, 0.000000000000002478, -0.000000000000002482, -20.237702, 127.965284, 70.932402)" y1="0" x2="0.992944" gradientUnits="userSpaceOnUse" y2="0" id="a9987d3e3c"><stop stop-opacity="1" stop-color="rgb(59.999084%, 55.699158%, 81.199646%)" offset="0"/><stop stop-opacity="1" stop-color="rgb(59.999084%, 55.699158%, 81.199646%)" offset="0.25"/><stop stop-opacity="1" stop-color="rgb(59.999084%, 55.699158%, 81.199646%)" offset="0.3125"/><stop stop-opacity="1" stop-color="rgb(59.999084%, 55.793762%, 81.199646%)" offset="0.328125"/><stop stop-opacity="1" stop-color="rgb(59.999084%, 55.990601%, 81.199646%)" offset="0.34375"/><stop stop-opacity="1" stop-color="rgb(60.398865%, 56.29425%, 81.359863%)" offset="0.347656"/><stop stop-opacity="1" stop-color="rgb(60.798645%, 56.498718%, 81.521606%)" offset="0.351563"/><stop stop-opacity="1" stop-color="rgb(61.199951%, 56.900024%, 81.759644%)" offset="0.355469"/><stop stop-opacity="1" stop-color="rgb(61.602783%, 57.301331%, 81.999207%)" offset="0.359375"/><stop stop-opacity="1" stop-color="rgb(61.993408%, 57.643127%, 82.191467%)" offset="0.363281"/><stop stop-opacity="1" stop-color="rgb(62.384033%, 57.984924%, 82.383728%)" offset="0.367188"/><stop stop-opacity="1" stop-color="rgb(62.724304%, 58.192444%, 82.391357%)" offset="0.371094"/><stop stop-opacity="1" stop-color="rgb(63.066101%, 58.399963%, 82.398987%)" offset="0.375"/><stop stop-opacity="1" stop-color="rgb(63.456726%, 58.773804%, 82.548523%)" offset="0.378906"/><stop stop-opacity="1" stop-color="rgb(63.847351%, 59.147644%, 82.699585%)" offset="0.382813"/><stop stop-opacity="1" stop-color="rgb(64.402771%, 59.538269%, 82.899475%)" offset="0.386719"/><stop stop-opacity="1" stop-color="rgb(64.959717%, 59.928894%, 83.099365%)" offset="0.390625"/><stop stop-opacity="1" stop-color="rgb(65.434265%, 60.369873%, 83.299255%)" offset="0.394531"/><stop stop-opacity="1" stop-color="rgb(65.910339%, 60.810852%, 83.499146%)" offset="0.398438"/><stop stop-opacity="1" stop-color="rgb(66.300964%, 61.201477%, 83.695984%)" offset="0.402344"/><stop stop-opacity="1" stop-color="rgb(66.691589%, 61.592102%, 83.892822%)" offset="0.40625"/><stop stop-opacity="1" stop-color="rgb(66.882324%, 61.982727%, 84.083557%)" offset="0.410156"/><stop stop-opacity="1" stop-color="rgb(67.074585%, 62.373352%, 84.274292%)" offset="0.414063"/><stop stop-opacity="1" stop-color="rgb(67.26532%, 62.713623%, 84.286499%)" offset="0.417969"/><stop stop-opacity="1" stop-color="rgb(67.456055%, 63.05542%, 84.298706%)" offset="0.421875"/><stop stop-opacity="1" stop-color="rgb(67.796326%, 63.446045%, 84.498596%)" offset="0.425781"/><stop stop-opacity="1" stop-color="rgb(68.136597%, 63.83667%, 84.698486%)" offset="0.429688"/><stop stop-opacity="1" stop-color="rgb(68.327332%, 64.027405%, 84.898376%)" offset="0.433594"/><stop stop-opacity="1" stop-color="rgb(68.518066%, 64.21814%, 85.099792%)" offset="0.4375"/><stop stop-opacity="1" stop-color="rgb(68.959045%, 64.657593%, 85.299683%)" offset="0.441406"/><stop stop-opacity="1" stop-color="rgb(69.400024%, 65.098572%, 85.499573%)" offset="0.445313"/><stop stop-opacity="1" stop-color="rgb(69.599915%, 65.289307%, 85.499573%)" offset="0.449219"/><stop stop-opacity="1" stop-color="rgb(69.799805%, 65.481567%, 85.499573%)" offset="0.453125"/><stop stop-opacity="1" stop-color="rgb(70.181274%, 65.872192%, 85.699463%)" offset="0.457031"/><stop stop-opacity="1" stop-color="rgb(70.562744%, 66.262817%, 85.899353%)" offset="0.460938"/><stop stop-opacity="1" stop-color="rgb(70.953369%, 66.653442%, 86.099243%)" offset="0.464844"/><stop stop-opacity="1" stop-color="rgb(71.34552%, 67.045593%, 86.299133%)" offset="0.46875"/><stop stop-opacity="1" stop-color="rgb(71.736145%, 67.39502%, 86.499023%)" offset="0.472656"/><stop stop-opacity="1" stop-color="rgb(72.12677%, 67.744446%, 86.698914%)" offset="0.476563"/><stop stop-opacity="1" stop-color="rgb(72.512817%, 67.976379%, 86.703491%)" offset="0.480469"/><stop stop-opacity="1" stop-color="rgb(72.898865%, 68.208313%, 86.708069%)" offset="0.484375"/><stop stop-opacity="1" stop-color="rgb(73.094177%, 68.598938%, 86.903381%)" offset="0.488281"/><stop stop-opacity="1" stop-color="rgb(73.28949%, 68.989563%, 87.098694%)" offset="0.492188"/><stop stop-opacity="1" stop-color="rgb(73.493958%, 69.194031%, 87.298584%)" offset="0.496094"/><stop stop-opacity="1" stop-color="rgb(73.699951%, 69.398499%, 87.5%)" offset="0.5"/><stop stop-opacity="1" stop-color="rgb(74.076843%, 69.775391%, 87.631226%)" offset="0.503906"/><stop stop-opacity="1" stop-color="rgb(74.453735%, 70.153809%, 87.763977%)" offset="0.507812"/><stop stop-opacity="1" stop-color="rgb(74.84436%, 70.544434%, 87.780762%)" offset="0.511719"/><stop stop-opacity="1" stop-color="rgb(75.234985%, 70.935059%, 87.799072%)" offset="0.515625"/><stop stop-opacity="1" stop-color="rgb(75.474548%, 71.374512%, 88.006592%)" offset="0.519531"/><stop stop-opacity="1" stop-color="rgb(75.715637%, 71.815491%, 88.215637%)" offset="0.523438"/><stop stop-opacity="1" stop-color="rgb(76.106262%, 72.006226%, 88.406372%)" offset="0.527344"/><stop stop-opacity="1" stop-color="rgb(76.498413%, 72.198486%, 88.598633%)" offset="0.53125"/><stop stop-opacity="1" stop-color="rgb(76.889038%, 72.538757%, 88.789368%)" offset="0.535156"/><stop stop-opacity="1" stop-color="rgb(77.279663%, 72.879028%, 88.980103%)" offset="0.539063"/><stop stop-opacity="1" stop-color="rgb(77.438354%, 73.269653%, 88.989258%)" offset="0.542969"/><stop stop-opacity="1" stop-color="rgb(77.598572%, 73.660278%, 88.999939%)" offset="0.546875"/><stop stop-opacity="1" stop-color="rgb(77.970886%, 73.851013%, 89.199829%)" offset="0.550781"/><stop stop-opacity="1" stop-color="rgb(78.343201%, 74.043274%, 89.399719%)" offset="0.554688"/><stop stop-opacity="1" stop-color="rgb(78.733826%, 74.433899%, 89.599609%)" offset="0.558594"/><stop stop-opacity="1" stop-color="rgb(79.124451%, 74.824524%, 89.7995%)" offset="0.5625"/><stop stop-opacity="1" stop-color="rgb(79.364014%, 75.265503%, 89.99939%)" offset="0.566406"/><stop stop-opacity="1" stop-color="rgb(79.605103%, 75.706482%, 90.19928%)" offset="0.570313"/><stop stop-opacity="1" stop-color="rgb(79.995728%, 75.901794%, 90.19928%)" offset="0.574219"/><stop stop-opacity="1" stop-color="rgb(80.387878%, 76.098633%, 90.19928%)" offset="0.578125"/><stop stop-opacity="1" stop-color="rgb(80.392456%, 76.098633%, 90.19928%)" offset="0.59375"/><stop stop-opacity="1" stop-color="rgb(80.39856%, 76.098633%, 90.19928%)" offset="0.625"/><stop stop-opacity="1" stop-color="rgb(80.39856%, 76.098633%, 90.19928%)" offset="0.75"/><stop stop-opacity="1" stop-color="rgb(80.39856%, 76.098633%, 90.19928%)" offset="1"/></linearGradient><clipPath id="289499c7a0"><path d="M 123.261719 70.140625 L 143.382812 70.140625 L 143.382812 92.734375 L 123.261719 92.734375 Z M 123.261719 70.140625 " clip-rule="nonzero"/></clipPath><clipPath id="c749472565"><path d="M 123.34375 80.90625 L 123.34375 70.191406 C 123.402344 70.371094 123.578125 70.535156 123.875 70.691406 L 132.25 75.519531 C 132.972656 75.933594 133.695312 75.9375 134.421875 75.535156 L 138.738281 73.035156 L 138.777344 73.035156 L 139.523438 72.589844 L 139.523438 72.570312 L 142.847656 70.691406 C 143.199219 70.464844 143.378906 70.285156 143.382812 70.140625 L 143.382812 86.824219 C 143.382812 87.050781 143.203125 87.269531 142.847656 87.484375 L 134.402344 92.292969 C 133.71875 92.710938 133.03125 92.734375 132.347656 92.375 C 132.308594 92.355469 132.269531 92.335938 132.230469 92.3125 L 123.859375 87.5 C 123.429688 87.253906 123.261719 87.011719 123.34375 86.773438 L 123.332031 86.257812 L 123.324219 85.511719 L 123.34375 85.53125 C 123.320312 85.449219 123.320312 85.382812 123.34375 85.335938 L 123.34375 80.90625 " clip-rule="nonzero"/></clipPath><linearGradient x1="0.00438704" gradientTransform="matrix(-20.269398, 0, 0, -20.237525, 143.469941, 81.383133)" y1="0" x2="0.997054" gradientUnits="userSpaceOnUse" y2="0" id="5c0972324e"><stop stop-opacity="1" stop-color="rgb(97.299194%, 61.199951%, 5.899048%)" offset="0"/><stop stop-opacity="1" stop-color="rgb(97.299194%, 61.199951%, 5.899048%)" offset="0.25"/><stop stop-opacity="1" stop-color="rgb(97.299194%, 61.199951%, 5.899048%)" offset="0.3125"/><stop stop-opacity="1" stop-color="rgb(97.299194%, 61.199951%, 5.899048%)" offset="0.328125"/><stop stop-opacity="1" stop-color="rgb(97.299194%, 61.199951%, 5.888367%)" offset="0.335938"/><stop stop-opacity="1" stop-color="rgb(97.299194%, 61.399841%, 5.688477%)" offset="0.339844"/><stop stop-opacity="1" stop-color="rgb(97.299194%, 61.599731%, 5.499268%)" offset="0.34375"/><stop stop-opacity="1" stop-color="rgb(97.299194%, 61.790466%, 5.499268%)" offset="0.351563"/><stop stop-opacity="1" stop-color="rgb(97.299194%, 62.341309%, 5.499268%)" offset="0.355469"/><stop stop-opacity="1" stop-color="rgb(97.299194%, 62.69989%, 5.499268%)" offset="0.359375"/><stop stop-opacity="1" stop-color="rgb(97.299194%, 62.921143%, 5.476379%)" offset="0.363281"/><stop stop-opacity="1" stop-color="rgb(97.299194%, 63.143921%, 5.453491%)" offset="0.367188"/><stop stop-opacity="1" stop-color="rgb(97.299194%, 63.520813%, 5.276489%)" offset="0.371094"/><stop stop-opacity="1" stop-color="rgb(97.299194%, 63.899231%, 5.099487%)" offset="0.375"/><stop stop-opacity="1" stop-color="rgb(97.299194%, 64.102173%, 5.099487%)" offset="0.378906"/><stop stop-opacity="1" stop-color="rgb(97.299194%, 64.306641%, 5.099487%)" offset="0.382812"/><stop stop-opacity="1" stop-color="rgb(97.444153%, 64.697266%, 5.099487%)" offset="0.386719"/><stop stop-opacity="1" stop-color="rgb(97.590637%, 65.087891%, 5.099487%)" offset="0.390625"/><stop stop-opacity="1" stop-color="rgb(97.595215%, 65.327454%, 5.064392%)" offset="0.394531"/><stop stop-opacity="1" stop-color="rgb(97.599792%, 65.568542%, 5.029297%)" offset="0.398438"/><stop stop-opacity="1" stop-color="rgb(97.599792%, 65.759277%, 4.864502%)" offset="0.40625"/><stop stop-opacity="1" stop-color="rgb(97.599792%, 66.340637%, 4.699707%)" offset="0.410156"/><stop stop-opacity="1" stop-color="rgb(97.599792%, 66.731262%, 4.699707%)" offset="0.414063"/><stop stop-opacity="1" stop-color="rgb(97.599792%, 67.114258%, 4.699707%)" offset="0.417969"/><stop stop-opacity="1" stop-color="rgb(97.599792%, 67.498779%, 4.699707%)" offset="0.421875"/><stop stop-opacity="1" stop-color="rgb(97.599792%, 67.64679%, 4.699707%)" offset="0.429688"/><stop stop-opacity="1" stop-color="rgb(97.599792%, 67.996216%, 4.512024%)" offset="0.433594"/><stop stop-opacity="1" stop-color="rgb(97.599792%, 68.199158%, 4.324341%)" offset="0.4375"/><stop stop-opacity="1" stop-color="rgb(97.599792%, 68.426514%, 4.312134%)" offset="0.441406"/><stop stop-opacity="1" stop-color="rgb(97.599792%, 68.65387%, 4.299927%)" offset="0.445313"/><stop stop-opacity="1" stop-color="rgb(97.799683%, 69.044495%, 4.299927%)" offset="0.449219"/><stop stop-opacity="1" stop-color="rgb(97.999573%, 69.43512%, 4.299927%)" offset="0.453125"/><stop stop-opacity="1" stop-color="rgb(97.999573%, 69.625854%, 4.299927%)" offset="0.460938"/><stop stop-opacity="1" stop-color="rgb(97.999573%, 70.207214%, 4.100037%)" offset="0.464844"/><stop stop-opacity="1" stop-color="rgb(97.999573%, 70.597839%, 3.901672%)" offset="0.46875"/><stop stop-opacity="1" stop-color="rgb(97.999573%, 70.988464%, 3.900146%)" offset="0.472656"/><stop stop-opacity="1" stop-color="rgb(97.999573%, 71.379089%, 3.898621%)" offset="0.476562"/><stop stop-opacity="1" stop-color="rgb(97.999573%, 71.618652%, 3.898621%)" offset="0.480469"/><stop stop-opacity="1" stop-color="rgb(97.999573%, 71.859741%, 3.898621%)" offset="0.484375"/><stop stop-opacity="1" stop-color="rgb(97.999573%, 72.200012%, 3.898621%)" offset="0.488281"/><stop stop-opacity="1" stop-color="rgb(97.999573%, 72.540283%, 3.898621%)" offset="0.492188"/><stop stop-opacity="1" stop-color="rgb(97.810364%, 72.930908%, 3.887939%)" offset="0.496094"/><stop stop-opacity="1" stop-color="rgb(97.621155%, 73.321533%, 3.877258%)" offset="0.5"/><stop stop-opacity="1" stop-color="rgb(97.810364%, 73.710632%, 3.688049%)" offset="0.503906"/><stop stop-opacity="1" stop-color="rgb(97.999573%, 74.099731%, 3.49884%)" offset="0.507813"/><stop stop-opacity="1" stop-color="rgb(97.999573%, 74.290466%, 3.49884%)" offset="0.515625"/><stop stop-opacity="1" stop-color="rgb(98.199463%, 74.723816%, 3.466797%)" offset="0.519531"/><stop stop-opacity="1" stop-color="rgb(98.399353%, 74.964905%, 3.434753%)" offset="0.523438"/><stop stop-opacity="1" stop-color="rgb(98.399353%, 75.35553%, 3.266907%)" offset="0.527344"/><stop stop-opacity="1" stop-color="rgb(98.399353%, 75.746155%, 3.09906%)" offset="0.53125"/><stop stop-opacity="1" stop-color="rgb(98.399353%, 76.135254%, 3.09906%)" offset="0.535156"/><stop stop-opacity="1" stop-color="rgb(98.399353%, 76.525879%, 3.09906%)" offset="0.539062"/><stop stop-opacity="1" stop-color="rgb(98.399353%, 76.911926%, 3.09906%)" offset="0.542969"/><stop stop-opacity="1" stop-color="rgb(98.399353%, 77.2995%, 3.09906%)" offset="0.546875"/><stop stop-opacity="1" stop-color="rgb(98.399353%, 77.444458%, 2.903748%)" offset="0.554688"/><stop stop-opacity="1" stop-color="rgb(98.213196%, 77.780151%, 2.703857%)" offset="0.5625"/><stop stop-opacity="1" stop-color="rgb(98.213196%, 78.384399%, 2.69928%)" offset="0.566406"/><stop stop-opacity="1" stop-color="rgb(98.399353%, 78.799438%, 2.69928%)" offset="0.570312"/><stop stop-opacity="1" stop-color="rgb(98.399353%, 78.799438%, 2.69928%)" offset="0.578125"/><stop stop-opacity="1" stop-color="rgb(98.399353%, 78.799438%, 2.69928%)" offset="0.59375"/><stop stop-opacity="1" stop-color="rgb(98.399353%, 78.799438%, 2.69928%)" offset="0.625"/><stop stop-opacity="1" stop-color="rgb(98.399353%, 78.799438%, 2.69928%)" offset="0.75"/><stop stop-opacity="1" stop-color="rgb(98.399353%, 78.799438%, 2.69928%)" offset="1"/></linearGradient><clipPath id="1557890ede"><path d="M 107.816406 34.226562 L 127.894531 34.226562 L 127.894531 63.996094 L 107.816406 63.996094 Z M 107.816406 34.226562 " clip-rule="nonzero"/></clipPath><clipPath id="2b775fdb6c"><path d="M 127.894531 39.996094 L 127.894531 53.96875 C 127.894531 53.992188 127.894531 54.015625 127.894531 54.039062 L 127.894531 58.09375 C 127.886719 58.304688 127.710938 58.519531 127.359375 58.742188 L 118.898438 63.554688 C 118.175781 63.992188 117.449219 63.996094 116.730469 63.570312 L 108.371094 58.761719 C 108.070312 58.589844 107.894531 58.425781 107.839844 58.261719 L 107.820312 56.753906 L 107.839844 56.773438 C 107.816406 56.703125 107.816406 56.636719 107.839844 56.578125 L 107.839844 54.019531 C 107.839844 53.996094 107.839844 53.980469 107.839844 53.96875 L 107.839844 34.261719 C 107.898438 34.429688 108.082031 34.601562 108.390625 34.777344 L 116.746094 39.605469 C 117.46875 40.019531 118.199219 40.027344 118.933594 39.625 L 123.253906 37.101562 L 123.269531 37.101562 L 124.035156 36.675781 L 124.019531 36.660156 L 127.359375 34.757812 C 127.714844 34.546875 127.890625 34.371094 127.894531 34.226562 L 127.894531 39.996094 " clip-rule="nonzero"/></clipPath><linearGradient x1="0.0035064" gradientTransform="matrix(-20.269575, 0.000000000000002478, -0.000000000000002482, -20.237702, 127.965284, 49.056705)" y1="0" x2="0.994109" gradientUnits="userSpaceOnUse" y2="0" id="5ea3d9be55"><stop stop-opacity="1" stop-color="rgb(59.999084%, 55.699158%, 81.199646%)" offset="0"/><stop stop-opacity="1" stop-color="rgb(59.999084%, 55.699158%, 81.199646%)" offset="0.25"/><stop stop-opacity="1" stop-color="rgb(59.999084%, 55.699158%, 81.199646%)" offset="0.3125"/><stop stop-opacity="1" stop-color="rgb(59.999084%, 55.793762%, 81.199646%)" offset="0.328125"/><stop stop-opacity="1" stop-color="rgb(59.999084%, 55.990601%, 81.199646%)" offset="0.34375"/><stop stop-opacity="1" stop-color="rgb(60.562134%, 56.295776%, 81.362915%)" offset="0.347656"/><stop stop-opacity="1" stop-color="rgb(61.126709%, 56.498718%, 81.52771%)" offset="0.351562"/><stop stop-opacity="1" stop-color="rgb(61.367798%, 56.90155%, 81.762695%)" offset="0.355469"/><stop stop-opacity="1" stop-color="rgb(61.608887%, 57.305908%, 81.999207%)" offset="0.359375"/><stop stop-opacity="1" stop-color="rgb(61.999512%, 57.647705%, 82.194519%)" offset="0.363281"/><stop stop-opacity="1" stop-color="rgb(62.390137%, 57.991028%, 82.389832%)" offset="0.367187"/><stop stop-opacity="1" stop-color="rgb(62.730408%, 58.195496%, 82.394409%)" offset="0.371094"/><stop stop-opacity="1" stop-color="rgb(63.072205%, 58.399963%, 82.398987%)" offset="0.375"/><stop stop-opacity="1" stop-color="rgb(63.46283%, 58.776855%, 82.548523%)" offset="0.378906"/><stop stop-opacity="1" stop-color="rgb(63.853455%, 59.153748%, 82.699585%)" offset="0.382812"/><stop stop-opacity="1" stop-color="rgb(64.44397%, 59.544373%, 82.899475%)" offset="0.386719"/><stop stop-opacity="1" stop-color="rgb(65.036011%, 59.934998%, 83.099365%)" offset="0.390625"/><stop stop-opacity="1" stop-color="rgb(65.47699%, 60.385132%, 83.308411%)" offset="0.394531"/><stop stop-opacity="1" stop-color="rgb(65.917969%, 60.835266%, 83.517456%)" offset="0.398438"/><stop stop-opacity="1" stop-color="rgb(66.308594%, 61.416626%, 83.708191%)" offset="0.402344"/><stop stop-opacity="1" stop-color="rgb(66.699219%, 61.999512%, 83.898926%)" offset="0.40625"/><stop stop-opacity="1" stop-color="rgb(66.889954%, 62.190247%, 84.089661%)" offset="0.414062"/><stop stop-opacity="1" stop-color="rgb(67.425537%, 62.721252%, 84.289551%)" offset="0.417969"/><stop stop-opacity="1" stop-color="rgb(67.771912%, 63.063049%, 84.298706%)" offset="0.421875"/><stop stop-opacity="1" stop-color="rgb(67.958069%, 63.453674%, 84.498596%)" offset="0.425781"/><stop stop-opacity="1" stop-color="rgb(68.144226%, 63.844299%, 84.698486%)" offset="0.429688"/><stop stop-opacity="1" stop-color="rgb(68.371582%, 64.035034%, 84.898376%)" offset="0.433594"/><stop stop-opacity="1" stop-color="rgb(68.598938%, 64.225769%, 85.099792%)" offset="0.4375"/><stop stop-opacity="1" stop-color="rgb(69.003296%, 64.666748%, 85.299683%)" offset="0.441406"/><stop stop-opacity="1" stop-color="rgb(69.407654%, 65.107727%, 85.499573%)" offset="0.445312"/><stop stop-opacity="1" stop-color="rgb(69.602966%, 65.30304%, 85.499573%)" offset="0.449219"/><stop stop-opacity="1" stop-color="rgb(69.799805%, 65.499878%, 85.499573%)" offset="0.453125"/><stop stop-opacity="1" stop-color="rgb(70.185852%, 65.884399%, 85.699463%)" offset="0.457031"/><stop stop-opacity="1" stop-color="rgb(70.571899%, 66.270447%, 85.899353%)" offset="0.460938"/><stop stop-opacity="1" stop-color="rgb(70.962524%, 66.661072%, 86.099243%)" offset="0.464844"/><stop stop-opacity="1" stop-color="rgb(71.353149%, 67.053223%, 86.299133%)" offset="0.46875"/><stop stop-opacity="1" stop-color="rgb(71.743774%, 67.401123%, 86.499023%)" offset="0.472656"/><stop stop-opacity="1" stop-color="rgb(72.134399%, 67.750549%, 86.698914%)" offset="0.476562"/><stop stop-opacity="1" stop-color="rgb(72.515869%, 67.982483%, 86.706543%)" offset="0.480469"/><stop stop-opacity="1" stop-color="rgb(72.898865%, 68.215942%, 86.715698%)" offset="0.484375"/><stop stop-opacity="1" stop-color="rgb(73.098755%, 68.606567%, 86.906433%)" offset="0.488281"/><stop stop-opacity="1" stop-color="rgb(73.298645%, 68.998718%, 87.098694%)" offset="0.492188"/><stop stop-opacity="1" stop-color="rgb(73.498535%, 69.198608%, 87.298584%)" offset="0.496094"/><stop stop-opacity="1" stop-color="rgb(73.699951%, 69.398499%, 87.5%)" offset="0.5"/><stop stop-opacity="1" stop-color="rgb(74.079895%, 69.961548%, 87.635803%)" offset="0.503906"/><stop stop-opacity="1" stop-color="rgb(74.461365%, 70.524597%, 87.771606%)" offset="0.507812"/><stop stop-opacity="1" stop-color="rgb(74.85199%, 70.733643%, 87.957764%)" offset="0.511719"/><stop stop-opacity="1" stop-color="rgb(75.242615%, 70.942688%, 88.143921%)" offset="0.515625"/><stop stop-opacity="1" stop-color="rgb(75.483704%, 71.383667%, 88.183594%)" offset="0.519531"/><stop stop-opacity="1" stop-color="rgb(75.724792%, 71.824646%, 88.224792%)" offset="0.523437"/><stop stop-opacity="1" stop-color="rgb(76.115417%, 72.013855%, 88.41095%)" offset="0.527344"/><stop stop-opacity="1" stop-color="rgb(76.506042%, 72.20459%, 88.598633%)" offset="0.53125"/><stop stop-opacity="1" stop-color="rgb(76.896667%, 72.546387%, 88.792419%)" offset="0.535156"/><stop stop-opacity="1" stop-color="rgb(77.288818%, 72.888184%, 88.987732%)" offset="0.539062"/><stop stop-opacity="1" stop-color="rgb(77.629089%, 73.278809%, 89.178467%)" offset="0.542969"/><stop stop-opacity="1" stop-color="rgb(77.970886%, 73.669434%, 89.370728%)" offset="0.546875"/><stop stop-opacity="1" stop-color="rgb(78.361511%, 73.884583%, 89.38446%)" offset="0.550781"/><stop stop-opacity="1" stop-color="rgb(78.752136%, 74.099731%, 89.399719%)" offset="0.554687"/><stop stop-opacity="1" stop-color="rgb(78.942871%, 74.633789%, 89.599609%)" offset="0.558594"/><stop stop-opacity="1" stop-color="rgb(79.133606%, 75.167847%, 89.7995%)" offset="0.5625"/><stop stop-opacity="1" stop-color="rgb(79.56543%, 75.440979%, 89.99939%)" offset="0.566406"/><stop stop-opacity="1" stop-color="rgb(79.998779%, 75.715637%, 90.19928%)" offset="0.570312"/><stop stop-opacity="1" stop-color="rgb(80.197144%, 75.906372%, 90.19928%)" offset="0.574219"/><stop stop-opacity="1" stop-color="rgb(80.397034%, 76.098633%, 90.19928%)" offset="0.578125"/><stop stop-opacity="1" stop-color="rgb(80.397034%, 76.098633%, 90.19928%)" offset="0.59375"/><stop stop-opacity="1" stop-color="rgb(80.39856%, 76.098633%, 90.19928%)" offset="0.625"/><stop stop-opacity="1" stop-color="rgb(80.39856%, 76.098633%, 90.19928%)" offset="0.75"/><stop stop-opacity="1" stop-color="rgb(80.39856%, 76.098633%, 90.19928%)" offset="1"/></linearGradient></defs><g clip-path="url(#94787512e8)"><path fill="#f6fcfe" d="M 89.292969 103.511719 C 89.792969 103.136719 90.542969 102.773438 91.550781 102.429688 L 83.730469 97.90625 L 81.648438 99.09375 Z M 100.300781 103.636719 C 100.621094 103.390625 100.90625 103.175781 101.152344 103 L 88.046875 95.417969 L 85.949219 96.609375 L 95.070312 101.863281 L 95.054688 101.878906 L 99.410156 104.402344 C 99.660156 104.175781 99.957031 103.921875 100.300781 103.636719 Z M 99.835938 109.621094 L 101.917969 108.414062 L 92.546875 103.015625 C 92.25 103.265625 91.867188 103.574219 91.390625 103.941406 C 91.191406 104.105469 91 104.257812 90.824219 104.402344 Z M 104.15625 107.136719 L 106.238281 105.925781 L 102.488281 103.761719 C 102.34375 103.976562 102.171875 104.199219 101.972656 104.4375 C 101.675781 104.804688 101.378906 105.117188 101.082031 105.378906 Z M 100.460938 97.621094 C 100.234375 97.820312 99.945312 98.078125 99.589844 98.382812 C 99.304688 98.632812 99.046875 98.851562 98.824219 99.039062 L 99.394531 99.378906 L 99.375 99.394531 L 108.480469 104.632812 L 110.558594 103.441406 Z M 109.332031 99.234375 C 109.105469 99.4375 108.882812 99.613281 108.65625 99.769531 L 112.800781 102.148438 L 114.878906 100.957031 L 110.347656 98.332031 C 110.109375 98.554688 109.769531 98.855469 109.332031 99.234375 Z M 154.15625 70.707031 C 154.476562 70.105469 154.785156 69.460938 155.078125 68.773438 C 150.625 66.15625 146.023438 63.488281 141.285156 60.765625 C 141.1875 61.039062 141.015625 61.417969 140.765625 61.902344 C 140.625 62.1875 140.484375 62.441406 140.339844 62.667969 C 141.726562 63.460938 143.125 64.246094 144.535156 65.027344 C 147.75 66.921875 150.957031 68.816406 154.15625 70.707031 Z M 151.96875 74.488281 C 152.382812 73.886719 152.761719 73.292969 153.105469 72.714844 C 152.230469 72.207031 151.351562 71.683594 150.476562 71.152344 C 150.332031 71.589844 150.160156 71.996094 149.960938 72.375 C 149.839844 72.625 149.710938 72.855469 149.566406 73.066406 C 150.375 73.554688 151.175781 74.027344 151.96875 74.488281 Z M 152.449219 62.257812 C 152.355469 62.550781 152.21875 62.945312 152.039062 63.429688 C 151.945312 63.738281 151.835938 64.015625 151.71875 64.265625 C 153.132812 65.070312 154.515625 65.878906 155.878906 66.695312 C 156.140625 65.996094 156.382812 65.328125 156.609375 64.691406 C 155.246094 63.871094 153.859375 63.0625 152.449219 62.257812 Z M 148.359375 72.339844 C 148.820312 71.570312 149.25 71.003906 149.640625 70.636719 C 148.785156 70.128906 147.921875 69.617188 147.042969 69.109375 C 146.902344 69.5 146.722656 69.910156 146.511719 70.335938 C 146.355469 70.609375 146.21875 70.839844 146.101562 71.027344 C 146.859375 71.464844 147.613281 71.902344 148.359375 72.339844 Z M 105.757812 92.167969 C 105.652344 92.265625 105.546875 92.355469 105.4375 92.4375 L 108.195312 94.015625 L 108.175781 94.035156 L 117.28125 99.289062 L 119.339844 98.097656 L 106.914062 90.910156 C 106.582031 91.335938 106.195312 91.753906 105.757812 92.167969 Z M 122.257812 25.582031 C 122.007812 26.21875 121.742188 26.878906 121.457031 27.550781 C 123.496094 28.699219 125.523438 29.84375 127.539062 30.980469 C 127.714844 30.398438 128.046875 29.789062 128.535156 29.148438 C 126.460938 27.941406 124.367188 26.753906 122.257812 25.582031 Z M 144.054688 57.339844 C 144.007812 57.660156 143.902344 58.085938 143.738281 58.617188 C 143.652344 58.9375 143.554688 59.203125 143.433594 59.417969 C 144.359375 59.925781 145.273438 60.449219 146.171875 60.980469 C 147.535156 61.785156 148.898438 62.589844 150.261719 63.394531 C 150.332031 63.144531 150.429688 62.902344 150.546875 62.667969 C 150.769531 62.203125 151.015625 61.824219 151.273438 61.527344 C 148.894531 60.144531 146.488281 58.75 144.054688 57.339844 Z M 140.765625 51.765625 C 140.671875 52.15625 140.566406 52.488281 140.449219 52.761719 C 142.488281 53.898438 144.507812 55.03125 146.511719 56.167969 C 146.605469 55.933594 146.734375 55.640625 146.902344 55.300781 C 147.105469 54.882812 147.273438 54.558594 147.417969 54.324219 C 145.296875 53.082031 143.167969 51.855469 141.035156 50.648438 C 140.984375 50.886719 140.898438 51.257812 140.765625 51.765625 Z M 148.289062 54.835938 C 148.242188 55.121094 148.171875 55.542969 148.074219 56.097656 C 147.980469 56.417969 147.878906 56.703125 147.773438 56.949219 C 149.894531 58.15625 152.011719 59.394531 154.121094 60.660156 C 154.25 60.363281 154.398438 60.03125 154.566406 59.664062 C 154.707031 59.289062 154.839844 58.972656 154.957031 58.726562 C 152.75 57.410156 150.527344 56.117188 148.289062 54.835938 Z M 135.167969 57.304688 C 134.894531 57.90625 134.621094 58.554688 134.347656 59.238281 C 135.890625 60.117188 137.425781 60.984375 138.953125 61.847656 C 139.214844 61.222656 139.5625 60.628906 140.003906 60.074219 C 138.402344 59.152344 136.792969 58.226562 135.167969 57.304688 Z M 136.003906 55.226562 C 138.042969 56.375 140.066406 57.519531 142.082031 58.652344 C 142.261719 58.074219 142.59375 57.464844 143.078125 56.828125 C 141.003906 55.617188 138.914062 54.429688 136.800781 53.257812 C 136.554688 53.898438 136.285156 54.554688 136.003906 55.226562 Z M 140.128906 50.097656 C 139.535156 49.777344 138.945312 49.453125 138.367188 49.121094 C 138.105469 49.773438 137.851562 50.433594 137.601562 51.109375 C 138.183594 51.429688 138.753906 51.761719 139.308594 52.105469 C 139.605469 51.273438 139.878906 50.605469 140.128906 50.097656 Z M 129.511719 29.664062 C 129.464844 29.984375 129.359375 30.410156 129.191406 30.941406 C 129.109375 31.261719 129.007812 31.53125 128.890625 31.742188 C 129.816406 32.25 130.726562 32.773438 131.628906 33.304688 C 132.992188 34.109375 134.355469 34.914062 135.71875 35.71875 C 135.789062 35.46875 135.882812 35.226562 136.003906 34.992188 C 136.226562 34.527344 136.46875 34.152344 136.730469 33.855469 C 134.347656 32.46875 131.941406 31.074219 129.511719 29.664062 Z M 143.167969 33.800781 C 143.488281 33.199219 143.796875 32.554688 144.09375 31.867188 C 139.636719 29.25 135.035156 26.582031 130.292969 23.859375 C 130.199219 24.132812 130.027344 24.511719 129.777344 24.996094 C 129.636719 25.28125 129.496094 25.535156 129.351562 25.761719 C 130.738281 26.550781 132.136719 27.339844 133.550781 28.121094 C 136.761719 30.011719 139.964844 31.90625 143.167969 33.800781 Z M 96.671875 90.429688 L 94.59375 91.636719 L 103.714844 96.875 L 103.695312 96.890625 L 107.109375 98.863281 C 107.453125 98.648438 107.886719 98.417969 108.40625 98.171875 C 108.75 98.003906 109.058594 97.863281 109.332031 97.742188 Z M 92.371094 92.914062 L 90.269531 94.121094 L 97.472656 98.277344 C 97.757812 98.027344 98.140625 97.761719 98.628906 97.476562 C 98.925781 97.300781 99.203125 97.152344 99.464844 97.035156 Z M 144.890625 29.789062 C 145.152344 29.089844 145.398438 28.421875 145.621094 27.785156 C 144.257812 26.964844 142.871094 26.15625 141.460938 25.351562 C 141.367188 25.648438 141.230469 26.039062 141.050781 26.523438 C 140.957031 26.832031 140.851562 27.109375 140.730469 27.359375 C 142.140625 28.160156 143.53125 28.972656 144.890625 29.789062 Z M 73.628906 85 C 74.445312 84.429688 75.132812 84.03125 75.691406 83.808594 L 70.785156 80.953125 L 68.703125 82.15625 Z M 75.585938 85.226562 C 75.347656 85.417969 75.128906 85.589844 74.925781 85.746094 L 77.824219 87.394531 L 77.808594 87.429688 L 81.578125 89.59375 C 81.96875 89.359375 82.4375 89.105469 82.980469 88.832031 C 83.265625 88.691406 83.53125 88.566406 83.78125 88.460938 L 76.5625 84.289062 C 76.324219 84.546875 76 84.863281 75.585938 85.226562 Z M 75.871094 88.886719 C 75.597656 89.253906 75.210938 89.632812 74.714844 90.019531 C 74.558594 90.140625 74.40625 90.253906 74.25 90.359375 L 76.472656 91.65625 C 76.722656 91.429688 77.015625 91.183594 77.347656 90.910156 C 77.664062 90.660156 77.980469 90.449219 78.289062 90.269531 Z M 72.652344 94 C 72.546875 94.082031 72.445312 94.160156 72.347656 94.230469 L 78.269531 97.65625 L 80.332031 96.449219 L 74.003906 92.792969 C 73.695312 93.121094 73.242188 93.523438 72.652344 94 Z M 79 91.941406 C 78.714844 92.210938 78.449219 92.441406 78.199219 92.632812 L 82.574219 95.167969 L 84.671875 93.964844 L 79.800781 91.140625 C 79.574219 91.390625 79.308594 91.65625 79 91.941406 Z M 84.992188 89.1875 C 84.480469 89.519531 83.824219 89.933594 83.015625 90.429688 L 86.910156 92.667969 L 88.972656 91.476562 Z M 92.691406 72.996094 L 86.714844 69.535156 L 84.617188 70.742188 L 90.949219 74.382812 C 91.46875 73.8125 92.050781 73.351562 92.691406 72.996094 Z M 90.824219 79.761719 C 91.25 80.046875 91.457031 80.386719 91.445312 80.789062 C 91.445312 81.242188 91.171875 81.625 90.625 81.945312 C 90.617188 81.957031 90.609375 81.96875 90.609375 81.980469 C 90.0625 82.277344 89.417969 82.429688 88.671875 82.441406 C 88.007812 82.464844 87.425781 82.351562 86.929688 82.105469 C 86.871094 82.082031 86.8125 82.058594 86.75 82.03125 C 86.21875 81.726562 85.949219 81.347656 85.949219 80.898438 C 85.960938 80.460938 86.234375 80.082031 86.769531 79.761719 C 86.769531 79.75 86.773438 79.742188 86.785156 79.742188 C 86.820312 79.71875 86.863281 79.695312 86.910156 79.671875 C 87.421875 79.402344 88.023438 79.253906 88.726562 79.230469 C 89.449219 79.21875 90.070312 79.351562 90.59375 79.636719 C 90.617188 79.648438 90.640625 79.660156 90.664062 79.671875 C 90.699219 79.695312 90.75 79.726562 90.824219 79.761719 Z M 93.988281 77.859375 C 93.003906 77.292969 91.871094 76.9375 90.59375 76.796875 C 90.058594 76.726562 89.496094 76.695312 88.902344 76.707031 C 88.203125 76.730469 87.539062 76.789062 86.910156 76.886719 C 85.738281 77.109375 84.695312 77.5 83.78125 78.058594 L 83.800781 78.074219 C 82.496094 78.84375 81.785156 79.742188 81.664062 80.773438 C 81.640625 80.867188 81.628906 80.96875 81.628906 81.074219 C 81.617188 82.234375 82.304688 83.222656 83.691406 84.039062 C 85.089844 84.84375 86.785156 85.226562 88.777344 85.195312 C 90.78125 85.15625 92.492188 84.714844 93.917969 83.863281 L 93.898438 83.863281 C 95.320312 83 96.039062 81.980469 96.050781 80.808594 C 96.0625 80.796875 96.0625 80.777344 96.050781 80.753906 C 96.0625 79.632812 95.375 78.667969 93.988281 77.859375 Z M 107.839844 75.875 L 105.546875 74.523438 L 107.839844 73.210938 Z M 66.480469 83.453125 L 64.367188 84.644531 L 72.222656 89.1875 C 72.355469 89.070312 72.496094 88.957031 72.652344 88.851562 C 73.183594 88.484375 73.773438 88.210938 74.410156 88.035156 Z M 62.144531 85.9375 L 60.082031 87.128906 L 71.300781 93.625 C 71.75 93.269531 72.09375 93.003906 72.332031 92.828125 C 72.617188 92.613281 72.894531 92.449219 73.167969 92.328125 Z M 124.179688 20.398438 C 123.90625 21 123.632812 21.644531 123.359375 22.332031 C 124.902344 23.210938 126.4375 24.078125 127.964844 24.941406 C 128.226562 24.316406 128.578125 23.722656 129.015625 23.167969 C 127.414062 22.242188 125.800781 21.320312 124.179688 20.398438 Z M 125.816406 16.351562 C 125.566406 16.988281 125.296875 17.648438 125.015625 18.320312 C 127.050781 19.46875 129.078125 20.613281 131.09375 21.746094 C 131.273438 21.167969 131.605469 20.558594 132.089844 19.917969 C 130.015625 18.710938 127.921875 17.523438 125.816406 16.351562 Z M 132.445312 22.511719 C 133.371094 23.019531 134.285156 23.539062 135.183594 24.074219 C 136.546875 24.878906 137.910156 25.683594 139.273438 26.488281 C 139.34375 26.238281 139.441406 25.996094 139.558594 25.761719 C 139.785156 25.296875 140.027344 24.917969 140.289062 24.621094 C 137.90625 23.238281 135.496094 21.84375 133.070312 20.433594 C 133.019531 20.753906 132.914062 21.179688 132.75 21.710938 C 132.664062 22.03125 132.5625 22.296875 132.445312 22.511719 Z M 157.375 62.542969 C 157.609375 61.867188 157.832031 61.203125 158.03125 60.554688 C 157.273438 60.09375 156.519531 59.644531 155.773438 59.203125 C 155.714844 59.464844 155.578125 59.914062 155.363281 60.554688 C 155.292969 60.8125 155.210938 61.03125 155.117188 61.210938 C 155.863281 61.671875 156.617188 62.117188 157.375 62.542969 Z M 100.425781 87.996094 L 99.074219 88.777344 L 103.839844 91.53125 C 104.253906 91.171875 104.640625 90.878906 105.011719 90.644531 L 105.222656 90.769531 L 114.984375 85.175781 L 111.535156 83.1875 L 111.535156 81.742188 L 116.675781 84.730469 C 117.5625 85.242188 118.453125 85.242188 119.339844 84.730469 L 123.34375 82.441406 L 123.34375 85.226562 L 122.445312 85.746094 L 121.28125 85.070312 L 113.15625 89.71875 L 125.015625 96.574219 L 131.253906 93.003906 L 132.230469 93.570312 C 133.121094 94.082031 134.011719 94.082031 134.898438 93.570312 L 145.175781 87.679688 C 145.554688 87.464844 145.78125 87.246094 145.851562 87.023438 C 145.863281 86.960938 145.859375 86.902344 145.835938 86.84375 C 145.808594 86.605469 145.59375 86.375 145.175781 86.152344 L 143.382812 85.113281 L 143.382812 84.164062 C 143.582031 83.964844 143.78125 83.761719 143.984375 83.558594 C 143.785156 83.429688 143.582031 83.300781 143.382812 83.171875 L 143.382812 80.300781 C 144.179688 80.792969 144.980469 81.289062 145.78125 81.785156 C 146.292969 81.191406 146.824219 80.605469 147.382812 80.027344 C 146.078125 79.234375 144.746094 78.433594 143.382812 77.621094 L 143.382812 74.78125 C 145.28125 75.910156 147.183594 77.039062 149.089844 78.164062 C 149.574219 77.582031 150.058594 77.003906 150.546875 76.425781 C 148.234375 75.015625 145.847656 73.59375 143.382812 72.152344 L 143.382812 70.066406 C 143.382812 70.042969 143.382812 70.027344 143.382812 70.015625 C 143.355469 69.800781 143.179688 69.601562 142.847656 69.414062 L 134.492188 64.601562 C 133.769531 64.1875 133.03125 64.1875 132.285156 64.601562 L 131.210938 65.222656 C 131.179688 65.207031 131.144531 65.1875 131.113281 65.167969 C 131.050781 65.242188 130.988281 65.316406 130.925781 65.390625 L 129.886719 65.984375 L 129.886719 65.96875 L 127.894531 67.113281 L 127.894531 64.476562 C 128.0625 64.277344 128.226562 64.074219 128.394531 63.871094 C 128.226562 63.773438 128.0625 63.675781 127.894531 63.582031 L 127.894531 60.820312 C 128.535156 61.1875 129.175781 61.558594 129.816406 61.9375 C 130.230469 61.335938 130.617188 60.742188 130.972656 60.164062 C 130.164062 59.675781 129.347656 59.191406 128.515625 58.707031 C 128.421875 58.875 128.238281 59.363281 127.964844 60.179688 C 127.941406 60.242188 127.917969 60.308594 127.894531 60.367188 L 127.894531 54.039062 C 127.894531 54.015625 127.894531 53.992188 127.894531 53.96875 L 127.894531 53.871094 C 128.21875 53.902344 128.527344 53.839844 128.820312 53.683594 C 129.246094 53.46875 129.523438 53.132812 129.652344 52.671875 C 129.738281 52.351562 129.738281 52.042969 129.652344 51.75 L 133.351562 49.726562 C 133.601562 50.007812 133.910156 50.214844 134.277344 50.347656 C 134.761719 50.5 135.21875 50.464844 135.648438 50.238281 C 136.074219 50.027344 136.351562 49.6875 136.484375 49.226562 C 136.601562 48.777344 136.53125 48.328125 136.269531 47.878906 C 136.019531 47.453125 135.652344 47.15625 135.167969 46.992188 C 134.679688 46.847656 134.21875 46.886719 133.78125 47.097656 C 133.375 47.320312 133.105469 47.664062 132.960938 48.128906 C 132.890625 48.351562 132.878906 48.578125 132.925781 48.800781 L 129.085938 50.878906 C 128.910156 50.703125 128.695312 50.5625 128.445312 50.46875 L 128.605469 43.457031 C 128.703125 43.410156 128.808594 43.371094 128.925781 43.335938 C 129.351562 43.109375 129.625 42.769531 129.742188 42.320312 C 129.863281 41.859375 129.796875 41.417969 129.546875 40.992188 C 129.289062 40.550781 128.914062 40.257812 128.425781 40.101562 C 128.246094 40.039062 128.070312 40.003906 127.894531 39.996094 L 127.894531 36.179688 C 128.589844 36.570312 129.289062 36.964844 129.992188 37.351562 C 133.203125 39.246094 136.410156 41.140625 139.609375 43.03125 C 139.933594 42.429688 140.242188 41.785156 140.535156 41.097656 C 136.078125 38.480469 131.480469 35.8125 126.738281 33.089844 C 126.734375 33.097656 126.734375 33.109375 126.730469 33.117188 L 119.003906 28.6875 C 118.691406 28.507812 118.375 28.402344 118.0625 28.378906 L 125.28125 10.546875 C 125.789062 9.316406 126.507812 8.964844 127.433594 9.5 L 170.976562 34.582031 C 171.898438 35.136719 172.121094 36.039062 171.632812 37.28125 L 157.375 72.570312 C 153.769531 80.214844 148.007812 86.558594 140.089844 91.601562 L 139.503906 91.972656 L 139.46875 91.972656 L 100.40625 114.484375 L 100.371094 114.484375 C 99.292969 115.113281 98.277344 115.160156 97.332031 114.625 L 53.820312 89.542969 C 52.875 88.972656 52.945312 88.390625 54.035156 87.785156 L 92.742188 65.472656 L 92.742188 66.890625 L 91.230469 67.761719 C 90.769531 68.035156 90.542969 68.300781 90.554688 68.558594 C 90.566406 68.796875 90.792969 69.042969 91.230469 69.304688 L 95.285156 71.648438 L 95.269531 71.664062 L 96.226562 72.199219 L 96.246094 72.199219 L 101.542969 75.289062 C 102.035156 75.570312 102.527344 75.695312 103.019531 75.667969 L 100.191406 77.347656 L 94.503906 74.0625 C 94.242188 74.230469 93.910156 74.425781 93.507812 74.648438 C 93.117188 74.898438 92.773438 75.097656 92.476562 75.253906 L 93.738281 75.980469 L 93.722656 75.996094 L 98.984375 79.03125 L 98.984375 83.339844 L 95.660156 85.246094 Z M 137.90625 34.582031 C 137.808594 34.878906 137.671875 35.269531 137.496094 35.753906 C 137.402344 36.0625 137.292969 36.339844 137.175781 36.589844 C 138.585938 37.394531 139.972656 38.203125 141.335938 39.019531 C 141.597656 38.324219 141.839844 37.652344 142.066406 37.015625 C 140.703125 36.199219 139.316406 35.386719 137.90625 34.582031 Z M 158.796875 58.40625 C 159.007812 57.765625 159.253906 57.109375 159.523438 56.433594 C 153.054688 52.578125 146.535156 48.789062 139.964844 45.074219 C 139.753906 45.699219 139.488281 46.34375 139.167969 47.007812 C 142.496094 48.902344 145.78125 50.785156 149.019531 52.65625 L 149.019531 52.6875 C 152.300781 54.582031 155.558594 56.488281 158.796875 58.40625 Z M 156.839844 31.867188 L 156.859375 31.847656 C 156.835938 31.847656 156.8125 31.84375 156.785156 31.832031 C 156.777344 31.820312 156.761719 31.808594 156.753906 31.796875 C 155.460938 31.035156 154.125 30.675781 152.75 30.710938 C 152.191406 30.734375 151.65625 30.832031 151.132812 30.996094 C 150.363281 31.199219 149.628906 31.570312 148.929688 32.113281 L 149.019531 32.203125 C 147.699219 33.230469 146.800781 34.640625 146.316406 36.429688 C 145.875 38.238281 145.96875 40.085938 146.597656 41.96875 L 146.632812 41.96875 C 147.371094 44.015625 148.597656 45.605469 150.316406 46.742188 C 151.015625 47.214844 151.714844 47.554688 152.414062 47.753906 L 152.394531 47.773438 C 153.652344 48.152344 154.890625 48.1875 156.113281 47.878906 C 156.183594 47.855469 156.253906 47.835938 156.324219 47.824219 C 156.777344 47.695312 157.191406 47.515625 157.570312 47.292969 L 158.476562 46.742188 L 158.789062 46.476562 C 159.378906 45.953125 159.882812 45.3125 160.308594 44.558594 C 161.339844 42.761719 161.664062 40.722656 161.285156 38.453125 L 161.179688 38.46875 C 160.929688 37.0625 160.414062 35.777344 159.632812 34.617188 C 158.875 33.457031 157.941406 32.539062 156.839844 31.867188 " fill-opacity="1" fill-rule="evenodd"/></g><path fill="#d6dff3" d="M 89.292969 103.511719 L 81.648438 99.09375 L 83.730469 97.90625 L 91.550781 102.429688 C 90.542969 102.773438 89.792969 103.136719 89.292969 103.511719 Z M 99.835938 109.621094 L 90.824219 104.402344 C 91 104.257812 91.191406 104.105469 91.390625 103.941406 C 91.867188 103.574219 92.25 103.265625 92.546875 103.015625 L 101.917969 108.414062 Z M 109.332031 99.234375 C 109.769531 98.855469 110.109375 98.554688 110.347656 98.332031 L 114.878906 100.957031 L 112.800781 102.148438 L 108.65625 99.769531 C 108.882812 99.613281 109.105469 99.4375 109.332031 99.234375 Z M 151.96875 74.488281 C 151.175781 74.027344 150.375 73.554688 149.566406 73.066406 C 149.710938 72.855469 149.839844 72.625 149.960938 72.375 C 150.160156 71.996094 150.332031 71.589844 150.476562 71.152344 C 151.351562 71.683594 152.230469 72.207031 153.105469 72.714844 C 152.761719 73.292969 152.382812 73.886719 151.96875 74.488281 Z M 148.359375 72.339844 C 147.613281 71.902344 146.859375 71.464844 146.101562 71.027344 C 146.21875 70.839844 146.355469 70.609375 146.511719 70.335938 C 146.722656 69.910156 146.902344 69.5 147.042969 69.109375 C 147.921875 69.617188 148.785156 70.128906 149.640625 70.636719 C 149.25 71.003906 148.820312 71.570312 148.359375 72.339844 Z M 152.449219 62.257812 C 153.859375 63.0625 155.246094 63.871094 156.609375 64.691406 C 156.382812 65.328125 156.140625 65.996094 155.878906 66.695312 C 154.515625 65.878906 153.132812 65.070312 151.71875 64.265625 C 151.835938 64.015625 151.945312 63.738281 152.039062 63.429688 C 152.21875 62.945312 152.355469 62.550781 152.449219 62.257812 Z M 105.757812 92.167969 C 106.195312 91.753906 106.582031 91.335938 106.914062 90.910156 L 119.339844 98.097656 L 117.28125 99.289062 L 108.175781 94.035156 L 108.195312 94.015625 L 105.4375 92.4375 C 105.546875 92.355469 105.652344 92.265625 105.757812 92.167969 Z M 122.257812 25.582031 C 124.367188 26.753906 126.460938 27.941406 128.535156 29.148438 C 128.046875 29.789062 127.714844 30.398438 127.539062 30.980469 C 125.523438 29.84375 123.496094 28.699219 121.457031 27.550781 C 121.742188 26.878906 122.007812 26.21875 122.257812 25.582031 Z M 144.054688 57.339844 C 146.488281 58.75 148.894531 60.144531 151.273438 61.527344 C 151.015625 61.824219 150.769531 62.203125 150.546875 62.667969 C 150.429688 62.902344 150.332031 63.144531 150.261719 63.394531 C 148.898438 62.589844 147.535156 61.785156 146.171875 60.980469 C 145.273438 60.449219 144.359375 59.925781 143.433594 59.417969 C 143.554688 59.203125 143.652344 58.9375 143.738281 58.617188 C 143.902344 58.085938 144.007812 57.660156 144.054688 57.339844 Z M 136.003906 55.226562 C 136.285156 54.554688 136.554688 53.898438 136.800781 53.257812 C 138.914062 54.429688 141.003906 55.617188 143.078125 56.828125 C 142.59375 57.464844 142.261719 58.074219 142.082031 58.652344 C 140.066406 57.519531 138.042969 56.375 136.003906 55.226562 Z M 135.167969 57.304688 C 136.792969 58.226562 138.402344 59.152344 140.003906 60.074219 C 139.5625 60.628906 139.214844 61.222656 138.953125 61.847656 C 137.425781 60.984375 135.890625 60.117188 134.347656 59.238281 C 134.621094 58.554688 134.894531 57.90625 135.167969 57.304688 Z M 137.90625 34.582031 C 139.316406 35.386719 140.703125 36.199219 142.066406 37.015625 C 141.839844 37.652344 141.597656 38.324219 141.335938 39.019531 C 139.972656 38.203125 138.585938 37.394531 137.175781 36.589844 C 137.292969 36.339844 137.402344 36.0625 137.496094 35.753906 C 137.671875 35.269531 137.808594 34.878906 137.90625 34.582031 Z M 100.425781 87.996094 L 105.011719 90.644531 C 104.640625 90.878906 104.253906 91.171875 103.839844 91.53125 L 99.074219 88.777344 Z M 143.382812 84.164062 L 143.382812 83.171875 C 143.582031 83.300781 143.785156 83.429688 143.984375 83.558594 C 143.78125 83.761719 143.582031 83.964844 143.382812 84.164062 Z M 143.382812 77.621094 C 144.746094 78.433594 146.078125 79.234375 147.382812 80.027344 C 146.824219 80.605469 146.292969 81.191406 145.78125 81.785156 C 144.980469 81.289062 144.179688 80.792969 143.382812 80.300781 Z M 131.210938 65.222656 L 130.925781 65.390625 C 130.988281 65.316406 131.050781 65.242188 131.113281 65.167969 C 131.144531 65.1875 131.179688 65.207031 131.210938 65.222656 Z M 127.894531 64.476562 L 127.894531 63.582031 C 128.0625 63.675781 128.226562 63.773438 128.394531 63.871094 C 128.226562 64.074219 128.0625 64.277344 127.894531 64.476562 Z M 127.894531 60.367188 C 127.917969 60.308594 127.941406 60.242188 127.964844 60.179688 C 128.238281 59.363281 128.421875 58.875 128.515625 58.707031 C 129.347656 59.191406 130.164062 59.675781 130.972656 60.164062 C 130.617188 60.742188 130.230469 61.335938 129.816406 61.9375 C 129.175781 61.558594 128.535156 61.1875 127.894531 60.820312 Z M 129.511719 29.664062 C 131.941406 31.074219 134.347656 32.46875 136.730469 33.855469 C 136.46875 34.152344 136.226562 34.527344 136.003906 34.992188 C 135.882812 35.226562 135.789062 35.46875 135.71875 35.71875 C 134.355469 34.914062 132.992188 34.109375 131.628906 33.304688 C 130.726562 32.773438 129.816406 32.25 128.890625 31.742188 C 129.007812 31.53125 129.109375 31.261719 129.191406 30.941406 C 129.359375 30.410156 129.464844 29.984375 129.511719 29.664062 Z M 144.890625 29.789062 C 143.53125 28.972656 142.140625 28.160156 140.730469 27.359375 C 140.851562 27.109375 140.957031 26.832031 141.050781 26.523438 C 141.230469 26.039062 141.367188 25.648438 141.460938 25.351562 C 142.871094 26.15625 144.257812 26.964844 145.621094 27.785156 C 145.398438 28.421875 145.152344 29.089844 144.890625 29.789062 Z M 92.371094 92.914062 L 99.464844 97.035156 C 99.203125 97.152344 98.925781 97.300781 98.628906 97.476562 C 98.140625 97.761719 97.757812 98.027344 97.472656 98.277344 L 90.269531 94.121094 Z M 96.671875 90.429688 L 109.332031 97.742188 C 109.058594 97.863281 108.75 98.003906 108.40625 98.171875 C 107.886719 98.417969 107.453125 98.648438 107.109375 98.863281 L 103.695312 96.890625 L 103.714844 96.875 L 94.59375 91.636719 Z M 84.992188 89.1875 L 88.972656 91.476562 L 86.910156 92.667969 L 83.015625 90.429688 C 83.824219 89.933594 84.480469 89.519531 84.992188 89.1875 Z M 79 91.941406 C 79.308594 91.65625 79.574219 91.390625 79.800781 91.140625 L 84.671875 93.964844 L 82.574219 95.167969 L 78.199219 92.632812 C 78.449219 92.441406 78.714844 92.210938 79 91.941406 Z M 72.652344 94 C 73.242188 93.523438 73.695312 93.121094 74.003906 92.792969 L 80.332031 96.449219 L 78.269531 97.65625 L 72.347656 94.230469 C 72.445312 94.160156 72.546875 94.082031 72.652344 94 Z M 75.871094 88.886719 L 78.289062 90.269531 C 77.980469 90.449219 77.664062 90.660156 77.347656 90.910156 C 77.015625 91.183594 76.722656 91.429688 76.472656 91.65625 L 74.25 90.359375 C 74.40625 90.253906 74.558594 90.140625 74.714844 90.019531 C 75.210938 89.632812 75.597656 89.253906 75.871094 88.886719 Z M 75.585938 85.226562 C 76 84.863281 76.324219 84.546875 76.5625 84.289062 L 83.78125 88.460938 C 83.53125 88.566406 83.265625 88.691406 82.980469 88.832031 C 82.4375 89.105469 81.96875 89.359375 81.578125 89.59375 L 77.808594 87.429688 L 77.824219 87.394531 L 74.925781 85.746094 C 75.128906 85.589844 75.347656 85.417969 75.585938 85.226562 Z M 73.628906 85 L 68.703125 82.15625 L 70.785156 80.953125 L 75.691406 83.808594 C 75.132812 84.03125 74.445312 84.429688 73.628906 85 Z M 92.691406 72.996094 C 92.050781 73.351562 91.46875 73.8125 90.949219 74.382812 L 84.617188 70.742188 L 86.714844 69.535156 Z M 62.144531 85.9375 L 73.167969 92.328125 C 72.894531 92.449219 72.617188 92.613281 72.332031 92.828125 C 72.09375 93.003906 71.75 93.269531 71.300781 93.625 L 60.082031 87.128906 Z M 66.480469 83.453125 L 74.410156 88.035156 C 73.773438 88.210938 73.183594 88.484375 72.652344 88.851562 C 72.496094 88.957031 72.355469 89.070312 72.222656 89.1875 L 64.367188 84.644531 Z M 132.445312 22.511719 C 132.5625 22.296875 132.664062 22.03125 132.75 21.710938 C 132.914062 21.179688 133.019531 20.753906 133.070312 20.433594 C 135.496094 21.84375 137.90625 23.238281 140.289062 24.621094 C 140.027344 24.917969 139.785156 25.296875 139.558594 25.761719 C 139.441406 25.996094 139.34375 26.238281 139.273438 26.488281 C 137.910156 25.683594 136.546875 24.878906 135.183594 24.074219 C 134.285156 23.539062 133.371094 23.019531 132.445312 22.511719 Z M 125.816406 16.351562 C 127.921875 17.523438 130.015625 18.710938 132.089844 19.917969 C 131.605469 20.558594 131.273438 21.167969 131.09375 21.746094 C 129.078125 20.613281 127.050781 19.46875 125.015625 18.320312 C 125.296875 17.648438 125.566406 16.988281 125.816406 16.351562 Z M 124.179688 20.398438 C 125.800781 21.320312 127.414062 22.242188 129.015625 23.167969 C 128.578125 23.722656 128.226562 24.316406 127.964844 24.941406 C 126.4375 24.078125 124.902344 23.210938 123.359375 22.332031 C 123.632812 21.644531 123.90625 21 124.179688 20.398438 " fill-opacity="1" fill-rule="evenodd"/><path fill="#f13ea7" d="M 100.300781 103.636719 C 99.957031 103.921875 99.660156 104.175781 99.410156 104.402344 L 95.054688 101.878906 L 95.070312 101.863281 L 85.949219 96.609375 L 88.046875 95.417969 L 101.152344 103 C 100.90625 103.175781 100.621094 103.390625 100.300781 103.636719 Z M 104.15625 107.136719 L 101.082031 105.378906 C 101.378906 105.117188 101.675781 104.804688 101.972656 104.4375 C 102.171875 104.199219 102.34375 103.976562 102.488281 103.761719 L 106.238281 105.925781 Z M 143.382812 74.78125 L 143.382812 72.152344 C 145.847656 73.59375 148.234375 75.015625 150.546875 76.425781 C 150.058594 77.003906 149.574219 77.582031 149.089844 78.164062 C 147.183594 77.039062 145.28125 75.910156 143.382812 74.78125 Z M 143.167969 33.800781 C 139.964844 31.90625 136.761719 30.011719 133.550781 28.121094 C 132.136719 27.339844 130.738281 26.550781 129.351562 25.761719 C 129.496094 25.535156 129.636719 25.28125 129.777344 24.996094 C 130.027344 24.511719 130.199219 24.132812 130.292969 23.859375 C 135.035156 26.582031 139.636719 29.25 144.09375 31.867188 C 143.796875 32.554688 143.488281 33.199219 143.167969 33.800781 Z M 93.988281 77.859375 L 90.824219 79.761719 C 90.75 79.726562 90.699219 79.695312 90.664062 79.671875 C 90.640625 79.660156 90.617188 79.648438 90.59375 79.636719 C 90.070312 79.351562 89.449219 79.21875 88.726562 79.230469 C 88.023438 79.253906 87.421875 79.402344 86.910156 79.671875 C 86.863281 79.695312 86.820312 79.71875 86.785156 79.742188 C 86.773438 79.742188 86.769531 79.75 86.769531 79.761719 L 83.800781 78.074219 L 83.78125 78.058594 C 84.695312 77.5 85.738281 77.109375 86.910156 76.886719 C 87.539062 76.789062 88.203125 76.730469 88.902344 76.707031 C 89.496094 76.695312 90.058594 76.726562 90.59375 76.796875 C 91.871094 76.9375 93.003906 77.292969 93.988281 77.859375 Z M 107.839844 75.875 L 111.535156 78.058594 L 105.261719 81.730469 L 98.984375 78.058594 L 98.984375 79.03125 L 93.722656 75.996094 L 93.738281 75.980469 L 92.476562 75.253906 C 92.773438 75.097656 93.117188 74.898438 93.507812 74.648438 C 93.910156 74.425781 94.242188 74.230469 94.503906 74.0625 L 100.191406 77.347656 L 103.019531 75.667969 L 105.242188 74.347656 L 105.546875 74.523438 Z M 153.65625 39.660156 L 146.632812 41.96875 L 146.597656 41.96875 C 145.96875 40.085938 145.875 38.238281 146.316406 36.429688 C 146.800781 34.640625 147.699219 33.230469 149.019531 32.203125 L 153.417969 38.984375 L 153.640625 39.339844 L 153.65625 39.394531 L 153.675781 39.339844 L 153.675781 39.394531 L 153.710938 39.394531 L 153.65625 39.410156 Z M 158.789062 46.476562 C 158.957031 46.316406 159.121094 46.144531 159.277344 45.960938 L 153.746094 39.429688 L 153.765625 39.410156 L 161.160156 38.558594 C 161.171875 38.535156 161.179688 38.503906 161.179688 38.46875 L 161.285156 38.453125 C 161.664062 40.722656 161.339844 42.761719 160.308594 44.558594 C 159.882812 45.3125 159.378906 45.953125 158.789062 46.476562 " fill-opacity="1" fill-rule="evenodd"/><path fill="#9cc1e9" d="M 100.460938 97.621094 L 110.558594 103.441406 L 108.480469 104.632812 L 99.375 99.394531 L 99.394531 99.378906 L 98.824219 99.039062 C 99.046875 98.851562 99.304688 98.632812 99.589844 98.382812 C 99.945312 98.078125 100.234375 97.820312 100.460938 97.621094 Z M 154.15625 70.707031 C 150.957031 68.816406 147.75 66.921875 144.535156 65.027344 C 143.125 64.246094 141.726562 63.460938 140.339844 62.667969 C 140.484375 62.441406 140.625 62.1875 140.765625 61.902344 C 141.015625 61.417969 141.1875 61.039062 141.285156 60.765625 C 146.023438 63.488281 150.625 66.15625 155.078125 68.773438 C 154.785156 69.460938 154.476562 70.105469 154.15625 70.707031 Z M 127.894531 36.179688 L 127.894531 34.15625 C 127.894531 34.132812 127.894531 34.109375 127.894531 34.085938 C 127.871094 33.882812 127.691406 33.683594 127.359375 33.480469 L 126.730469 33.117188 C 126.734375 33.109375 126.734375 33.097656 126.738281 33.089844 C 131.480469 35.8125 136.078125 38.480469 140.535156 41.097656 C 140.242188 41.785156 139.933594 42.429688 139.609375 43.03125 C 136.410156 41.140625 133.203125 39.246094 129.992188 37.351562 C 129.289062 36.964844 128.589844 36.570312 127.894531 36.179688 " fill-opacity="1" fill-rule="evenodd"/><path fill="#959595" d="M 158.796875 58.40625 C 155.558594 56.488281 152.300781 54.582031 149.019531 52.6875 L 149.019531 52.65625 C 145.78125 50.785156 142.496094 48.902344 139.167969 47.007812 C 139.488281 46.34375 139.753906 45.699219 139.964844 45.074219 C 146.535156 48.789062 153.054688 52.578125 159.523438 56.433594 C 159.253906 57.109375 159.007812 57.765625 158.796875 58.40625 " fill-opacity="1" fill-rule="evenodd"/><path fill="#cdccca" d="M 148.289062 54.835938 C 150.527344 56.117188 152.75 57.410156 154.957031 58.726562 C 154.839844 58.972656 154.707031 59.289062 154.566406 59.664062 C 154.398438 60.03125 154.25 60.363281 154.121094 60.660156 C 152.011719 59.394531 149.894531 58.15625 147.773438 56.949219 C 147.878906 56.703125 147.980469 56.417969 148.074219 56.097656 C 148.171875 55.542969 148.242188 55.121094 148.289062 54.835938 Z M 140.765625 51.765625 C 140.898438 51.257812 140.984375 50.886719 141.035156 50.648438 C 143.167969 51.855469 145.296875 53.082031 147.417969 54.324219 C 147.273438 54.558594 147.105469 54.882812 146.902344 55.300781 C 146.734375 55.640625 146.605469 55.933594 146.511719 56.167969 C 144.507812 55.03125 142.488281 53.898438 140.449219 52.761719 C 140.566406 52.488281 140.671875 52.15625 140.765625 51.765625 Z M 140.128906 50.097656 C 139.878906 50.605469 139.605469 51.273438 139.308594 52.105469 C 138.753906 51.761719 138.183594 51.429688 137.601562 51.109375 C 137.851562 50.433594 138.105469 49.773438 138.367188 49.121094 C 138.945312 49.453125 139.535156 49.777344 140.128906 50.097656 Z M 157.375 62.542969 C 156.617188 62.117188 155.863281 61.671875 155.117188 61.210938 C 155.210938 61.03125 155.292969 60.8125 155.363281 60.554688 C 155.578125 59.914062 155.714844 59.464844 155.773438 59.203125 C 156.519531 59.644531 157.273438 60.09375 158.03125 60.554688 C 157.832031 61.203125 157.609375 61.867188 157.375 62.542969 " fill-opacity="1" fill-rule="evenodd"/><path fill="#ef277b" d="M 127.894531 53.871094 L 127.894531 39.996094 C 128.070312 40.003906 128.246094 40.039062 128.425781 40.101562 C 128.914062 40.257812 129.289062 40.550781 129.546875 40.992188 C 129.796875 41.417969 129.863281 41.859375 129.742188 42.320312 C 129.625 42.769531 129.351562 43.109375 128.925781 43.335938 C 128.808594 43.371094 128.703125 43.410156 128.605469 43.457031 L 128.445312 50.46875 C 128.695312 50.5625 128.910156 50.703125 129.085938 50.878906 L 132.925781 48.800781 C 132.878906 48.578125 132.890625 48.351562 132.960938 48.128906 C 133.105469 47.664062 133.375 47.320312 133.78125 47.097656 C 134.21875 46.886719 134.679688 46.847656 135.167969 46.992188 C 135.652344 47.15625 136.019531 47.453125 136.269531 47.878906 C 136.53125 48.328125 136.601562 48.777344 136.484375 49.226562 C 136.351562 49.6875 136.074219 50.027344 135.648438 50.238281 C 135.21875 50.464844 134.761719 50.5 134.277344 50.347656 C 133.910156 50.214844 133.601562 50.007812 133.351562 49.726562 L 129.652344 51.75 C 129.738281 52.042969 129.738281 52.351562 129.652344 52.671875 C 129.523438 53.132812 129.246094 53.46875 128.820312 53.683594 C 128.527344 53.839844 128.21875 53.902344 127.894531 53.871094 " fill-opacity="1" fill-rule="evenodd"/><path fill="#97bce7" d="M 86.769531 79.761719 C 86.234375 80.082031 85.960938 80.460938 85.949219 80.898438 C 85.949219 81.347656 86.21875 81.726562 86.75 82.03125 C 86.8125 82.058594 86.871094 82.082031 86.929688 82.105469 L 83.691406 84.039062 C 82.304688 83.222656 81.617188 82.234375 81.628906 81.074219 C 81.628906 80.96875 81.640625 80.867188 81.664062 80.773438 C 81.785156 79.742188 82.496094 78.84375 83.800781 78.074219 Z M 146.632812 41.96875 L 153.65625 39.660156 L 152.414062 47.753906 C 151.714844 47.554688 151.015625 47.214844 150.316406 46.742188 C 148.597656 45.605469 147.371094 44.015625 146.632812 41.96875 Z M 153.765625 39.410156 L 156.839844 31.867188 C 157.941406 32.539062 158.875 33.457031 159.632812 34.617188 C 160.414062 35.777344 160.929688 37.0625 161.179688 38.46875 C 161.179688 38.503906 161.171875 38.535156 161.160156 38.558594 L 153.765625 39.410156 " fill-opacity="1" fill-rule="evenodd"/><path fill="#fbc907" d="M 86.929688 82.105469 C 87.425781 82.351562 88.007812 82.464844 88.671875 82.441406 C 89.417969 82.429688 90.0625 82.277344 90.609375 81.980469 L 93.898438 83.863281 L 93.917969 83.863281 C 92.492188 84.714844 90.78125 85.15625 88.777344 85.195312 C 86.785156 85.226562 85.089844 84.84375 83.691406 84.039062 Z M 153.417969 38.984375 L 149.019531 32.203125 L 148.929688 32.113281 C 149.628906 31.570312 150.363281 31.199219 151.132812 30.996094 C 151.65625 30.832031 152.191406 30.734375 152.75 30.710938 C 154.125 30.675781 155.460938 31.035156 156.753906 31.796875 C 156.761719 31.808594 156.777344 31.820312 156.785156 31.832031 C 156.8125 31.84375 156.835938 31.847656 156.859375 31.847656 L 156.839844 31.867188 L 153.765625 39.410156 L 153.746094 39.429688 L 153.695312 39.339844 L 153.675781 39.394531 L 153.675781 39.339844 L 153.640625 39.320312 L 153.417969 38.984375 " fill-opacity="1" fill-rule="evenodd"/><path fill="#968bcd" d="M 90.824219 79.761719 L 93.988281 77.859375 C 95.375 78.667969 96.0625 79.632812 96.050781 80.753906 C 96.0625 80.777344 96.0625 80.796875 96.050781 80.808594 C 96.039062 81.980469 95.320312 83 93.898438 83.863281 L 90.609375 81.980469 C 90.609375 81.96875 90.617188 81.957031 90.625 81.945312 C 91.171875 81.625 91.445312 81.242188 91.445312 80.789062 C 91.457031 80.386719 91.25 80.046875 90.824219 79.761719 Z M 153.675781 39.394531 L 153.695312 39.339844 L 153.746094 39.429688 L 159.277344 45.960938 C 159.121094 46.144531 158.957031 46.316406 158.789062 46.476562 L 158.476562 46.742188 L 157.570312 47.292969 C 157.191406 47.515625 156.777344 47.695312 156.324219 47.824219 C 156.253906 47.835938 156.183594 47.855469 156.113281 47.878906 C 154.890625 48.1875 153.652344 48.152344 152.394531 47.773438 L 152.414062 47.753906 L 153.65625 39.660156 L 153.65625 39.429688 L 153.710938 39.394531 L 153.675781 39.394531 " fill-opacity="1" fill-rule="evenodd"/><path fill="#fac009" d="M 153.65625 39.429688 L 153.65625 39.410156 L 153.710938 39.394531 Z M 153.640625 39.320312 L 153.675781 39.339844 L 153.65625 39.394531 L 153.640625 39.339844 L 153.640625 39.320312 " fill-opacity="1" fill-rule="evenodd"/><g clip-path="url(#955d816d5e)"><g clip-path="url(#340f765ee2)"><g clip-path="url(#98fdecfa9e)"><path fill="url(#92b38576ac)" d="M 153.441406 39.410156 L 153.738281 39.304688 L 153.621094 38.917969 L 153.320312 39.019531 Z M 153.441406 39.410156 " fill-rule="nonzero"/></g></g></g><path fill="#cee1f5" d="M 123.332031 86.257812 L 122.445312 85.746094 L 123.34375 85.226562 L 123.34375 85.335938 C 123.320312 85.382812 123.320312 85.449219 123.34375 85.53125 L 123.324219 85.511719 Z M 123.34375 80.90625 L 123.34375 82.441406 L 119.339844 84.730469 C 118.453125 85.242188 117.5625 85.242188 116.675781 84.730469 L 111.535156 81.742188 L 111.535156 80.464844 L 116.730469 83.453125 C 117.449219 83.878906 118.175781 83.875 118.898438 83.4375 Z M 143.382812 85.113281 L 145.175781 86.152344 C 145.59375 86.375 145.808594 86.605469 145.835938 86.84375 C 145.859375 86.902344 145.863281 86.960938 145.851562 87.023438 C 145.78125 87.246094 145.554688 87.464844 145.175781 87.679688 L 134.898438 93.570312 C 134.011719 94.082031 133.121094 94.082031 132.230469 93.570312 L 131.253906 93.003906 L 132.347656 92.375 C 133.03125 92.734375 133.71875 92.710938 134.402344 92.292969 L 142.847656 87.484375 C 143.203125 87.269531 143.382812 87.050781 143.382812 86.824219 Z M 107.839844 71.726562 L 107.839844 73.210938 L 105.546875 74.523438 L 105.242188 74.347656 L 103.019531 75.667969 C 102.527344 75.695312 102.035156 75.570312 101.542969 75.289062 L 96.246094 72.199219 L 96.226562 72.199219 L 95.269531 71.664062 L 95.285156 71.648438 L 91.230469 69.304688 C 90.792969 69.042969 90.566406 68.796875 90.554688 68.558594 C 90.542969 68.300781 90.769531 68.035156 91.230469 67.761719 L 92.742188 66.890625 L 92.742188 67.050781 C 92.71875 67.109375 92.71875 67.175781 92.742188 67.246094 L 92.726562 67.226562 L 92.742188 68.507812 C 92.660156 68.742188 92.832031 68.984375 93.257812 69.234375 L 101.632812 74.042969 C 102.355469 74.472656 103.078125 74.464844 103.800781 74.027344 Z M 112.78125 5.964844 C 112.777344 6.121094 112.601562 6.304688 112.246094 6.515625 L 108.90625 8.414062 L 108.921875 8.433594 L 108.175781 8.878906 L 108.160156 8.878906 L 103.820312 11.378906 C 103.097656 11.78125 102.375 11.777344 101.652344 11.363281 L 93.277344 6.535156 C 92.957031 6.367188 92.773438 6.191406 92.726562 6 L 92.726562 5.984375 C 92.726562 5.9375 92.730469 5.886719 92.742188 5.839844 C 92.765625 5.664062 92.945312 5.484375 93.277344 5.308594 L 95.710938 3.871094 L 95.695312 3.871094 L 99.285156 1.8125 L 99.285156 1.828125 L 101.6875 0.425781 C 102.433594 0.0234375 103.167969 0.0234375 103.890625 0.425781 L 112.246094 5.257812 C 112.578125 5.445312 112.757812 5.640625 112.78125 5.839844 C 112.78125 5.863281 112.78125 5.886719 112.78125 5.910156 Z M 92.742188 34.246094 L 92.742188 34.457031 C 92.734375 34.4375 92.730469 34.421875 92.726562 34.40625 L 92.726562 34.386719 C 92.726562 34.339844 92.730469 34.292969 92.742188 34.246094 " fill-opacity="1" fill-rule="evenodd"/><g clip-path="url(#341a8261a2)"><g clip-path="url(#2aab109008)"><path fill="url(#280f7f0168)" d="M 112.78125 46.066406 L 112.78125 5.964844 L 92.726562 5.964844 L 92.726562 46.066406 Z M 112.78125 46.066406 " fill-rule="nonzero"/></g></g><g clip-path="url(#0877e103ab)"><g clip-path="url(#766cafbd7f)"><path fill="url(#1e39e6fe11)" d="M 107.839844 74.472656 L 107.839844 34.40625 L 92.660156 34.40625 L 92.660156 74.472656 Z M 107.839844 74.472656 " fill-rule="nonzero"/></g></g><path fill="#e2dcf1" d="M 107.839844 54.144531 L 107.820312 54.128906 L 107.820312 54.109375 C 107.820312 54.074219 107.828125 54.042969 107.839844 54.019531 Z M 107.839844 34.261719 L 107.820312 34.246094 L 107.820312 34.226562 C 107.820312 34.191406 107.828125 34.160156 107.839844 34.136719 C 107.839844 34.113281 107.839844 34.097656 107.839844 34.085938 C 107.875 33.90625 108.058594 33.726562 108.390625 33.535156 L 110.824219 32.113281 L 110.808594 32.113281 L 112.78125 30.980469 L 114.382812 30.054688 L 114.382812 30.074219 L 116.800781 28.6875 C 117.21875 28.445312 117.640625 28.339844 118.0625 28.378906 C 118.375 28.402344 118.691406 28.507812 119.003906 28.6875 L 126.730469 33.117188 L 127.359375 33.480469 C 127.691406 33.683594 127.871094 33.882812 127.894531 34.085938 C 127.894531 34.109375 127.894531 34.132812 127.894531 34.15625 L 127.894531 34.226562 C 127.890625 34.371094 127.714844 34.546875 127.359375 34.757812 L 124.019531 36.660156 L 124.035156 36.675781 L 123.269531 37.101562 L 123.253906 37.101562 L 118.933594 39.625 C 118.199219 40.027344 117.46875 40.019531 116.746094 39.605469 L 108.390625 34.777344 C 108.082031 34.601562 107.898438 34.429688 107.839844 34.261719 " fill-opacity="1" fill-rule="evenodd"/><g clip-path="url(#72b5b0a30e)"><g clip-path="url(#c406892c51)"><path fill="url(#a9987d3e3c)" d="M 127.894531 83.878906 L 127.894531 58.09375 L 107.839844 58.09375 L 107.839844 83.878906 Z M 127.894531 83.878906 " fill-rule="nonzero"/></g></g><path fill="#fae146" d="M 130.925781 65.390625 L 131.210938 65.222656 L 132.285156 64.601562 C 133.03125 64.1875 133.769531 64.1875 134.492188 64.601562 L 142.847656 69.414062 C 143.179688 69.601562 143.355469 69.800781 143.382812 70.015625 C 143.382812 70.027344 143.382812 70.042969 143.382812 70.066406 L 143.382812 70.140625 C 143.378906 70.285156 143.199219 70.464844 142.847656 70.691406 L 139.523438 72.570312 L 139.523438 72.589844 L 138.777344 73.035156 L 138.738281 73.035156 L 134.421875 75.535156 C 133.695312 75.9375 132.972656 75.933594 132.25 75.519531 L 123.875 70.691406 C 123.578125 70.535156 123.402344 70.371094 123.34375 70.191406 C 123.332031 70.179688 123.324219 70.167969 123.324219 70.15625 L 123.324219 70.140625 C 123.324219 70.105469 123.332031 70.066406 123.34375 70.035156 L 123.34375 70.015625 C 123.367188 69.824219 123.546875 69.636719 123.875 69.445312 L 126.332031 68.027344 L 126.3125 68.027344 L 127.894531 67.113281 L 129.886719 65.96875 L 129.886719 65.984375 L 130.925781 65.390625 " fill-opacity="1" fill-rule="evenodd"/><g clip-path="url(#289499c7a0)"><g clip-path="url(#c749472565)"><path fill="url(#5c0972324e)" d="M 143.382812 92.734375 L 143.382812 70.140625 L 123.261719 70.140625 L 123.261719 92.734375 Z M 143.382812 92.734375 " fill-rule="nonzero"/></g></g><path fill="#d2e1f5" d="M 132.347656 92.375 L 131.253906 93.003906 L 125.015625 96.574219 L 113.15625 89.71875 L 121.28125 85.070312 L 122.445312 85.746094 L 123.332031 86.257812 L 123.34375 86.773438 C 123.261719 87.011719 123.429688 87.253906 123.859375 87.5 L 132.230469 92.3125 C 132.269531 92.335938 132.308594 92.355469 132.347656 92.375 Z M 105.011719 90.644531 L 100.425781 87.996094 L 95.660156 85.246094 L 98.984375 83.339844 L 98.984375 85.121094 L 105.242188 88.816406 L 105.261719 88.816406 L 111.535156 85.121094 L 111.535156 83.1875 L 114.984375 85.175781 L 105.222656 90.769531 L 105.011719 90.644531 " fill-opacity="1" fill-rule="evenodd"/><g clip-path="url(#1557890ede)"><g clip-path="url(#2b775fdb6c)"><path fill="url(#5ea3d9be55)" d="M 127.894531 63.996094 L 127.894531 34.226562 L 107.816406 34.226562 L 107.816406 63.996094 Z M 127.894531 63.996094 " fill-rule="nonzero"/></g></g><path fill="#e7137c" d="M 105.261719 81.730469 L 105.242188 88.816406 L 98.984375 85.121094 L 98.984375 78.058594 L 105.261719 81.730469 " fill-opacity="1" fill-rule="evenodd"/><path fill="#b2164d" d="M 105.261719 81.730469 L 111.535156 78.058594 L 111.535156 85.121094 L 105.261719 88.816406 L 105.242188 88.816406 L 105.261719 81.730469 " fill-opacity="1" fill-rule="evenodd"/></svg>